<svg width="700" height="541" viewBox="0 0 700 541" fill="none" xmlns="http://www.w3.org/2000/svg">
<g filter="url(#filter0_d_2073_1510)">
<rect x="491.5" y="62.6484" width="119.239" height="92.2177" rx="18.5" stroke="white" stroke-width="3" shape-rendering="crispEdges"/>
</g>
<path d="M173.413 466.469C173.413 470.521 150.29 473.806 121.767 473.806C93.2434 473.806 70.1211 470.521 70.1211 466.469C70.1211 462.418 93.2434 459.133 121.767 459.133C150.288 459.131 173.413 462.418 173.413 466.469Z" fill="#EDE4DD"/>
<g filter="url(#filter1_d_2073_1510)">
<path d="M529.071 176.173C532.146 176.945 535.233 177.701 538.327 178.453C538.366 178.463 538.406 178.469 538.447 178.473C538.827 178.506 539.195 178.262 539.301 177.888C539.42 177.473 539.173 177.053 538.753 176.951C535.665 176.199 532.58 175.444 529.507 174.673C529.095 174.571 528.648 174.817 528.529 175.232C528.407 175.646 528.65 176.067 529.071 176.173Z" fill="white"/>
<path d="M492.639 164.992C495.482 166.105 498.49 167.202 501.586 168.256C501.647 168.276 501.71 168.29 501.772 168.295C502.125 168.326 502.474 168.12 502.607 167.777C502.761 167.372 502.555 166.932 502.147 166.793C499.074 165.747 496.085 164.657 493.268 163.552C492.863 163.393 492.401 163.591 492.226 163.988C492.054 164.385 492.238 164.835 492.639 164.992Z" fill="white"/>
<path d="M510.669 171.157C513.58 172.031 516.58 172.886 519.84 173.769C519.885 173.78 519.933 173.789 519.979 173.793C520.351 173.826 520.714 173.594 520.829 173.227C520.957 172.815 520.723 172.389 520.304 172.276C517.059 171.397 514.074 170.546 511.175 169.676C510.766 169.55 510.312 169.781 510.172 170.191C510.033 170.601 510.255 171.032 510.669 171.157Z" fill="white"/>
<path d="M565.983 185.51C569.229 186.426 572.201 187.313 575.069 188.221C575.126 188.24 575.184 188.251 575.24 188.256C575.599 188.287 575.953 188.072 576.08 187.721C576.225 187.314 576.01 186.879 575.599 186.748C572.714 185.835 569.727 184.943 566.463 184.022C566.056 183.91 565.602 184.142 565.469 184.553C565.336 184.964 565.566 185.392 565.983 185.51Z" fill="white"/>
<path d="M584.033 191.252C587.079 192.356 590.036 193.515 592.82 194.693C592.898 194.726 592.979 194.746 593.059 194.753C593.391 194.782 593.723 194.601 593.871 194.285C594.056 193.892 593.884 193.437 593.487 193.269C590.678 192.081 587.695 190.912 584.623 189.799C584.214 189.651 583.756 189.859 583.594 190.259C583.431 190.659 583.628 191.104 584.033 191.252Z" fill="white"/>
<path d="M547.582 180.71C550.662 181.468 553.741 182.238 556.808 183.034C556.852 183.045 556.896 183.052 556.941 183.056C557.317 183.089 557.681 182.852 557.793 182.482C557.916 182.068 557.677 181.645 557.258 181.537C554.183 180.74 551.098 179.968 548.012 179.209C547.596 179.102 547.154 179.357 547.036 179.772C546.916 180.186 547.161 180.606 547.582 180.71Z" fill="white"/>
<path d="M475.381 157.06C478.076 158.517 480.937 159.941 483.886 161.29C483.97 161.328 484.058 161.35 484.145 161.358C484.468 161.386 484.794 161.216 484.948 160.91C485.142 160.522 484.984 160.063 484.594 159.883C481.675 158.547 478.844 157.14 476.181 155.7C475.803 155.499 475.318 155.632 475.099 156.01C474.878 156.386 475.004 156.856 475.381 157.06Z" fill="white"/>
<path d="M452.339 140.592C452.471 140.716 452.636 140.786 452.806 140.801C453.038 140.821 453.281 140.74 453.459 140.561C453.768 140.251 453.769 139.762 453.462 139.468C451.301 137.411 449.201 135.218 447.04 132.763C446.759 132.445 446.259 132.417 445.926 132.701C445.59 132.986 445.547 133.475 445.827 133.794C448.016 136.281 450.147 138.505 452.339 140.592Z" fill="white"/>
<path d="M405.847 82.194C405.98 82.3371 406.159 82.4167 406.345 82.4329C406.562 82.4518 406.79 82.3826 406.965 82.224C407.292 81.9301 407.32 81.4398 407.03 81.1298C404.896 78.8516 402.683 76.5951 400.455 74.4253C400.153 74.1291 399.648 74.1365 399.335 74.4442C399.021 74.7519 399.015 75.2418 399.32 75.5382C401.533 77.6929 403.728 79.9319 405.847 82.194Z" fill="white"/>
<path d="M385.328 63.1851C387.729 65.1059 390.134 67.1288 392.476 69.1988C392.603 69.3117 392.76 69.3745 392.921 69.3885C393.163 69.4097 393.415 69.3219 393.595 69.1295C393.894 68.808 393.877 68.3195 393.557 68.0366C391.198 65.9514 388.773 63.9119 386.352 61.9756C386.019 61.7065 385.517 61.7645 385.237 62.0979C384.953 62.4322 384.995 62.9194 385.328 63.1851Z" fill="white"/>
<path d="M417.941 96.3422C418.076 96.5152 418.274 96.6136 418.482 96.6317C418.676 96.6487 418.879 96.5955 419.05 96.4663C419.4 96.2008 419.471 95.7131 419.21 95.3794C417.301 92.9344 415.307 90.4922 413.281 88.1217C413.005 87.7992 412.507 87.7627 412.169 88.0441C411.829 88.3244 411.779 88.8127 412.054 89.1362C414.066 91.4907 416.046 93.9145 417.941 96.3422Z" fill="white"/>
<path d="M601.369 198.624C603.477 199.675 605.556 200.779 607.544 201.904C608.234 202.296 608.922 202.696 609.605 203.104C609.71 203.166 609.822 203.2 609.938 203.211C610.23 203.236 610.529 203.1 610.699 202.837C610.935 202.47 610.827 201.994 610.46 201.774C609.766 201.362 609.071 200.957 608.369 200.559C606.356 199.419 604.256 198.303 602.124 197.24C601.74 197.052 601.26 197.204 601.051 197.585C600.841 197.968 600.985 198.432 601.369 198.624Z" fill="white"/>
<path d="M428.902 111.41C429.035 111.6 429.243 111.711 429.464 111.73C429.645 111.746 429.835 111.701 430 111.588C430.363 111.34 430.46 110.856 430.216 110.509C428.429 107.958 426.639 105.408 424.819 102.884C424.572 102.54 424.08 102.468 423.718 102.719C423.358 102.973 423.269 103.457 423.517 103.801C425.331 106.319 427.117 108.864 428.902 111.41Z" fill="white"/>
<path d="M459.498 146.762C461.923 148.653 464.518 150.496 467.215 152.238C467.323 152.308 467.446 152.348 467.571 152.359C467.852 152.384 468.143 152.258 468.316 152.009C468.564 151.65 468.475 151.171 468.115 150.939C465.457 149.222 462.898 147.406 460.51 145.541C460.173 145.279 459.674 145.339 459.396 145.676C459.116 146.013 459.162 146.5 459.498 146.762Z" fill="white"/>
<path d="M439.871 126.549C440.006 126.723 440.203 126.822 440.412 126.841C440.605 126.857 440.808 126.804 440.977 126.677C441.329 126.413 441.403 125.927 441.143 125.591C439.424 123.374 437.661 120.999 435.593 118.119C435.344 117.775 434.853 117.701 434.493 117.952C434.133 118.205 434.042 118.689 434.289 119.034C436.367 121.929 438.14 124.316 439.871 126.549Z" fill="white"/>
<path d="M585.068 418.469C585.11 418.481 585.154 418.487 585.198 418.491C585.574 418.524 585.938 418.286 586.05 417.916C586.93 414.969 587.927 411.948 589.014 408.938C589.162 408.531 588.946 408.095 588.535 407.964C588.131 407.833 587.671 408.056 587.525 408.463C586.428 411.503 585.421 414.55 584.532 417.525C584.409 417.938 584.65 418.362 585.068 418.469Z" fill="white"/>
<path d="M644.496 298.896C644.843 298.926 645.189 298.726 645.325 298.388C646.608 295.202 647.679 292.261 648.603 289.4C648.735 288.988 648.505 288.561 648.088 288.443C647.668 288.33 647.225 288.565 647.093 288.976C646.182 291.802 645.123 294.708 643.856 297.861C643.694 298.263 643.892 298.707 644.299 298.852C644.364 298.876 644.431 298.89 644.496 298.896Z" fill="white"/>
<path d="M650.915 270.672C650.843 271.613 650.747 272.553 650.633 273.489C650.38 275.562 650.015 277.72 649.546 279.903C649.455 280.324 649.73 280.726 650.158 280.801C650.182 280.805 650.204 280.808 650.228 280.81C650.63 280.845 651.011 280.573 651.096 280.176C651.572 277.947 651.945 275.744 652.203 273.626C652.321 272.666 652.418 271.706 652.493 270.741C652.527 270.315 652.239 269.954 651.764 269.933C651.328 269.914 650.948 270.245 650.915 270.672Z" fill="white"/>
<path d="M618.199 349.819C618.503 349.845 618.816 349.694 618.979 349.412C620.576 346.647 622.173 343.881 623.753 341.108C623.97 340.729 623.837 340.262 623.456 340.062C623.081 339.866 622.593 340.006 622.378 340.385C620.797 343.155 619.204 345.92 617.607 348.682C617.389 349.06 617.52 349.529 617.899 349.73C617.994 349.782 618.096 349.81 618.199 349.819Z" fill="white"/>
<path d="M578.256 454.905C578.239 455.311 578.545 455.648 578.951 455.683C578.972 455.685 578.993 455.687 579.014 455.686C579.45 455.691 579.819 455.349 579.837 454.921C579.969 451.819 580.2 448.675 580.522 445.577C580.566 445.151 580.214 444.813 579.816 444.749C579.381 444.719 578.991 445.038 578.947 445.466C578.622 448.595 578.389 451.771 578.256 454.905Z" fill="white"/>
<path d="M650.892 261.411C650.924 261.783 651.22 262.063 651.585 262.094C651.637 262.099 651.69 262.099 651.744 262.092C652.179 262.044 652.503 261.661 652.468 261.236C652.207 258.129 651.686 254.987 650.918 251.9C650.816 251.487 650.39 251.242 649.963 251.358C649.539 251.471 649.277 251.896 649.379 252.309C650.129 255.319 650.637 258.382 650.892 261.411Z" fill="white"/>
<path d="M370.132 52.2696C372.727 53.9284 375.334 55.6968 377.881 57.5263C377.998 57.6097 378.132 57.6568 378.267 57.6686C378.536 57.692 378.814 57.5791 378.99 57.3487C379.255 57.0013 379.19 56.5177 378.843 56.2691C376.273 54.425 373.643 52.6409 371.024 50.9675C370.663 50.736 370.169 50.8415 369.924 51.202C369.679 51.5613 369.771 52.0392 370.132 52.2696Z" fill="white"/>
<path d="M580.879 436.934L580.913 436.937C581.332 436.973 581.72 436.681 581.789 436.269C582.305 433.189 582.925 430.084 583.632 427.041C583.729 426.622 583.463 426.214 583.037 426.132C582.619 426.055 582.186 426.323 582.088 426.742C581.374 429.817 580.748 432.952 580.226 436.063C580.155 436.487 580.447 436.876 580.879 436.934Z" fill="white"/>
<path d="M608.402 366.361C608.495 366.409 608.593 366.436 608.693 366.445C609.002 366.472 609.317 366.317 609.478 366.03C611.035 363.251 612.613 360.48 614.201 357.714C614.418 357.335 614.286 356.867 613.906 356.666C613.527 356.469 613.044 356.609 612.826 356.987C611.235 359.758 609.654 362.534 608.095 365.317C607.883 365.698 608.02 366.164 608.402 366.361Z" fill="white"/>
<path d="M617.398 208.242C619.921 210.073 622.369 212.028 624.675 214.054C624.801 214.165 624.958 214.227 625.12 214.241C625.362 214.262 625.615 214.174 625.794 213.98C626.092 213.658 626.073 213.17 625.752 212.888C623.412 210.832 620.927 208.846 618.367 206.988C618.019 206.737 617.523 206.814 617.258 207.16C616.989 207.507 617.052 207.991 617.398 208.242Z" fill="white"/>
<path d="M591.427 400.553C591.495 400.578 591.564 400.593 591.633 400.599C591.978 400.629 592.321 400.434 592.459 400.101C593.62 397.313 594.912 394.388 596.297 391.406C596.479 391.013 596.305 390.557 595.908 390.391C595.513 390.228 595.042 390.409 594.858 390.803C593.466 393.802 592.166 396.748 590.996 399.556C590.83 399.957 591.022 400.402 591.427 400.553Z" fill="white"/>
<path d="M637.305 227.603C637.44 227.781 637.641 227.885 637.854 227.903C638.044 227.92 638.241 227.87 638.41 227.747C638.764 227.488 638.846 227.002 638.592 226.662C636.742 224.199 634.704 221.774 632.533 219.451C632.244 219.141 631.744 219.129 631.416 219.421C631.088 219.715 631.06 220.204 631.351 220.516C633.485 222.798 635.489 225.183 637.305 227.603Z" fill="white"/>
<path d="M640.094 306.592C638.838 309.354 637.463 312.245 636.001 315.186C635.807 315.575 635.97 316.034 636.361 316.212C636.444 316.248 636.53 316.27 636.616 316.278C636.94 316.306 637.268 316.136 637.421 315.828C638.888 312.87 640.274 309.962 641.537 307.187C641.716 306.792 641.539 306.338 641.141 306.175C640.738 306.006 640.274 306.199 640.094 306.592Z" fill="white"/>
<path d="M646.495 243.562C646.606 243.831 646.858 243.999 647.137 244.023C647.263 244.034 647.396 244.015 647.523 243.962C647.929 243.792 648.127 243.336 647.965 242.944C646.792 240.104 645.387 237.265 643.79 234.507C643.575 234.138 643.092 234.022 642.713 234.239C642.331 234.458 642.194 234.933 642.406 235.301C643.972 238.003 645.347 240.782 646.495 243.562Z" fill="white"/>
<path d="M627.392 333.091C627.485 333.138 627.583 333.165 627.681 333.173C627.991 333.2 628.307 333.045 628.468 332.756C630.123 329.774 631.622 327.021 633.045 324.338C633.249 323.955 633.1 323.491 632.714 323.303C632.331 323.116 631.849 323.276 631.645 323.659C630.225 326.332 628.733 329.077 627.082 332.05C626.871 332.428 627.01 332.897 627.392 333.091Z" fill="white"/>
<path d="M599.654 383.295C599.976 383.323 600.301 383.155 600.456 382.85C601.824 380.145 603.27 377.379 604.873 374.396C605.078 374.012 604.933 373.548 604.548 373.359C604.164 373.172 603.683 373.327 603.477 373.709C601.867 376.705 600.416 379.481 599.042 382.199C598.845 382.588 599.002 383.047 599.394 383.227C599.479 383.266 599.567 383.287 599.654 383.295Z" fill="white"/>
<path d="M61.503 241.83C61.0927 241.716 60.6426 241.957 60.512 242.367C59.5579 245.394 58.6707 248.474 57.876 251.523C57.7666 251.941 58.0225 252.354 58.4457 252.448C58.4797 252.456 58.5152 252.461 58.5486 252.464C58.9372 252.498 59.3084 252.244 59.4087 251.863C60.197 248.838 61.0763 245.785 62.0238 242.783C62.1534 242.371 61.9202 241.944 61.503 241.83Z" fill="white"/>
<path d="M52.8318 297.6C52.3951 297.617 52.0445 297.977 52.0483 298.404C52.0794 301.531 52.1939 304.701 52.3888 307.823C52.4124 308.201 52.7115 308.491 53.0839 308.523C53.13 308.527 53.1777 308.528 53.2271 308.524C53.6631 308.484 53.9959 308.107 53.9687 307.682C53.7752 304.586 53.661 301.443 53.6302 298.342C53.6263 297.916 53.285 297.572 52.8318 297.6Z" fill="white"/>
<path d="M54.8023 316.975C54.7528 316.551 54.3639 316.253 53.9282 316.319C53.4933 316.379 53.1806 316.772 53.2291 317.195C53.5858 320.29 54.029 323.421 54.5448 326.501C54.6027 326.847 54.8906 327.094 55.2308 327.124C55.3034 327.13 55.3771 327.127 55.4535 327.112C55.8855 327.03 56.1776 326.623 56.1065 326.204C55.5957 323.15 55.1553 320.044 54.8023 316.975Z" fill="white"/>
<path d="M118.028 156.023C118.242 156.042 118.466 155.974 118.642 155.819C120.447 154.226 122.311 152.645 124.184 151.117C124.794 150.62 125.405 150.127 126.021 149.636C126.365 149.362 126.426 148.873 126.156 148.546C125.886 148.217 125.388 148.175 125.044 148.448C124.425 148.941 123.808 149.439 123.193 149.94C121.303 151.481 119.423 153.077 117.603 154.683C117.274 154.974 117.24 155.463 117.527 155.777C117.659 155.924 117.84 156.007 118.028 156.023Z" fill="white"/>
<path d="M68.1961 224.02C67.7944 223.865 67.3285 224.063 67.1587 224.461C65.9033 227.388 64.7082 230.375 63.6069 233.338C63.456 233.744 63.6669 234.182 64.0769 234.317C64.1362 234.337 64.1966 234.348 64.2566 234.353C64.6128 234.384 64.9637 234.174 65.0935 233.827C66.185 230.887 67.3701 227.924 68.6156 225.02C68.7854 224.623 68.5978 224.175 68.1961 224.02Z" fill="white"/>
<path d="M92.6617 410.974C92.7965 411.139 92.989 411.233 93.1908 411.25C93.3914 411.268 93.6012 411.211 93.7715 411.076C94.1162 410.802 94.1782 410.313 93.9084 409.985C91.9528 407.596 90.0376 405.124 88.2152 402.637C87.9635 402.294 87.4708 402.226 87.112 402.482C86.7545 402.738 86.6673 403.222 86.919 403.565C88.7588 406.071 90.69 408.565 92.6617 410.974Z" fill="white"/>
<path d="M53.7906 288.984C53.9076 286.294 54.0891 283.581 54.3283 280.921L54.4485 279.633C54.4901 279.207 54.1998 278.875 53.7357 278.811C53.3009 278.783 52.914 279.108 52.8724 279.534L52.7507 280.833C52.5098 283.517 52.3265 286.254 52.208 288.966C52.1907 289.374 52.4968 289.71 52.9038 289.746C52.9234 289.748 52.9442 289.749 52.9652 289.749C53.4029 289.753 53.7721 289.411 53.7906 288.984Z" fill="white"/>
<path d="M54.7129 270.986L54.7359 270.988C55.1591 271.025 55.5488 270.725 55.6127 270.308C56.0802 267.23 56.6386 264.113 57.2702 261.045C57.3578 260.624 57.0805 260.224 56.6523 260.152C56.2242 260.089 55.8061 260.363 55.7196 260.784C55.0813 263.878 54.5184 267.023 54.0465 270.128C53.9829 270.552 54.2807 270.937 54.7129 270.986Z" fill="white"/>
<path d="M57.8832 335.346C57.7919 334.93 57.3718 334.677 56.9432 334.78C56.5159 334.882 56.2443 335.302 56.3357 335.717C57.0075 338.751 57.7679 341.813 58.5969 344.819C58.6833 345.132 58.9562 345.34 59.2675 345.367C59.3644 345.376 59.4656 345.367 59.5659 345.338C59.9877 345.215 60.2397 344.783 60.1266 344.374C59.305 341.393 58.5499 338.355 57.8832 335.346Z" fill="white"/>
<path d="M76.6581 206.897C76.2747 206.707 75.7938 206.856 75.5841 207.237C74.0453 210.033 72.5585 212.9 71.1638 215.756C70.9738 216.147 71.1369 216.605 71.5316 216.779C71.6124 216.814 71.697 216.836 71.7824 216.844C72.1086 216.872 72.4377 216.698 72.5885 216.388C73.9723 213.555 75.448 210.712 76.9735 207.939C77.1822 207.557 77.0411 207.091 76.6581 206.897Z" fill="white"/>
<path d="M110.489 161.275C108.196 163.513 105.921 165.848 103.729 168.212C103.431 168.534 103.448 169.023 103.768 169.304C103.895 169.416 104.052 169.479 104.212 169.493C104.454 169.514 104.706 169.426 104.886 169.233C107.061 166.887 109.315 164.573 111.59 162.354C111.904 162.047 111.912 161.558 111.609 161.259C111.303 160.96 110.804 160.969 110.489 161.275Z" fill="white"/>
<path d="M98.4483 175.344C98.1116 175.076 97.6138 175.135 97.3327 175.47C95.2742 177.924 93.247 180.464 91.3063 183.021C91.0424 183.368 91.1102 183.852 91.4586 184.1C91.5743 184.183 91.7062 184.229 91.8422 184.241C92.112 184.264 92.3917 184.15 92.5668 183.919C94.4922 181.383 96.5028 178.863 98.5436 176.431C98.8249 176.094 98.7818 175.608 98.4483 175.344Z" fill="white"/>
<path d="M62.832 353.269C62.6973 352.865 62.2501 352.653 61.836 352.799C61.4201 352.941 61.1911 353.384 61.3248 353.787C62.3045 356.743 63.3729 359.707 64.5003 362.598C64.6075 362.874 64.8634 363.049 65.147 363.074C65.2693 363.085 65.3971 363.069 65.5196 363.02C65.9288 362.857 66.1357 362.404 65.9811 362.009C64.8626 359.141 63.803 356.2 62.832 353.269Z" fill="white"/>
<path d="M86.7545 190.61C86.3923 190.38 85.9006 190.484 85.6547 190.846C83.8512 193.481 82.0867 196.198 80.41 198.922C80.1817 199.293 80.2986 199.766 80.6712 199.978C80.7714 200.035 80.8805 200.067 80.99 200.077C81.2875 200.103 81.5926 199.961 81.7598 199.69C83.4224 196.987 85.1738 194.292 86.9617 191.679C87.2072 191.319 87.1143 190.84 86.7545 190.61Z" fill="white"/>
<path d="M336.367 35.8712C339.312 36.8768 342.281 37.9988 345.19 39.2047C345.266 39.2366 345.344 39.2559 345.423 39.2628C345.756 39.2918 346.091 39.1084 346.238 38.7897C346.419 38.395 346.243 37.9418 345.846 37.7768C342.906 36.5591 339.907 35.4253 336.931 34.4089C336.518 34.2689 336.064 34.4842 335.909 34.8881C335.753 35.2917 335.958 35.7326 336.367 35.8712Z" fill="white"/>
<path d="M280.003 29.1917C280.052 29.196 280.103 29.1958 280.153 29.1911C283.323 28.8764 286.536 28.674 289.702 28.5866C290.139 28.5755 290.494 28.2189 290.496 27.7915C290.498 27.3652 290.144 27.02 289.707 27.0402C286.501 27.1265 283.251 27.3324 280.042 27.6506C279.606 27.6937 279.279 28.0733 279.309 28.499C279.336 28.874 279.633 29.1594 280.003 29.1917Z" fill="white"/>
<path d="M260.993 32.4906C261.081 32.4982 261.17 32.4912 261.262 32.4683C264.341 31.6987 267.502 31.0322 270.655 30.4851C271.088 30.4096 271.387 30.0082 271.323 29.5876C271.26 29.1659 270.854 28.887 270.426 28.9617C267.233 29.5156 264.033 30.1913 260.915 30.9701C260.489 31.0759 260.221 31.4984 260.316 31.9125C260.392 32.2381 260.669 32.4624 260.993 32.4906Z" fill="white"/>
<path d="M242.634 38.5758C242.761 38.5868 242.894 38.5675 243.02 38.5145C245.946 37.2868 248.977 36.1529 252.028 35.143C252.446 35.0045 252.68 34.5642 252.551 34.1608C252.423 33.7563 251.982 33.5384 251.563 33.679C248.472 34.7026 245.401 35.8513 242.436 37.095C242.029 37.2654 241.831 37.7214 241.993 38.1128C242.103 38.382 242.356 38.5515 242.634 38.5758Z" fill="white"/>
<path d="M353.775 43.0779C356.556 44.4351 359.354 45.9046 362.091 47.4466C362.192 47.5033 362.299 47.5344 362.407 47.5438C362.706 47.5699 363.012 47.4262 363.178 47.1538C363.405 46.7813 363.285 46.3102 362.912 46.0993C360.149 44.5436 357.324 43.0592 354.515 41.6893C354.127 41.5023 353.65 41.6584 353.445 42.0419C353.241 42.4265 353.388 42.8898 353.775 43.0779Z" fill="white"/>
<path d="M225.454 47.4787C225.625 47.4936 225.803 47.4543 225.962 47.355C228.641 45.6679 231.449 44.0617 234.307 42.5834C234.697 42.3808 234.856 41.9122 234.662 41.5351C234.467 41.1603 233.991 41.0182 233.601 41.2208C230.702 42.7218 227.854 44.3508 225.134 46.0629C224.762 46.2969 224.645 46.7771 224.874 47.1343C225.005 47.339 225.221 47.4584 225.454 47.4787Z" fill="white"/>
<path d="M318.105 30.9519C321.173 31.5601 324.277 32.2858 327.33 33.1098C327.376 33.1219 327.422 33.1293 327.468 33.1333C327.841 33.1659 328.204 32.9334 328.318 32.5661C328.445 32.1542 328.211 31.7279 327.793 31.6149C324.707 30.7821 321.569 30.0489 318.465 29.4342C318.055 29.3515 317.615 29.6208 317.515 30.0396C317.415 30.4596 317.679 30.8679 318.105 30.9519Z" fill="white"/>
<path d="M99.0018 418.281C101.232 420.713 103.323 422.842 105.391 424.789C105.52 424.911 105.685 424.979 105.854 424.994C106.088 425.014 106.332 424.932 106.511 424.751C106.818 424.439 106.817 423.949 106.507 423.658C104.466 421.736 102.4 419.632 100.133 417.161L100.001 417.018C99.7144 416.705 99.2148 416.683 98.8845 416.973C98.5543 417.262 98.5177 417.752 98.8043 418.067L99.0018 418.281Z" fill="white"/>
<path d="M299.213 28.6721C299.224 28.6731 299.236 28.6741 299.246 28.6739C302.416 28.8176 305.599 29.0803 308.734 29.461C309.173 29.4948 309.569 29.2115 309.636 28.7875C309.702 28.3622 309.407 27.9763 308.975 27.925C305.8 27.5429 302.579 27.2758 299.368 27.1285C298.932 27.1088 298.552 27.438 298.518 27.8661C298.487 28.2807 298.794 28.6356 299.213 28.6721Z" fill="white"/>
<path d="M148.635 132.377C148.83 132.394 149.034 132.341 149.205 132.212C152.064 130.035 154.554 128.067 156.819 126.198C157.159 125.917 157.209 125.429 156.933 125.105C156.656 124.783 156.158 124.747 155.819 125.028C153.571 126.884 151.097 128.838 148.256 131.002C147.905 131.268 147.834 131.755 148.096 132.089C148.231 132.262 148.429 132.359 148.635 132.377Z" fill="white"/>
<path d="M163.488 120.009C163.711 120.029 163.944 119.956 164.122 119.789C166.613 117.448 168.834 115.174 170.911 112.84C171.203 112.514 171.174 112.025 170.849 111.75C170.524 111.476 170.023 111.515 169.732 111.844C167.686 114.142 165.498 116.381 163.043 118.689C162.723 118.991 162.705 119.481 163.003 119.783C163.135 119.918 163.308 119.994 163.488 120.009Z" fill="white"/>
<path d="M133.1 143.913C133.293 143.93 133.494 143.878 133.663 143.752C135.761 142.183 137.872 140.629 139.985 139.075L141.44 138.002C141.794 137.742 141.874 137.256 141.618 136.917C141.364 136.579 140.866 136.515 140.513 136.776L139.058 137.847C136.944 139.404 134.828 140.96 132.726 142.531C132.374 142.794 132.298 143.281 132.557 143.618C132.691 143.795 132.89 143.895 133.1 143.913Z" fill="white"/>
<path d="M210.096 59.1925C210.316 59.2117 210.546 59.1403 210.723 58.9774C213.05 56.84 215.524 54.7714 218.076 52.8297C218.426 52.5642 218.497 52.0765 218.235 51.7427C217.972 51.4053 217.477 51.353 217.128 51.6198C214.535 53.5923 212.022 55.6929 209.659 57.866C209.335 58.1624 209.312 58.6531 209.606 58.96C209.738 59.0995 209.913 59.1766 210.096 59.1925Z" fill="white"/>
<path d="M196.88 73.3837C196.994 73.4623 197.124 73.5056 197.254 73.517C197.527 73.5408 197.811 73.4237 197.987 73.1864C198.625 72.3195 199.277 71.4616 199.942 70.6131C201.23 68.9727 202.594 67.347 204 65.7799C204.293 65.4533 204.266 64.9651 203.941 64.6886C203.615 64.4132 203.116 64.4532 202.823 64.7798C201.394 66.3735 200.005 68.0279 198.697 69.6951C198.021 70.5564 197.359 71.4271 196.711 72.3069C196.452 72.6594 196.528 73.1416 196.88 73.3837Z" fill="white"/>
<path d="M186.416 89.455C186.517 89.5129 186.626 89.5453 186.735 89.5548C187.033 89.5808 187.338 89.4393 187.505 89.168C189.052 86.6597 190.805 83.816 192.587 81.0595C192.824 80.6926 192.718 80.218 192.35 79.9973C191.983 79.7756 191.493 79.8952 191.256 80.2621C189.464 83.0337 187.706 85.885 186.156 88.4011C185.927 88.7709 186.044 89.243 186.416 89.455Z" fill="white"/>
<path d="M175.88 105.482C175.993 105.561 176.12 105.603 176.252 105.614C176.526 105.638 176.811 105.52 176.986 105.28C178.685 102.953 180.461 100.345 182.414 97.306C182.649 96.9389 182.543 96.4632 182.175 96.2436C181.805 96.0227 181.316 96.1447 181.08 96.5106C179.145 99.5224 177.387 102.104 175.707 104.406C175.449 104.76 175.526 105.241 175.88 105.482Z" fill="white"/>
</g>
<g filter="url(#filter2_d_2073_1510)">
<path d="M142.553 467.512H101.458C95.8701 467.512 90.9159 463.913 89.1904 458.598L71.7624 404.954C71.0493 402.759 72.5794 400.48 74.8808 400.301C106.612 397.842 138.032 397.84 169.139 400.295C171.436 400.476 172.964 402.756 172.251 404.948L154.821 458.598C153.096 463.911 148.142 467.512 142.553 467.512Z" fill="#F99900"/>
<path d="M168.595 404.194C168.595 405.62 147.86 406.778 122.28 406.778C96.7004 406.778 75.9648 405.622 75.9648 404.194C75.9648 402.767 96.7004 401.609 122.28 401.609C147.86 401.609 168.595 402.767 168.595 404.194Z" fill="#373543"/>
<path d="M127.246 404.544L122.727 403.871C131.013 348.246 134.635 288.043 133.801 219.822L138.371 219.766C139.209 288.234 135.57 348.676 127.246 404.544Z" fill="#3043BC"/>
<path d="M128.555 356.371C128.135 337.677 103.669 323.918 103.422 323.781L105.632 319.781C106.736 320.39 132.644 334.937 133.124 356.269L128.555 356.371Z" fill="#3043BC"/>
<path d="M134.508 340.82L130.023 339.932C136.89 305.28 161.096 290.58 162.123 289.971L164.455 293.9C164.22 294.039 140.959 308.251 134.508 340.82Z" fill="#3043BC"/>
<path d="M52.4081 321.063C47.0506 329.164 53.0712 346.68 53.0712 346.68L67.333 375.692L93.1434 362.156C93.1434 362.156 89.7983 339.738 92.4136 340.26C95.029 340.782 99.0247 359.929 99.0247 359.929L111.499 351.888C111.499 351.888 101.885 326.859 107.178 329.277C112.472 331.693 118.168 347.439 118.168 347.439C118.168 347.439 121.627 347.114 126.137 336.455C130.638 325.801 127.823 305.872 114.093 303.132C100.37 300.394 92.3284 308.643 92.3284 308.643C88.0062 289.431 72.5262 293.477 64.0295 295.177C55.5327 296.884 52.0068 311.131 52.0068 311.131C52.0068 311.131 74.1644 307.398 72.7944 312.562C71.4244 317.722 52.4081 321.063 52.4081 321.063ZM106.507 308.855C106.507 308.855 113.8 307.394 115.224 311.955C116.648 316.516 106.686 318.227 103.251 316.175C99.8127 314.129 101.569 310.202 106.507 308.855ZM66.2789 328.971C70.1874 325.113 75.0002 326.522 75.0002 326.522C75.0002 326.522 75.7902 330.688 72.1437 334.873C68.5014 339.064 61.5867 338.985 61.5867 338.985C61.5867 338.985 62.3663 332.821 66.2789 328.971Z" fill="#375BC9"/>
<path d="M55.7377 213.543C47.9915 221.47 50.9685 242.392 50.9685 242.392L60.7086 277.974L92.5459 268.359C92.5459 268.359 93.6227 242.517 96.4397 243.665C99.2567 244.812 99.6164 267.128 99.6164 267.128L115.325 260.802C115.325 260.802 109.936 230.686 115.348 234.532C120.762 238.378 123.757 257.249 123.757 257.249C123.757 257.249 127.705 257.629 135.05 246.656C142.387 235.686 143.522 212.744 128.726 206.719C113.936 200.697 103.151 208.212 103.151 208.212C102.442 185.753 84.2217 186.957 74.3362 187.034C64.4465 187.117 57.43 202.326 57.43 202.326C57.43 202.326 83.0637 202.909 80.4171 208.401C77.7665 213.892 55.7377 213.543 55.7377 213.543ZM118.99 211.503C118.99 211.503 127.477 211.434 128.092 216.852C128.705 222.27 117.173 222.043 113.766 219.006C110.354 215.973 113.169 211.952 118.99 211.503ZM69.5815 225.391C74.7914 221.908 79.8808 224.524 79.8808 224.524C79.8808 224.524 79.8704 229.361 74.8829 233.268C69.8997 237.18 62.1659 235.605 62.1659 235.605C62.1659 235.605 64.3675 228.865 69.5815 225.391Z" fill="#375BC9"/>
<path d="M188.597 280.262C187.562 274.894 210.522 280.221 210.522 280.221C210.522 280.221 207.927 265.425 199.144 263.102C190.362 260.786 174.431 255.595 168.404 274.923C168.404 274.923 160.608 265.948 145.995 267.809C131.376 269.67 126.877 289.838 130.773 301.027C134.675 312.222 138.282 312.79 138.282 312.79C138.282 312.79 145.481 297.096 151.224 294.99C156.966 292.884 144.935 317.792 144.935 317.792L157.4 326.858C157.4 326.858 163.08 307.574 165.864 307.22C168.647 306.865 163.398 329.536 163.398 329.536L189.431 345.124L206.649 316.463C206.649 316.463 214.327 298.985 209.333 290.343C209.333 290.343 189.639 285.63 188.597 280.262ZM156.365 281.875C152.602 283.736 142.28 281.308 144.128 276.747C145.976 272.185 153.515 274.177 153.515 274.177C158.589 275.892 160.13 280.021 156.365 281.875ZM198.312 308.021C198.312 308.021 191.05 307.63 187.554 303.1C184.05 298.576 185.204 294.374 185.204 294.374C185.204 294.374 190.362 293.262 194.165 297.47C197.971 301.673 198.312 308.021 198.312 308.021Z" fill="#375BC9"/>
</g>
<path d="M367.681 513.82C536.635 513.82 673.6 502.442 673.6 488.407C673.6 474.372 536.635 462.994 367.681 462.994C198.726 462.994 61.7617 474.372 61.7617 488.407C61.7617 502.442 198.726 513.82 367.681 513.82Z" fill="#EDE4DD"/>
<path d="M200.371 450.268C175.676 448.498 156.699 432.526 157.984 414.595C159.27 396.663 180.33 383.561 205.024 385.331C229.719 387.1 259.729 405.895 263.954 422.189C257.826 438.72 225.065 452.037 200.371 450.268Z" fill="white"/>
<path d="M200.371 450.268C175.676 448.498 156.699 432.526 157.984 414.595C159.27 396.663 180.33 383.561 205.024 385.331C229.719 387.1 259.729 405.895 263.954 422.189C257.826 438.72 225.065 452.037 200.371 450.268Z" fill="url(#paint0_linear_2073_1510)"/>
<g filter="url(#filter3_d_2073_1510)">
<path d="M152.91 422.49L191.888 340.624L230.19 358.86L191.21 440.727L152.91 422.49Z" fill="#FFCE31"/>
<path d="M229.446 317.381L224.568 315.06C215.326 310.661 204.337 314.562 199.748 323.872L191.806 340.559L230.315 358.888L238.258 342.201C242.657 332.959 238.688 321.78 229.446 317.381Z" fill="#ED4C5C"/>
<path d="M186.955 351.051L191.963 340.521L230.267 358.753L225.258 369.28L186.955 351.051Z" fill="#93A2AA"/>
<path d="M190.958 352.955L195.967 342.428L226.104 356.77L221.09 367.297L190.958 352.955Z" fill="#C7D3D8"/>
<path d="M152.819 422.458L151.94 459.039L163.492 464.537L191.328 440.787L152.819 422.458Z" fill="#FED0AC"/>
<path d="M151.879 465.46C151.788 470.612 154.802 471.889 158.743 468.57L172.194 457.18L152.426 447.771L151.879 465.46Z" fill="#333333"/>
<path d="M152.854 422.599L186.897 351.073L199.606 357.122L165.562 428.647L152.854 422.599Z" fill="#FFDF85"/>
<path d="M178.526 434.751L212.569 363.226L225.277 369.274L191.234 440.799L178.526 434.751Z" fill="#FF8736"/>
</g>
<ellipse cx="408.536" cy="497.407" rx="149.904" ry="11.2589" fill="black" fill-opacity="0.45"/>
<ellipse cx="242.229" cy="476.183" rx="53.7208" ry="8.04204" fill="black" fill-opacity="0.45"/>
<g filter="url(#filter4_d_2073_1510)">
<path d="M129.141 481.932L249.797 479.08L316.717 494.874L190.945 497.847L129.141 481.932Z" fill="white"/>
</g>
<g filter="url(#filter5_d_2073_1510)">
<ellipse cx="448.205" cy="206.722" rx="55.3817" ry="36.4353" transform="rotate(26.4912 448.205 206.722)" fill="url(#paint1_linear_2073_1510)"/>
<ellipse cx="417.009" cy="272.593" rx="138.454" ry="77.2429" transform="rotate(26.4912 417.009 272.593)" fill="url(#paint2_linear_2073_1510)"/>
</g>
<g filter="url(#filter6_d_2073_1510)">
<path d="M538.96 356.146C514.806 334.857 469.339 346.97 437.406 383.2C405.473 419.43 399.166 466.058 423.319 487.347C447.473 508.636 507.475 502.074 541.055 474.556C566.31 436.203 563.113 377.435 538.96 356.146Z" fill="white"/>
<path d="M423.32 487.347C399.166 466.058 405.473 419.43 437.406 383.2C469.339 346.97 514.806 334.857 538.96 356.146C563.113 377.435 564.139 437.786 541.055 474.556C506.178 504.428 447.473 508.636 423.32 487.347Z" fill="url(#paint3_linear_2073_1510)"/>
</g>
<g filter="url(#filter7_d_2073_1510)">
<g filter="url(#filter8_d_2073_1510)">
<path d="M505.725 358.761C505.725 412.421 440.474 455.922 359.984 455.922C279.493 455.922 214.242 412.421 214.242 358.761C214.242 305.1 288.57 237.31 359.984 225.65C435.769 236.338 505.725 305.1 505.725 358.761Z" fill="white"/>
</g>
<path d="M505.725 358.761C505.725 412.421 440.474 455.922 359.984 455.922C279.493 455.922 214.242 412.421 214.242 358.761C214.242 305.1 288.57 237.31 359.984 225.65C435.769 236.338 505.725 305.1 505.725 358.761Z" fill="url(#paint4_linear_2073_1510)"/>
<path d="M444.509 425.18C444.509 442.161 406.664 455.927 359.979 455.927C313.295 455.927 275.449 442.161 275.449 425.18C275.449 408.199 318.559 386.746 359.979 383.057C403.935 386.439 444.509 408.199 444.509 425.18Z" fill="url(#paint5_linear_2073_1510)"/>
</g>
<ellipse cx="274.396" cy="308.722" rx="5.5205" ry="5.5205" fill="#E2E2E2"/>
<ellipse cx="280.795" cy="303.861" rx="4.4164" ry="3.75394" fill="#E2E2E2"/>
<ellipse cx="300.229" cy="304.301" rx="4.4164" ry="3.75394" fill="#E2E2E2"/>
<path d="M312.152 307.172C312.152 310.221 302.475 300.547 290.402 300.547C278.328 300.547 269.312 310.221 269.312 307.172C269.312 304.123 278.328 296.352 290.402 296.352C302.475 296.352 312.152 304.123 312.152 307.172Z" fill="#E2E2E2"/>
<path d="M304.645 312.912C304.645 315.153 298.845 306.729 290.505 306.729C282.166 306.729 277.484 314.712 277.484 312.47C277.484 310.229 282.166 298.338 290.505 298.338C298.845 298.338 304.645 310.671 304.645 312.912Z" fill="#E2E2E2"/>
<ellipse cx="307.075" cy="308.722" rx="5.5205" ry="5.5205" fill="#E2E2E2"/>
<ellipse cx="364.771" cy="308.722" rx="5.5205" ry="5.5205" fill="#E2E2E2"/>
<ellipse cx="371.17" cy="303.861" rx="4.4164" ry="3.75394" fill="#E2E2E2"/>
<ellipse cx="390.604" cy="304.301" rx="4.4164" ry="3.75394" fill="#E2E2E2"/>
<path d="M402.527 307.172C402.527 310.221 392.85 300.547 380.777 300.547C368.703 300.547 359.688 310.221 359.688 307.172C359.688 304.123 368.703 296.352 380.777 296.352C392.85 296.352 402.527 304.123 402.527 307.172Z" fill="#E2E2E2"/>
<path d="M395.024 312.912C395.024 315.153 389.224 306.729 380.884 306.729C372.545 306.729 367.863 314.712 367.863 312.47C367.863 310.229 372.545 298.338 380.884 298.338C389.224 298.338 395.024 310.671 395.024 312.912Z" fill="#E2E2E2"/>
<ellipse cx="397.45" cy="308.722" rx="5.5205" ry="5.5205" fill="#E2E2E2"/>
<g filter="url(#filter9_d_2073_1510)">
<ellipse cx="287.568" cy="366.248" rx="21.8612" ry="31.6987" fill="white"/>
</g>
<ellipse cx="290.482" cy="368.069" rx="18.9464" ry="30.6057" fill="black"/>
<circle cx="284.654" cy="353.495" r="4.37224" fill="white"/>
<g filter="url(#filter10_d_2073_1510)">
<ellipse cx="386.924" cy="365.951" rx="21.8612" ry="31.6987" fill="white"/>
</g>
<ellipse cx="384.009" cy="367.772" rx="18.9464" ry="30.6057" fill="black"/>
<path d="M382.553 353.198C382.553 355.613 380.596 357.571 378.181 357.571C375.766 357.571 373.809 355.613 373.809 353.198C373.809 350.784 375.766 348.826 378.181 348.826C380.596 348.826 382.553 350.784 382.553 353.198Z" fill="white"/>
<path d="M364.678 439.1C340.923 446.074 325.772 465.712 330.836 482.961C335.901 500.211 359.264 508.541 383.019 501.566C406.774 494.592 432.107 469.852 432.775 453.032C423.275 438.18 388.433 432.125 364.678 439.1Z" fill="white"/>
<path d="M364.678 439.1C340.923 446.074 325.772 465.712 330.836 482.961C335.901 500.211 359.264 508.541 383.019 501.566C406.774 494.592 432.107 469.852 432.775 453.032C423.275 438.18 388.433 432.125 364.678 439.1Z" fill="url(#paint6_linear_2073_1510)"/>
<g filter="url(#filter11_d_2073_1510)">
<path d="M57.8483 156.423C58.2171 156.778 58.4298 157.265 58.4396 157.777C58.4493 158.289 58.2554 158.784 57.9004 159.153C57.5454 159.521 57.0584 159.734 56.5465 159.744C56.0347 159.754 55.54 159.56 55.1711 159.205L50.7737 154.972C50.5911 154.796 50.4449 154.586 50.3434 154.354C50.242 154.122 50.1873 153.872 50.1824 153.618C50.1776 153.365 50.2227 153.113 50.3152 152.877C50.4078 152.641 50.5459 152.425 50.7216 152.243C50.8974 152.06 51.1075 151.914 51.3398 151.812C51.572 151.711 51.822 151.656 52.0755 151.651C52.3289 151.647 52.5808 151.692 52.8168 151.784C53.0528 151.877 53.2683 152.015 53.4509 152.191L57.8483 156.423ZM42.6687 156.351C42.2153 156.589 41.8749 156.997 41.7223 157.486C41.5697 157.974 41.6175 158.504 41.8551 158.957L45.4389 165.795C45.6765 166.249 46.0845 166.589 46.5732 166.742C47.0618 166.894 47.591 166.846 48.0444 166.609C48.4978 166.371 48.8382 165.963 48.9908 165.474C49.1434 164.986 49.0956 164.457 48.858 164.003L45.2742 157.165C45.0366 156.712 44.6286 156.371 44.1399 156.219C43.6513 156.066 43.1221 156.114 42.6687 156.351ZM34.7076 160.636C34.4574 160.676 34.2176 160.766 34.002 160.899C33.7864 161.032 33.5991 161.207 33.4509 161.412C33.3027 161.618 33.1965 161.851 33.1383 162.098C33.0801 162.344 33.071 162.6 33.1117 162.85L34.09 168.875C34.1721 169.38 34.4515 169.832 34.8668 170.131C35.2822 170.431 35.7994 170.553 36.3047 170.471C36.81 170.389 37.262 170.109 37.5613 169.694C37.8606 169.278 37.9826 168.761 37.9005 168.256L36.9222 162.231C36.8816 161.981 36.7921 161.741 36.6588 161.526C36.5255 161.31 36.3511 161.123 36.1454 160.975C35.9398 160.827 35.707 160.72 35.4602 160.662C35.2135 160.604 34.9578 160.595 34.7076 160.636ZM60.2482 127.526C62.0647 130.992 60.8506 135.625 56.8269 140.566C53.1607 145.073 47.5012 149.461 40.8768 152.932C34.2523 156.404 27.4236 158.561 21.6318 159.012C15.2786 159.509 10.7786 157.871 8.96208 154.405C8.02469 152.616 7.41798 149.551 9.84614 145.089C11.4235 142.189 14.062 139.132 17.5017 136.215C17.686 133.923 18.3828 131.702 19.5404 129.715C20.6981 127.729 22.2871 126.028 24.1901 124.738C26.0932 123.447 28.2617 122.601 30.5357 122.261C32.8096 121.921 35.1308 122.096 37.328 122.773C38.4476 123.116 39.5251 123.584 40.5403 124.168C50.4161 121.536 57.7552 122.77 60.2482 127.526ZM43.0704 132.171C42.1584 130.422 40.8119 128.938 39.1604 127.86L39.1375 127.847C37.3904 126.71 35.3689 126.064 33.2859 125.979C31.2029 125.893 29.1353 126.371 27.3007 127.361C21.7593 130.358 19.6722 137.42 22.649 143.1L22.9849 143.741C23.184 144.126 23.5082 144.432 23.9041 144.608C24.3001 144.785 24.7444 144.822 25.1639 144.712C28.4412 143.821 31.6081 142.564 34.6051 140.966C37.6244 139.414 40.4601 137.529 43.0587 135.345C43.3882 135.062 43.6117 134.676 43.6926 134.249C43.7735 133.823 43.7069 133.382 43.5039 132.998L43.0704 132.171Z" fill="white"/>
</g>
<g filter="url(#filter12_d_2073_1510)">
<path d="M657.497 256.761C657.433 257.441 657.102 258.068 656.576 258.503C656.051 258.939 655.374 259.148 654.694 259.084C654.015 259.02 653.388 258.689 652.953 258.164C652.517 257.638 652.308 256.961 652.372 256.282L653.13 248.179C653.161 247.843 653.259 247.516 653.417 247.217C653.575 246.918 653.79 246.653 654.05 246.438C654.31 246.222 654.61 246.06 654.933 245.96C655.256 245.86 655.596 245.825 655.932 245.857C656.269 245.888 656.596 245.986 656.895 246.143C657.193 246.301 657.458 246.516 657.674 246.777C657.89 247.037 658.052 247.337 658.152 247.66C658.251 247.983 658.286 248.322 658.255 248.659L657.497 256.761ZM644.955 240.875C644.331 240.6 643.623 240.584 642.986 240.831C642.35 241.078 641.838 241.568 641.563 242.193L637.412 251.612C637.137 252.237 637.121 252.945 637.368 253.581C637.615 254.218 638.104 254.73 638.729 255.005C639.354 255.28 640.062 255.296 640.698 255.049C641.334 254.802 641.846 254.312 642.122 253.688L646.273 244.268C646.548 243.643 646.564 242.935 646.317 242.299C646.07 241.663 645.58 241.151 644.955 240.875ZM633.872 236.136C633.622 235.908 633.329 235.733 633.011 235.619C632.693 235.505 632.356 235.454 632.018 235.471C631.68 235.487 631.349 235.57 631.044 235.714C630.738 235.859 630.464 236.062 630.237 236.312L624.769 242.339C624.31 242.845 624.071 243.512 624.104 244.194C624.137 244.875 624.44 245.516 624.946 245.975C625.451 246.433 626.118 246.672 626.8 246.639C627.482 246.606 628.122 246.303 628.581 245.798L634.049 239.771C634.276 239.521 634.452 239.228 634.566 238.91C634.68 238.592 634.73 238.254 634.714 237.917C634.697 237.579 634.615 237.248 634.47 236.942C634.326 236.637 634.123 236.363 633.872 236.136ZM689.619 235.247C687.515 240.022 681.677 242.606 673.18 242.518C665.435 242.441 656.156 240.187 647.031 236.165C637.906 232.144 629.981 226.817 624.698 221.153C618.9 214.942 616.867 208.889 618.971 204.115C620.057 201.651 622.748 198.471 629.419 197.294C633.753 196.529 639.134 196.738 645.034 197.9C647.576 196.188 650.471 195.068 653.504 194.624C656.538 194.18 659.632 194.423 662.559 195.335C665.486 196.247 668.17 197.804 670.415 199.892C672.659 201.981 674.406 204.546 675.526 207.4C676.099 208.852 676.507 210.365 676.742 211.908C687.693 220.017 692.507 228.695 689.619 235.247ZM670.5 221.198C671.565 218.793 671.994 216.156 671.745 213.538L671.739 213.504C671.473 210.737 670.466 208.093 668.824 205.85C667.182 203.607 664.966 201.848 662.409 200.758C654.679 197.472 645.581 201.165 642.133 208.989L641.744 209.872C641.508 210.4 641.459 210.992 641.603 211.552C641.748 212.111 642.079 212.605 642.542 212.951C646.196 215.627 650.138 217.884 654.295 219.681C658.422 221.54 662.744 222.929 667.181 223.823C667.75 223.932 668.338 223.844 668.85 223.574C669.362 223.304 669.767 222.867 669.998 222.337L670.5 221.198Z" fill="white"/>
</g>
<path d="M624.327 524.364C624.327 528.416 601.204 531.701 572.681 531.701C544.157 531.701 521.035 528.416 521.035 524.364C521.035 520.312 544.157 517.027 572.681 517.027C601.202 517.025 624.327 520.312 624.327 524.364Z" fill="#EDE4DD"/>
<g filter="url(#filter13_d_2073_1510)">
<path d="M539.127 438.102C529.441 424.877 519.254 409.828 521.429 393.579C523.788 375.971 539.865 363.409 545.945 346.716C547.787 341.662 548.645 336.262 548.527 330.885C548.416 325.806 554.964 323.63 557.761 327.871C565.057 338.932 567.278 353.149 562.805 366.032C561.424 370.008 559.456 373.877 559.172 378.077C558.589 386.696 565.016 393.944 569.01 401.604C572.636 408.556 574.376 416.48 573.998 424.312C573.689 430.726 571.886 437.233 567.86 442.235C563.834 447.238 557.363 450.502 550.995 449.679C544.627 448.854 539.307 444.521 539.127 438.102Z" fill="#2CD0D1"/>
<path d="M556.215 431.286C549.47 419.188 547.996 403.945 553.628 391.291C557.523 382.538 564.414 375.5 569.376 367.303C578.726 351.856 580.719 332.165 574.654 315.158C572.87 310.155 570.963 303.381 575.438 300.52C577.817 298.999 580.955 299.555 583.602 300.538C593.201 304.103 600.531 312.548 604.085 322.152C607.638 331.755 607.695 342.394 605.712 352.439C604.223 359.981 601.613 367.364 601.352 375.046C601.14 381.256 602.475 387.404 603.769 393.482C606.319 405.469 608.743 417.817 606.698 429.901C605.148 439.06 597.306 457.422 585.683 456.539C574.449 455.684 561.197 440.222 556.215 431.286Z" fill="#64E4E6"/>
<path d="M574.905 415.747C574.513 409.067 576.05 402.412 578.143 396.055C581.281 386.529 585.682 377.45 588.709 367.889C593.597 352.448 594.794 335.852 592.172 319.869" stroke="#0B334C" stroke-width="0.8869" stroke-miterlimit="10" stroke-linecap="round" stroke-linejoin="round"/>
<path d="M564.094 441.726C564.094 441.726 550.254 428.306 550.254 407.757C550.254 407.757 548.996 394.965 559.48 381.545" stroke="#0B334C" stroke-width="0.8869" stroke-miterlimit="10" stroke-linecap="round" stroke-linejoin="round"/>
<path d="M575.652 454.624C570.017 447.886 568.799 438.05 571.629 429.735C574.457 421.419 580.953 414.64 588.655 410.417C594.237 407.356 600.403 405.549 606.282 403.107C617.67 398.377 628.332 390.877 634.448 380.17C638.564 372.965 640.478 364.602 645.107 357.715C649.353 351.4 655.5 346.845 662.156 343C666.397 340.55 671.675 343.812 671.413 348.703C670.97 356.973 671.148 365.301 670.366 373.566C669.231 385.566 665.543 398.085 656.42 405.963C653.289 408.668 649.651 410.707 646.04 412.727C641.094 415.494 636.146 418.261 631.2 421.027C626.501 423.656 621.715 426.352 618.08 430.323C611.941 437.029 609.674 446.719 603.074 452.971C595.635 460.019 582.226 462.483 575.652 454.624Z" fill="#2CD0D1"/>
<path d="M593.324 439.859C593.559 437.858 594.679 436.077 595.898 434.474C607.213 419.595 627.931 415.049 640.931 401.619C647.927 394.391 652.238 385.049 656.421 375.899C659.25 369.71 662.092 363.481 663.795 356.893" stroke="#0B334C" stroke-width="0.8869" stroke-miterlimit="10" stroke-linecap="round" stroke-linejoin="round"/>
<path d="M603.255 524.148H542.864L538.461 449.918H607.659L603.255 524.148Z" fill="#FCB13A"/>
<path d="M614.267 441.736H531.859V459.35H614.267V441.736Z" fill="#FCB13A"/>
<path d="M550.352 459.346H607.283L550.391 464.968L550.352 459.346Z" fill="#0B334C"/>
</g>
<g filter="url(#filter14_d_2073_1510)">
<path d="M551.762 121.722V134.361M545.442 131.201L558.081 124.882M545.442 124.882L558.081 131.201M529.644 121.722V134.361M523.324 131.201L535.963 124.882M523.324 124.882L535.963 131.201M573.88 121.722V134.361M567.56 131.201L580.199 124.882M567.56 124.882L580.199 131.201M535.963 112.243C535.963 110.567 536.629 108.96 537.814 107.775C538.999 106.589 540.606 105.924 542.282 105.924H561.241C562.917 105.924 564.524 106.589 565.709 107.775C566.894 108.96 567.56 110.567 567.56 112.243M542.282 86.9654C542.282 89.4795 543.281 91.8905 545.059 93.6682C546.837 95.4459 549.248 96.4446 551.762 96.4446C554.276 96.4446 556.687 95.4459 558.464 93.6682C560.242 91.8905 561.241 89.4795 561.241 86.9654C561.241 84.4514 560.242 82.0404 558.464 80.2627C556.687 78.485 554.276 77.4863 551.762 77.4863C549.248 77.4863 546.837 78.485 545.059 80.2627C543.281 82.0404 542.282 84.4514 542.282 86.9654Z" stroke="white" stroke-width="2" stroke-linecap="round" stroke-linejoin="round" shape-rendering="crispEdges"/>
</g>
<path d="M171.217 149.881C171.357 149.538 171.588 149.312 171.911 149.202C172.236 149.082 172.729 149.095 173.39 149.24C173.746 149.319 174.001 149.471 174.154 149.697C174.317 149.925 174.362 150.202 174.291 150.527C174.279 150.578 174.264 150.623 174.245 150.661C174.226 150.699 174.211 150.744 174.2 150.795C173.942 151.431 173.699 152.098 173.47 152.794C173.242 153.491 173.047 154.205 172.886 154.937C172.677 155.883 172.561 156.796 172.537 157.677C172.526 158.549 172.665 159.347 172.953 160.072C173.253 160.789 173.734 161.413 174.396 161.943C175.07 162.465 175.987 162.854 177.147 163.11C177.798 163.253 178.398 163.263 178.948 163.139C179.498 163.015 179.981 162.786 180.396 162.451C180.824 162.108 181.181 161.674 181.467 161.151C181.764 160.63 181.984 160.043 182.127 159.392C182.271 158.741 182.341 158.085 182.338 157.423C182.345 156.763 182.298 156.102 182.199 155.44C182.112 154.77 181.982 154.102 181.81 153.434C181.647 152.769 181.465 152.094 181.264 151.41C181.182 151.104 181.166 150.839 181.216 150.615C181.303 150.218 181.586 149.928 182.063 149.746L182.78 149.472C183.095 149.349 183.374 149.315 183.619 149.369C183.995 149.452 184.26 149.75 184.413 150.264C184.649 151.031 184.868 151.805 185.069 152.585C185.273 153.355 185.426 154.136 185.529 154.927C185.642 155.72 185.688 156.524 185.668 157.341C185.66 158.15 185.565 158.967 185.383 159.791C185.13 160.94 184.705 161.945 184.11 162.806C183.525 163.669 182.806 164.364 181.954 164.89C181.104 165.407 180.145 165.739 179.078 165.888C178.018 166.049 176.888 165.997 175.688 165.732C174.386 165.445 173.277 164.96 172.361 164.278C171.453 163.608 170.74 162.8 170.223 161.854C169.709 160.898 169.394 159.837 169.278 158.67C169.164 157.492 169.249 156.263 169.532 154.981C169.729 154.086 169.978 153.202 170.277 152.33C170.588 151.449 170.902 150.633 171.217 149.881ZM189.29 154.124C189.323 153.972 189.422 153.839 189.586 153.726C189.752 153.602 189.954 153.508 190.192 153.443C190.433 153.368 190.693 153.325 190.973 153.312C191.266 153.291 191.549 153.311 191.824 153.371C191.977 153.405 192.095 153.474 192.178 153.578C192.272 153.684 192.334 153.863 192.364 154.115C192.396 154.356 192.397 154.692 192.366 155.123C192.347 155.546 192.295 156.094 192.21 156.769C192.206 156.981 192.207 157.147 192.213 157.265C192.231 157.376 192.271 157.438 192.332 157.452C192.423 157.472 192.55 157.334 192.711 157.039C193.927 155.057 195.237 154.22 196.641 154.53C197.292 154.674 197.837 155.007 198.276 155.531C198.725 156.057 199.077 156.833 199.33 157.86C199.596 158.878 199.771 160.186 199.856 161.784C199.944 163.371 199.953 165.309 199.886 167.599C199.881 167.715 199.874 167.82 199.864 167.914C199.854 168.008 199.84 168.095 199.822 168.177C199.77 168.411 199.67 168.602 199.52 168.75C199.382 168.89 199.214 168.997 199.017 169.071C198.821 169.135 198.611 169.168 198.386 169.172C198.159 169.186 197.939 169.169 197.725 169.122C197.298 169.028 196.998 168.914 196.825 168.779C196.662 168.647 196.583 168.449 196.588 168.183C196.635 166.572 196.648 165.135 196.628 163.872C196.618 162.611 196.565 161.543 196.47 160.669C196.388 159.786 196.261 159.103 196.091 158.617C195.921 158.131 195.703 157.859 195.439 157.801C195.174 157.743 194.888 157.856 194.58 158.14C194.285 158.416 193.952 158.881 193.584 159.536C193.216 160.191 192.811 161.035 192.369 162.068C191.938 163.104 191.466 164.349 190.953 165.804C190.812 166.2 190.537 166.48 190.127 166.646C189.717 166.811 189.238 166.833 188.689 166.712C188.322 166.631 188.059 166.493 187.9 166.298C187.74 166.103 187.679 165.871 187.717 165.602C188.093 163.466 188.375 161.704 188.564 160.316C188.765 158.921 188.911 157.801 189.001 156.957C189.093 156.102 189.154 155.465 189.183 155.045C189.211 154.624 189.247 154.318 189.29 154.124ZM211.872 159.539C212.361 159.646 212.814 159.789 213.234 159.967C213.656 160.135 214.034 160.304 214.37 160.474C214.708 160.634 214.995 160.782 215.232 160.92C215.47 161.047 215.646 161.123 215.757 161.148C215.849 161.168 215.946 161.141 216.047 161.068C216.151 160.984 216.276 160.9 216.423 160.815C216.57 160.73 216.755 160.664 216.979 160.617C217.204 160.56 217.485 160.569 217.821 160.643C218.207 160.728 218.49 160.897 218.669 161.15C218.85 161.393 218.908 161.662 218.843 161.957C218.022 165.68 217.197 168.815 216.368 171.363C215.541 173.901 214.664 175.921 213.735 177.422C212.806 178.924 211.808 179.942 210.741 180.474C209.675 181.007 208.495 181.131 207.203 180.846C206.613 180.716 206.027 180.448 205.445 180.042C204.872 179.638 204.368 179.169 203.931 178.636C203.492 178.112 203.154 177.563 202.918 176.988C202.692 176.416 202.63 175.901 202.731 175.443C202.765 175.29 202.885 175.13 203.093 174.963C203.301 174.795 203.543 174.64 203.819 174.499C204.096 174.357 204.376 174.248 204.66 174.172C204.943 174.096 205.176 174.078 205.359 174.119C205.553 174.161 205.699 174.273 205.797 174.455C205.893 174.647 205.972 174.872 206.032 175.131C206.103 175.392 206.168 175.673 206.23 175.975C206.289 176.286 206.385 176.579 206.516 176.854C206.647 177.128 206.829 177.371 207.059 177.582C207.288 177.803 207.601 177.957 207.997 178.045C210.215 178.534 212.264 175.434 214.145 168.745C214.213 168.439 214.16 168.268 213.987 168.23C213.845 168.198 213.717 168.245 213.604 168.369C212.363 169.45 211.03 170.175 209.604 170.543C208.192 170.903 206.707 170.912 205.151 170.568C204.428 170.409 203.786 170.155 203.223 169.807C202.662 169.448 202.2 169.027 201.838 168.541C201.488 168.048 201.25 167.505 201.125 166.912C201.002 166.309 201.012 165.682 201.156 165.031C201.298 164.39 201.549 163.784 201.909 163.213C202.282 162.634 202.733 162.115 203.261 161.655C203.801 161.188 204.408 160.783 205.081 160.44C205.754 160.098 206.463 159.833 207.208 159.646C207.956 159.448 208.721 159.34 209.504 159.32C210.3 159.293 211.089 159.366 211.872 159.539ZM206.243 167.865C207.637 168.173 209.01 168.017 210.362 167.398C211.717 166.769 212.992 165.706 214.186 164.209C214.22 164.153 214.245 164.11 214.262 164.082C214.281 164.044 214.295 164.004 214.304 163.963C214.327 163.862 214.243 163.731 214.055 163.572C213.866 163.413 213.607 163.255 213.279 163.097C212.951 162.94 212.569 162.786 212.133 162.636C211.709 162.479 211.273 162.351 210.826 162.252C210.103 162.093 209.38 162.061 208.655 162.157C207.929 162.253 207.262 162.447 206.654 162.74C206.045 163.032 205.526 163.403 205.096 163.852C204.667 164.301 204.39 164.806 204.267 165.365C204.134 165.965 204.247 166.492 204.606 166.944C204.975 167.399 205.521 167.706 206.243 167.865ZM222.887 174.161C222.592 174.096 222.322 173.989 222.078 173.839C221.844 173.691 221.647 173.52 221.487 173.325C221.33 173.119 221.219 172.897 221.154 172.659C221.1 172.423 221.099 172.183 221.153 171.939C221.247 171.512 221.491 171.203 221.885 171.012C222.29 170.824 222.772 170.792 223.331 170.915C223.595 170.974 223.839 171.081 224.06 171.236C224.294 171.384 224.485 171.559 224.632 171.762C224.79 171.968 224.901 172.19 224.965 172.428C225.03 172.666 225.037 172.902 224.985 173.136C224.886 173.584 224.646 173.899 224.265 174.081C223.895 174.256 223.436 174.283 222.887 174.161ZM232.713 176.329C232.418 176.264 232.148 176.157 231.904 176.007C231.67 175.859 231.473 175.688 231.314 175.493C231.156 175.287 231.045 175.065 230.98 174.827C230.926 174.591 230.925 174.351 230.979 174.107C231.073 173.68 231.318 173.371 231.712 173.18C232.116 172.992 232.598 172.96 233.157 173.083C233.422 173.142 233.665 173.249 233.886 173.404C234.121 173.552 234.311 173.727 234.458 173.93C234.616 174.136 234.727 174.358 234.792 174.596C234.856 174.834 234.863 175.07 234.811 175.304C234.712 175.752 234.472 176.067 234.091 176.249C233.722 176.424 233.262 176.451 232.713 176.329Z" fill="white"/>
<g filter="url(#filter15_d_2073_1510)">
<path d="M219.209 216.285C215.504 214.111 211.269 213.005 206.974 213.09C203.422 212.901 199.887 212.464 196.395 211.784C162.921 205.24 140.873 177.951 145.986 151.796C151.099 125.642 181.802 108.668 215.273 115.211C248.75 121.755 270.796 149.043 265.684 175.195C263.044 188.698 253.548 200.113 239.49 206.858C238.473 207.327 237.448 207.781 236.416 208.218C236.477 208.193 236.249 208.288 236.555 208.178L235.986 208.382L235.439 208.64C229.84 211.288 226.559 215.658 225.203 220.856C222.861 218.884 220.594 217.086 219.209 216.285ZM275.205 177.118C281.49 144.965 255.527 112.825 217.204 105.334C178.887 97.8435 142.727 117.837 136.442 149.987C130.157 182.142 156.126 214.283 194.443 221.773C198.603 222.587 202.731 223.073 206.804 223.261L206.83 223.26C216.638 222.857 218.568 234.055 238.869 243.634C243.038 245.604 243.783 244.601 241.12 240.379C236.297 232.755 232.487 221.117 239.455 217.822C239.664 217.751 242.329 216.588 243.352 216.107C259.753 208.242 271.82 194.435 275.206 177.112" fill="white"/>
</g>
<g filter="url(#filter16_d_2073_1510)">
<path d="M291.217 8.18974C290.175 10.6358 290.133 13.3927 291.101 15.8693C288.529 16.203 286.184 17.5137 284.553 19.5297C282.922 21.5457 282.129 24.1122 282.339 26.6969C282.55 29.2816 283.747 31.6862 285.683 33.412C287.618 35.1377 290.144 36.0522 292.736 35.9657C292.179 38.5593 292.64 41.2675 294.023 43.531C295.078 45.1949 296.597 46.5136 298.393 47.3245C300.189 48.1355 302.182 48.4031 304.128 48.0945C306.074 47.7859 307.887 46.9144 309.344 45.5877C310.8 44.261 311.837 42.537 312.325 40.6283C314.108 41.6761 316.168 42.1552 318.23 42.0016C318.808 41.9443 319.381 41.8434 319.943 41.7C322.25 41.1221 324.275 39.7432 325.659 37.8097C327.042 35.8761 327.693 33.5138 327.496 31.1444C327.487 30.6513 327.447 30.1592 327.376 29.6712C326.747 27.0736 325.125 24.8262 322.858 23.4115C324.831 21.6351 326.034 19.16 326.213 16.5112C326.204 16.0181 326.164 15.526 326.093 15.038C325.941 13.2008 325.288 11.4405 324.205 9.94895C323.122 8.45739 321.65 7.29179 319.95 6.57919C318.25 5.86659 316.386 5.63434 314.563 5.90775C312.74 6.18115 311.027 6.94973 309.611 8.12971C308.831 6.3151 307.534 4.77005 305.882 3.68686C304.231 2.60366 302.297 2.03017 300.322 2.03777C298.346 2.04536 296.417 2.63371 294.773 3.72958C293.13 4.82544 291.845 6.38042 291.079 8.20097L291.217 8.18974ZM288.501 30.0538C287.432 29.1055 286.771 27.7813 286.655 26.3573C286.539 24.9334 286.978 23.5197 287.879 22.4111C288.601 21.562 289.56 20.9473 290.634 20.6453C291.707 20.3434 292.846 20.3679 293.905 20.7158L295.312 21.2038L296.77 22.6145C296.523 23.5742 296.432 24.5675 296.5 25.5562C296.605 26.8324 296.974 28.0729 297.584 29.1988L294.72 30.7295C293.736 31.2592 292.616 31.4782 291.505 31.3576C290.395 31.2369 289.347 30.7823 288.501 30.0538ZM305.389 42.8147C304.3 43.4206 303.037 43.6368 301.808 43.4275C300.58 43.2182 299.46 42.596 298.633 41.6636C297.806 40.7313 297.322 39.5447 297.261 38.3C297.199 37.0552 297.565 35.8269 298.296 34.8181L299.195 33.6095L300.971 32.654C302.607 33.6816 304.53 34.1586 306.457 34.015C306.804 34.0129 307.15 33.9847 307.493 33.9307L307.596 35.1968L307.938 37.1155C308.144 38.212 308.011 39.3455 307.556 40.3641C307.1 41.3827 306.344 42.2377 305.389 42.8147ZM318.149 26.4827C319.4 26.6598 320.553 27.2628 321.411 28.1901C322.27 29.1173 322.783 30.3123 322.864 31.5736C322.945 32.8349 322.589 34.0856 321.855 35.1149C321.122 36.1443 320.056 36.8895 318.838 37.225C318.518 37.2737 318.195 37.3 317.871 37.3036C316.934 37.3714 315.997 37.1931 315.151 36.7863C314.304 36.3796 313.579 35.7585 313.048 34.9849L312.123 33.8783L311.723 31.8023C313.452 30.3325 314.58 28.2776 314.891 26.0294L318.149 26.4827ZM310.312 24.4324C310.386 25.343 310.189 26.2551 309.744 27.0533C309.3 27.8516 308.629 28.5002 307.816 28.9172C307.003 29.3341 306.085 29.5006 305.177 29.3956C304.27 29.2906 303.414 28.9189 302.717 28.3274C302.021 27.7359 301.516 26.9513 301.266 26.0726C301.015 25.194 301.031 24.2609 301.311 23.3912C301.591 22.5216 302.123 21.7545 302.839 21.187C303.555 20.6195 304.423 20.2771 305.333 20.203C306.554 20.1036 307.765 20.4934 308.699 21.2866C309.632 22.0797 310.213 23.2113 310.312 24.4324ZM316.634 10.4316C318.058 10.5548 319.377 11.2324 320.306 12.3183C321.235 13.4043 321.701 14.8117 321.602 16.2376C321.536 17.3601 321.129 18.4357 320.435 19.3204C319.74 20.2052 318.793 20.8568 317.718 21.1881L316.363 21.6228L314.206 21.3117C313.342 19.2443 311.755 17.5616 309.742 16.5769L310.339 15.3698L310.322 15.1626L311.097 13.5702C311.58 12.5372 312.373 11.6801 313.365 11.1178C314.357 10.5554 315.5 10.3156 316.634 10.4316ZM302.459 7.08961C303.411 7.46792 304.239 8.10361 304.85 8.92555C305.461 9.7475 305.831 10.7233 305.92 11.7437L305.965 12.2962L305.854 13.7882L305.051 15.5915C302.813 15.7769 300.719 16.771 299.161 18.388L298.229 17.4675L296.775 16.1259C295.858 15.2485 295.273 14.0794 295.123 12.8186C294.972 11.5579 295.264 10.2841 295.95 9.21514C296.635 8.14623 297.67 7.34877 298.879 6.9593C300.087 6.56983 301.394 6.61259 302.574 7.08025L302.459 7.08961Z" fill="white"/>
</g>
<g filter="url(#filter17_d_2073_1510)">
<path d="M370.55 97.9327C372.319 97.8303 373.978 97.0384 375.171 95.7271C376.132 97.164 377.61 98.1759 379.297 98.5528C380.984 98.9296 382.752 98.6426 384.233 97.7512C385.714 96.8598 386.796 95.4324 387.253 93.7651C387.71 92.0978 387.508 90.3185 386.688 88.7963C388.402 88.3601 389.883 87.2824 390.825 85.7858C391.506 84.6627 391.843 83.3649 391.796 82.0523C391.748 80.7397 391.317 79.4697 390.556 78.399C389.795 77.3284 388.738 76.5038 387.514 76.027C386.29 75.5502 384.953 75.4421 383.669 75.7159C383.766 74.3407 383.442 72.9686 382.739 71.7825C382.534 71.4544 382.304 71.1422 382.052 70.8487C381.023 69.6426 379.6 68.8413 378.035 68.5879C376.47 68.3346 374.867 68.6456 373.51 69.4655C373.218 69.6167 372.936 69.7864 372.666 69.9736C371.301 71.1186 370.439 72.7533 370.266 74.5266C368.621 73.8746 366.786 73.8893 365.151 74.5675C364.859 74.7187 364.577 74.8884 364.307 75.0756C363.255 75.7105 362.397 76.622 361.827 77.7109C361.257 78.7997 360.997 80.0241 361.075 81.2505C361.153 82.477 361.567 83.6585 362.27 84.6662C362.973 85.6739 363.94 86.4692 365.064 86.9654C364.212 87.969 363.673 89.2012 363.516 90.5086C363.358 91.816 363.589 93.1408 364.179 94.3182C364.768 95.4956 365.691 96.4735 366.833 97.1303C367.974 97.787 369.283 98.0936 370.598 98.0119L370.55 97.9327ZM384.412 93.077C384.163 93.9962 383.568 94.7834 382.752 95.2745C381.935 95.7655 380.961 95.9226 380.032 95.7128C379.311 95.5329 378.66 95.1424 378.162 94.5909C377.663 94.0394 377.34 93.352 377.234 92.6163L377.109 91.6316L377.519 90.3424C378.166 90.2058 378.786 89.966 379.356 89.6323C380.087 89.1915 380.719 88.6034 381.21 87.9056L382.973 89.1629C383.581 89.5931 384.044 90.1976 384.301 90.8964C384.558 91.5953 384.597 92.3556 384.412 93.077ZM387.03 79.2103C387.714 79.6812 388.217 80.3715 388.456 81.1672C388.695 81.9629 388.656 82.8163 388.344 83.5864C388.032 84.3565 387.467 84.9971 386.742 85.4024C386.016 85.8077 385.175 85.9534 384.355 85.8154L383.367 85.6371L382.271 84.8595C382.399 83.5776 382.115 82.288 381.458 81.1796C381.354 80.973 381.234 80.7746 381.1 80.5859L381.826 80.1492L382.871 79.3768C383.464 78.9285 384.181 78.6723 384.924 78.6425C385.667 78.6128 386.402 78.8109 387.03 79.2103ZM373.495 76.4289C373.23 75.629 373.249 74.7623 373.548 73.9746C373.848 73.187 374.409 72.5265 375.139 72.1045C375.868 71.6825 376.72 71.5248 377.552 71.6578C378.385 71.7908 379.145 72.2065 379.707 72.8348C379.831 73.0115 379.942 73.1967 380.04 73.3889C380.358 73.928 380.529 74.5409 380.537 75.1667C380.545 75.7926 380.389 76.4095 380.084 76.9564L379.697 77.8362L378.576 78.6906C377.186 78.0933 375.625 78.0285 374.19 78.5088L373.495 76.4289ZM374.593 81.7166C375.115 81.4026 375.718 81.2504 376.326 81.2792C376.935 81.308 377.521 81.5166 378.011 81.8785C378.501 82.2405 378.872 82.7396 379.078 83.3126C379.284 83.8857 379.316 84.5071 379.169 85.0982C379.022 85.6893 378.703 86.2235 378.253 86.6333C377.802 87.0431 377.24 87.3101 376.638 87.4005C376.036 87.491 375.42 87.4008 374.869 87.1413C374.318 86.8819 373.856 86.4649 373.542 85.943C373.121 85.2432 372.995 84.4048 373.192 83.6122C373.389 82.8196 373.893 82.1377 374.593 81.7166ZM364.358 82.0891C364.01 81.2022 364.024 80.214 364.397 79.3373C364.77 78.4606 365.473 77.7656 366.354 77.402C367.044 77.1089 367.807 77.0335 368.541 77.1859C369.275 77.3383 369.945 77.7113 370.461 78.2549L371.122 78.9353L371.575 80.3157C370.597 81.4445 370.062 82.8904 370.07 84.3843L369.172 84.3854L369.054 84.4569L367.873 84.4663C367.113 84.4837 366.366 84.2642 365.737 83.8383C365.107 83.4123 364.625 82.801 364.358 82.0891ZM366.562 91.5449C366.506 90.8644 366.641 90.1817 366.95 89.5732C367.26 88.9646 367.733 88.4543 368.316 88.0993L368.633 87.9087L369.557 87.5326L370.872 87.478C371.645 88.7597 372.86 89.7156 374.287 90.167L374.013 90.9966L373.643 92.2619C373.391 93.07 372.866 93.7653 372.157 94.2288C371.449 94.6922 370.602 94.8951 369.76 94.8026C368.919 94.7101 368.136 94.3279 367.545 93.7216C366.954 93.1153 366.593 92.3225 366.523 91.479L366.562 91.5449Z" fill="white"/>
</g>
<g filter="url(#filter18_d_2073_1510)">
<path d="M549.95 221.758C548.56 224.024 548.113 226.745 548.705 229.337C546.112 229.289 543.6 230.24 541.69 231.994C539.78 233.748 538.619 236.17 538.446 238.758C538.274 241.345 539.104 243.9 540.765 245.892C542.426 247.883 544.789 249.16 547.366 249.455C546.434 251.939 546.491 254.685 547.526 257.128C548.325 258.929 549.633 260.457 551.29 261.523C552.947 262.589 554.879 263.147 556.849 263.128C558.82 263.109 560.741 262.514 562.377 261.416C564.013 260.318 565.292 258.766 566.056 256.95C567.665 258.248 569.632 259.025 571.694 259.177C572.274 259.205 572.856 259.19 573.433 259.13C575.799 258.898 578.006 257.832 579.659 256.123C581.312 254.415 582.304 252.174 582.457 249.801C582.521 249.312 582.554 248.819 582.555 248.326C582.316 245.664 581.042 243.203 579.007 241.47C581.22 240.003 582.774 237.732 583.341 235.138C583.405 234.649 583.438 234.157 583.439 233.663C583.559 231.824 583.172 229.987 582.32 228.352C581.468 226.717 580.184 225.348 578.607 224.393C577.03 223.438 575.222 222.934 573.378 222.936C571.535 222.938 569.728 223.447 568.153 224.405C567.648 222.496 566.593 220.777 565.119 219.462C563.644 218.148 561.816 217.296 559.861 217.013C557.906 216.73 555.911 217.028 554.124 217.87C552.338 218.712 550.838 220.061 549.812 221.749L549.95 221.758ZM544.047 242.985C543.129 241.889 542.67 240.482 542.765 239.057C542.86 237.631 543.502 236.298 544.556 235.334C545.396 234.6 546.435 234.133 547.541 233.992C548.647 233.852 549.769 234.044 550.766 234.543L552.086 235.233L553.321 236.843C552.935 237.756 552.699 238.725 552.621 239.713C552.537 240.991 552.719 242.272 553.157 243.475L550.098 244.568C549.048 244.947 547.907 244.999 546.827 244.716C545.746 244.434 544.777 243.83 544.047 242.985ZM558.873 258.092C557.707 258.531 556.426 258.559 555.242 258.171C554.057 257.783 553.041 257.003 552.36 255.959C551.679 254.915 551.375 253.67 551.498 252.43C551.62 251.19 552.163 250.029 553.035 249.138L554.101 248.075L555.998 247.391C557.466 248.649 559.297 249.403 561.225 249.545C561.568 249.594 561.915 249.617 562.262 249.614L562.178 250.881L562.233 252.829C562.276 253.944 561.977 255.046 561.377 255.986C560.777 256.927 559.903 257.661 558.873 258.092ZM573.898 243.815C575.109 244.174 576.16 244.94 576.873 245.984C577.586 247.027 577.918 248.285 577.812 249.544C577.707 250.804 577.17 251.988 576.293 252.898C575.417 253.809 574.253 254.389 572.998 254.541C572.674 254.543 572.351 254.521 572.03 254.477C571.094 254.406 570.193 254.092 569.416 253.565C568.639 253.038 568.013 252.317 567.601 251.474L566.849 250.243L566.759 248.131C568.685 246.932 570.103 245.065 570.742 242.887L573.898 243.815ZM566.448 240.634C566.387 241.545 566.057 242.418 565.5 243.143C564.943 243.867 564.184 244.41 563.319 244.702C562.453 244.995 561.521 245.025 560.638 244.787C559.756 244.55 558.964 244.056 558.363 243.369C557.761 242.681 557.377 241.831 557.258 240.925C557.14 240.019 557.293 239.098 557.698 238.28C558.103 237.461 558.741 236.78 559.533 236.324C560.325 235.868 561.234 235.657 562.145 235.718C563.368 235.799 564.508 236.363 565.315 237.285C566.121 238.207 566.529 239.411 566.448 240.634ZM574.761 227.716C576.151 228.047 577.356 228.911 578.115 230.122C578.875 231.333 579.128 232.793 578.821 234.189C578.59 235.29 578.029 236.294 577.212 237.067C576.395 237.84 575.362 238.345 574.25 238.514L572.846 238.745L570.758 238.12C570.208 235.948 568.886 234.05 567.04 232.78L567.808 231.674L567.822 231.466L568.822 230.005C569.452 229.055 570.362 228.323 571.426 227.913C572.491 227.503 573.656 227.434 574.761 227.716ZM561.232 222.324C562.118 222.838 562.843 223.589 563.326 224.492C563.81 225.395 564.033 226.415 563.97 227.437L563.933 227.99L563.604 229.449L562.545 231.115C560.304 230.969 558.086 231.644 556.307 233.014L555.521 231.967L554.281 230.426C553.502 229.423 553.096 228.181 553.133 226.911C553.169 225.642 553.646 224.425 554.481 223.469C555.316 222.512 556.457 221.876 557.71 221.669C558.962 221.461 560.248 221.696 561.347 222.332L561.232 222.324Z" fill="white"/>
</g>
<g filter="url(#filter19_d_2073_1510)">
<path d="M615.213 322.192C616.978 322.351 618.736 321.812 620.108 320.69C620.847 322.253 622.16 323.471 623.773 324.092C625.387 324.713 627.177 324.69 628.774 324.026C630.37 323.362 631.65 322.109 632.347 320.528C633.045 318.946 633.106 317.156 632.52 315.53C634.279 315.35 635.902 314.502 637.054 313.161C637.893 312.15 638.418 310.916 638.564 309.611C638.71 308.305 638.471 306.986 637.876 305.815C637.28 304.644 636.356 303.673 635.215 303.021C634.075 302.369 632.769 302.066 631.458 302.147C631.757 300.802 631.638 299.397 631.117 298.12C630.962 297.765 630.781 297.423 630.574 297.095C629.735 295.751 628.444 294.749 626.934 294.268C625.424 293.787 623.792 293.859 622.329 294.47C622.018 294.577 621.714 294.703 621.419 294.849C619.901 295.78 618.808 297.27 618.376 298.999C616.844 298.112 615.027 297.857 613.311 298.287C613 298.393 612.696 298.52 612.401 298.665C611.267 299.138 610.284 299.914 609.56 300.907C608.836 301.9 608.399 303.073 608.296 304.297C608.193 305.522 608.428 306.751 608.975 307.852C609.523 308.952 610.362 309.881 611.401 310.537C610.41 311.404 609.696 312.544 609.348 313.814C608.999 315.084 609.032 316.428 609.443 317.679C609.853 318.931 610.622 320.034 611.654 320.851C612.686 321.669 613.936 322.165 615.248 322.277L615.213 322.192ZM629.639 319.429C629.256 320.301 628.552 320.992 627.673 321.358C626.793 321.724 625.807 321.736 624.919 321.392C624.232 321.108 623.645 320.625 623.233 320.007C622.822 319.388 622.603 318.66 622.607 317.917L622.628 316.925L623.223 315.71C623.883 315.67 624.531 315.524 625.145 315.278C625.933 314.949 626.644 314.461 627.233 313.843L628.791 315.346C629.329 315.861 629.698 316.527 629.849 317.256C630.001 317.985 629.927 318.743 629.639 319.429ZM634.268 306.098C634.876 306.665 635.272 307.422 635.391 308.244C635.511 309.066 635.346 309.904 634.924 310.62C634.502 311.336 633.849 311.886 633.072 312.181C632.295 312.475 631.441 312.495 630.651 312.238L629.7 311.916L628.729 310.986C629.045 309.737 628.953 308.419 628.467 307.226C628.394 307.007 628.305 306.793 628.201 306.587L628.983 306.261L630.13 305.651C630.783 305.295 631.529 305.147 632.269 305.227C633.008 305.307 633.706 305.611 634.268 306.098ZM621.29 301.356C621.146 300.526 621.292 299.671 621.704 298.936C622.116 298.201 622.768 297.63 623.552 297.32C624.335 297.01 625.202 296.98 626.005 297.234C626.809 297.488 627.5 298.011 627.963 298.715C628.059 298.908 628.142 299.107 628.211 299.312C628.446 299.892 628.525 300.523 628.441 301.143C628.357 301.764 628.111 302.351 627.73 302.847L627.218 303.66L625.983 304.34C624.696 303.545 623.161 303.251 621.671 303.515L621.29 301.356ZM621.598 306.747C622.16 306.514 622.779 306.452 623.377 306.57C623.974 306.688 624.523 306.98 624.955 307.41C625.386 307.841 625.68 308.389 625.799 308.986C625.919 309.583 625.859 310.203 625.627 310.766C625.394 311.329 625 311.81 624.494 312.149C623.988 312.488 623.393 312.67 622.784 312.67C622.175 312.671 621.579 312.491 621.073 312.154C620.566 311.816 620.17 311.336 619.936 310.773C619.623 310.019 619.622 309.171 619.933 308.416C620.245 307.661 620.844 307.061 621.598 306.747ZM611.42 305.61C611.206 304.681 611.365 303.706 611.863 302.894C612.361 302.082 613.158 301.498 614.083 301.267C614.809 301.079 615.575 301.117 616.278 301.376C616.982 301.634 617.59 302.102 618.02 302.715L618.574 303.486L618.819 304.918C617.685 305.89 616.943 307.242 616.732 308.721L615.844 308.59L615.716 308.643L614.547 308.479C613.792 308.384 613.086 308.057 612.526 307.543C611.965 307.029 611.579 306.353 611.42 305.61ZM612.208 315.287C612.253 314.606 612.486 313.95 612.882 313.394C613.278 312.838 613.821 312.402 614.45 312.137L614.792 311.995L615.761 311.759L617.069 311.899C617.646 313.28 618.706 314.404 620.052 315.061L619.659 315.841L619.106 317.038C618.738 317.8 618.116 318.411 617.348 318.765C616.579 319.119 615.711 319.195 614.892 318.98C614.074 318.765 613.355 318.271 612.86 317.585C612.365 316.898 612.124 316.061 612.179 315.216L612.208 315.287Z" fill="white"/>
</g>
<defs>
<filter id="filter0_d_2073_1510" x="486" y="61.1484" width="130.238" height="103.217" filterUnits="userSpaceOnUse" color-interpolation-filters="sRGB">
<feFlood flood-opacity="0" result="BackgroundImageFix"/>
<feColorMatrix in="SourceAlpha" type="matrix" values="0 0 0 0 0 0 0 0 0 0 0 0 0 0 0 0 0 0 127 0" result="hardAlpha"/>
<feOffset dy="4"/>
<feGaussianBlur stdDeviation="2"/>
<feComposite in2="hardAlpha" operator="out"/>
<feColorMatrix type="matrix" values="0 0 0 0 0 0 0 0 0 0 0 0 0 0 0 0 0 0 0.25 0"/>
<feBlend mode="normal" in2="BackgroundImageFix" result="effect1_dropShadow_2073_1510"/>
<feBlend mode="normal" in="SourceGraphic" in2="effect1_dropShadow_2073_1510" result="shape"/>
</filter>
<filter id="filter1_d_2073_1510" x="48.0469" y="27.0391" width="608.449" height="436.648" filterUnits="userSpaceOnUse" color-interpolation-filters="sRGB">
<feFlood flood-opacity="0" result="BackgroundImageFix"/>
<feColorMatrix in="SourceAlpha" type="matrix" values="0 0 0 0 0 0 0 0 0 0 0 0 0 0 0 0 0 0 127 0" result="hardAlpha"/>
<feOffset dy="4"/>
<feGaussianBlur stdDeviation="2"/>
<feComposite in2="hardAlpha" operator="out"/>
<feColorMatrix type="matrix" values="0 0 0 0 0 0 0 0 0 0 0 0 0 0 0 0 0 0 0.25 0"/>
<feBlend mode="normal" in2="BackgroundImageFix" result="effect1_dropShadow_2073_1510"/>
<feBlend mode="normal" in="SourceGraphic" in2="effect1_dropShadow_2073_1510" result="shape"/>
</filter>
<filter id="filter2_d_2073_1510" x="46.1875" y="187" width="168.832" height="288.512" filterUnits="userSpaceOnUse" color-interpolation-filters="sRGB">
<feFlood flood-opacity="0" result="BackgroundImageFix"/>
<feColorMatrix in="SourceAlpha" type="matrix" values="0 0 0 0 0 0 0 0 0 0 0 0 0 0 0 0 0 0 127 0" result="hardAlpha"/>
<feOffset dy="4"/>
<feGaussianBlur stdDeviation="2"/>
<feComposite in2="hardAlpha" operator="out"/>
<feColorMatrix type="matrix" values="0 0 0 0 0 0 0 0 0 0 0 0 0 0 0 0 0 0 0.25 0"/>
<feBlend mode="normal" in2="BackgroundImageFix" result="effect1_dropShadow_2073_1510"/>
<feBlend mode="normal" in="SourceGraphic" in2="effect1_dropShadow_2073_1510" result="shape"/>
</filter>
<filter id="filter3_d_2073_1510" x="147.879" y="313.254" width="96.1758" height="165.148" filterUnits="userSpaceOnUse" color-interpolation-filters="sRGB">
<feFlood flood-opacity="0" result="BackgroundImageFix"/>
<feColorMatrix in="SourceAlpha" type="matrix" values="0 0 0 0 0 0 0 0 0 0 0 0 0 0 0 0 0 0 127 0" result="hardAlpha"/>
<feOffset dy="4"/>
<feGaussianBlur stdDeviation="2"/>
<feComposite in2="hardAlpha" operator="out"/>
<feColorMatrix type="matrix" values="0 0 0 0 0 0 0 0 0 0 0 0 0 0 0 0 0 0 0.25 0"/>
<feBlend mode="normal" in2="BackgroundImageFix" result="effect1_dropShadow_2073_1510"/>
<feBlend mode="normal" in="SourceGraphic" in2="effect1_dropShadow_2073_1510" result="shape"/>
</filter>
<filter id="filter4_d_2073_1510" x="125.141" y="479.08" width="195.578" height="26.7656" filterUnits="userSpaceOnUse" color-interpolation-filters="sRGB">
<feFlood flood-opacity="0" result="BackgroundImageFix"/>
<feColorMatrix in="SourceAlpha" type="matrix" values="0 0 0 0 0 0 0 0 0 0 0 0 0 0 0 0 0 0 127 0" result="hardAlpha"/>
<feOffset dy="4"/>
<feGaussianBlur stdDeviation="2"/>
<feComposite in2="hardAlpha" operator="out"/>
<feColorMatrix type="matrix" values="0 0 0 0 0 0 0 0 0 0 0 0 0 0 0 0 0 0 0.25 0"/>
<feBlend mode="normal" in2="BackgroundImageFix" result="effect1_dropShadow_2073_1510"/>
<feBlend mode="normal" in="SourceGraphic" in2="effect1_dropShadow_2073_1510" result="shape"/>
</filter>
<filter id="filter5_d_2073_1510" x="284.359" y="165.809" width="265.301" height="207.486" filterUnits="userSpaceOnUse" color-interpolation-filters="sRGB">
<feFlood flood-opacity="0" result="BackgroundImageFix"/>
<feColorMatrix in="SourceAlpha" type="matrix" values="0 0 0 0 0 0 0 0 0 0 0 0 0 0 0 0 0 0 127 0" result="hardAlpha"/>
<feOffset dy="4"/>
<feGaussianBlur stdDeviation="2"/>
<feComposite in2="hardAlpha" operator="out"/>
<feColorMatrix type="matrix" values="0 0 0 0 0 0 0 0 0 0 0 0 0 0 0 0 0 0 0.25 0"/>
<feBlend mode="normal" in2="BackgroundImageFix" result="effect1_dropShadow_2073_1510"/>
<feBlend mode="normal" in="SourceGraphic" in2="effect1_dropShadow_2073_1510" result="shape"/>
</filter>
<filter id="filter6_d_2073_1510" x="404.637" y="345.646" width="157.953" height="163.02" filterUnits="userSpaceOnUse" color-interpolation-filters="sRGB">
<feFlood flood-opacity="0" result="BackgroundImageFix"/>
<feColorMatrix in="SourceAlpha" type="matrix" values="0 0 0 0 0 0 0 0 0 0 0 0 0 0 0 0 0 0 127 0" result="hardAlpha"/>
<feOffset dy="4"/>
<feGaussianBlur stdDeviation="2"/>
<feComposite in2="hardAlpha" operator="out"/>
<feColorMatrix type="matrix" values="0 0 0 0 0 0 0 0 0 0 0 0 0 0 0 0 0 0 0.25 0"/>
<feBlend mode="normal" in2="BackgroundImageFix" result="effect1_dropShadow_2073_1510"/>
<feBlend mode="normal" in="SourceGraphic" in2="effect1_dropShadow_2073_1510" result="shape"/>
</filter>
<filter id="filter7_d_2073_1510" x="210.242" y="225.65" width="299.484" height="238.277" filterUnits="userSpaceOnUse" color-interpolation-filters="sRGB">
<feFlood flood-opacity="0" result="BackgroundImageFix"/>
<feColorMatrix in="SourceAlpha" type="matrix" values="0 0 0 0 0 0 0 0 0 0 0 0 0 0 0 0 0 0 127 0" result="hardAlpha"/>
<feOffset dy="4"/>
<feGaussianBlur stdDeviation="2"/>
<feComposite in2="hardAlpha" operator="out"/>
<feColorMatrix type="matrix" values="0 0 0 0 0 0 0 0 0 0 0 0 0 0 0 0 0 0 0.25 0"/>
<feBlend mode="normal" in2="BackgroundImageFix" result="effect1_dropShadow_2073_1510"/>
<feBlend mode="normal" in="SourceGraphic" in2="effect1_dropShadow_2073_1510" result="shape"/>
</filter>
<filter id="filter8_d_2073_1510" x="210.242" y="219.65" width="299.484" height="238.271" filterUnits="userSpaceOnUse" color-interpolation-filters="sRGB">
<feFlood flood-opacity="0" result="BackgroundImageFix"/>
<feColorMatrix in="SourceAlpha" type="matrix" values="0 0 0 0 0 0 0 0 0 0 0 0 0 0 0 0 0 0 127 0" result="hardAlpha"/>
<feOffset dy="-2"/>
<feGaussianBlur stdDeviation="2"/>
<feComposite in2="hardAlpha" operator="out"/>
<feColorMatrix type="matrix" values="0 0 0 0 0 0 0 0 0 0 0 0 0 0 0 0 0 0 0.1 0"/>
<feBlend mode="normal" in2="BackgroundImageFix" result="effect1_dropShadow_2073_1510"/>
<feBlend mode="normal" in="SourceGraphic" in2="effect1_dropShadow_2073_1510" result="shape"/>
</filter>
<filter id="filter9_d_2073_1510" x="259.707" y="329.549" width="51.7227" height="71.3984" filterUnits="userSpaceOnUse" color-interpolation-filters="sRGB">
<feFlood flood-opacity="0" result="BackgroundImageFix"/>
<feColorMatrix in="SourceAlpha" type="matrix" values="0 0 0 0 0 0 0 0 0 0 0 0 0 0 0 0 0 0 127 0" result="hardAlpha"/>
<feOffset dx="-2" dy="-1"/>
<feGaussianBlur stdDeviation="2"/>
<feComposite in2="hardAlpha" operator="out"/>
<feColorMatrix type="matrix" values="0 0 0 0 0 0 0 0 0 0 0 0 0 0 0 0 0 0 0.1 0"/>
<feBlend mode="normal" in2="BackgroundImageFix" result="effect1_dropShadow_2073_1510"/>
<feBlend mode="normal" in="SourceGraphic" in2="effect1_dropShadow_2073_1510" result="shape"/>
</filter>
<filter id="filter10_d_2073_1510" x="363.062" y="329.252" width="51.7227" height="71.3984" filterUnits="userSpaceOnUse" color-interpolation-filters="sRGB">
<feFlood flood-opacity="0" result="BackgroundImageFix"/>
<feColorMatrix in="SourceAlpha" type="matrix" values="0 0 0 0 0 0 0 0 0 0 0 0 0 0 0 0 0 0 127 0" result="hardAlpha"/>
<feOffset dx="2" dy="-1"/>
<feGaussianBlur stdDeviation="2"/>
<feComposite in2="hardAlpha" operator="out"/>
<feColorMatrix type="matrix" values="0 0 0 0 0.144017 0 0 0 0 0.0620289 0 0 0 0 0.608617 0 0 0 0.1 0"/>
<feBlend mode="normal" in2="BackgroundImageFix" result="effect1_dropShadow_2073_1510"/>
<feBlend mode="normal" in="SourceGraphic" in2="effect1_dropShadow_2073_1510" result="shape"/>
</filter>
<filter id="filter11_d_2073_1510" x="4.14062" y="122.092" width="60.9297" height="56.4043" filterUnits="userSpaceOnUse" color-interpolation-filters="sRGB">
<feFlood flood-opacity="0" result="BackgroundImageFix"/>
<feColorMatrix in="SourceAlpha" type="matrix" values="0 0 0 0 0 0 0 0 0 0 0 0 0 0 0 0 0 0 127 0" result="hardAlpha"/>
<feOffset dy="4"/>
<feGaussianBlur stdDeviation="2"/>
<feComposite in2="hardAlpha" operator="out"/>
<feColorMatrix type="matrix" values="0 0 0 0 0 0 0 0 0 0 0 0 0 0 0 0 0 0 0.25 0"/>
<feBlend mode="normal" in2="BackgroundImageFix" result="effect1_dropShadow_2073_1510"/>
<feBlend mode="normal" in="SourceGraphic" in2="effect1_dropShadow_2073_1510" result="shape"/>
</filter>
<filter id="filter12_d_2073_1510" x="614.164" y="194.408" width="80.2773" height="72.6875" filterUnits="userSpaceOnUse" color-interpolation-filters="sRGB">
<feFlood flood-opacity="0" result="BackgroundImageFix"/>
<feColorMatrix in="SourceAlpha" type="matrix" values="0 0 0 0 0 0 0 0 0 0 0 0 0 0 0 0 0 0 127 0" result="hardAlpha"/>
<feOffset dy="4"/>
<feGaussianBlur stdDeviation="2"/>
<feComposite in2="hardAlpha" operator="out"/>
<feColorMatrix type="matrix" values="0 0 0 0 0 0 0 0 0 0 0 0 0 0 0 0 0 0 0.25 0"/>
<feBlend mode="normal" in2="BackgroundImageFix" result="effect1_dropShadow_2073_1510"/>
<feBlend mode="normal" in="SourceGraphic" in2="effect1_dropShadow_2073_1510" result="shape"/>
</filter>
<filter id="filter13_d_2073_1510" x="517.133" y="299.578" width="158.289" height="232.57" filterUnits="userSpaceOnUse" color-interpolation-filters="sRGB">
<feFlood flood-opacity="0" result="BackgroundImageFix"/>
<feColorMatrix in="SourceAlpha" type="matrix" values="0 0 0 0 0 0 0 0 0 0 0 0 0 0 0 0 0 0 127 0" result="hardAlpha"/>
<feOffset dy="4"/>
<feGaussianBlur stdDeviation="2"/>
<feComposite in2="hardAlpha" operator="out"/>
<feColorMatrix type="matrix" values="0 0 0 0 0 0 0 0 0 0 0 0 0 0 0 0 0 0 0.25 0"/>
<feBlend mode="normal" in2="BackgroundImageFix" result="effect1_dropShadow_2073_1510"/>
<feBlend mode="normal" in="SourceGraphic" in2="effect1_dropShadow_2073_1510" result="shape"/>
</filter>
<filter id="filter14_d_2073_1510" x="518.324" y="76.4863" width="66.875" height="66.875" filterUnits="userSpaceOnUse" color-interpolation-filters="sRGB">
<feFlood flood-opacity="0" result="BackgroundImageFix"/>
<feColorMatrix in="SourceAlpha" type="matrix" values="0 0 0 0 0 0 0 0 0 0 0 0 0 0 0 0 0 0 127 0" result="hardAlpha"/>
<feOffset dy="4"/>
<feGaussianBlur stdDeviation="2"/>
<feComposite in2="hardAlpha" operator="out"/>
<feColorMatrix type="matrix" values="0 0 0 0 0 0 0 0 0 0 0 0 0 0 0 0 0 0 0.25 0"/>
<feBlend mode="normal" in2="BackgroundImageFix" result="effect1_dropShadow_2073_1510"/>
<feBlend mode="normal" in="SourceGraphic" in2="effect1_dropShadow_2073_1510" result="shape"/>
</filter>
<filter id="filter15_d_2073_1510" x="131.504" y="103.762" width="148.641" height="148.842" filterUnits="userSpaceOnUse" color-interpolation-filters="sRGB">
<feFlood flood-opacity="0" result="BackgroundImageFix"/>
<feColorMatrix in="SourceAlpha" type="matrix" values="0 0 0 0 0 0 0 0 0 0 0 0 0 0 0 0 0 0 127 0" result="hardAlpha"/>
<feOffset dy="4"/>
<feGaussianBlur stdDeviation="2"/>
<feComposite in2="hardAlpha" operator="out"/>
<feColorMatrix type="matrix" values="0 0 0 0 0 0 0 0 0 0 0 0 0 0 0 0 0 0 0.25 0"/>
<feBlend mode="normal" in2="BackgroundImageFix" result="effect1_dropShadow_2073_1510"/>
<feBlend mode="normal" in="SourceGraphic" in2="effect1_dropShadow_2073_1510" result="shape"/>
</filter>
<filter id="filter16_d_2073_1510" x="278.305" y="2.03711" width="53.2266" height="54.1816" filterUnits="userSpaceOnUse" color-interpolation-filters="sRGB">
<feFlood flood-opacity="0" result="BackgroundImageFix"/>
<feColorMatrix in="SourceAlpha" type="matrix" values="0 0 0 0 0 0 0 0 0 0 0 0 0 0 0 0 0 0 127 0" result="hardAlpha"/>
<feOffset dy="4"/>
<feGaussianBlur stdDeviation="2"/>
<feComposite in2="hardAlpha" operator="out"/>
<feColorMatrix type="matrix" values="0 0 0 0 0 0 0 0 0 0 0 0 0 0 0 0 0 0 0.25 0"/>
<feBlend mode="normal" in2="BackgroundImageFix" result="effect1_dropShadow_2073_1510"/>
<feBlend mode="normal" in="SourceGraphic" in2="effect1_dropShadow_2073_1510" result="shape"/>
</filter>
<filter id="filter17_d_2073_1510" x="357.062" y="68.502" width="38.7383" height="38.2129" filterUnits="userSpaceOnUse" color-interpolation-filters="sRGB">
<feFlood flood-opacity="0" result="BackgroundImageFix"/>
<feColorMatrix in="SourceAlpha" type="matrix" values="0 0 0 0 0 0 0 0 0 0 0 0 0 0 0 0 0 0 127 0" result="hardAlpha"/>
<feOffset dy="4"/>
<feGaussianBlur stdDeviation="2"/>
<feComposite in2="hardAlpha" operator="out"/>
<feColorMatrix type="matrix" values="0 0 0 0 0 0 0 0 0 0 0 0 0 0 0 0 0 0 0.25 0"/>
<feBlend mode="normal" in2="BackgroundImageFix" result="effect1_dropShadow_2073_1510"/>
<feBlend mode="normal" in="SourceGraphic" in2="effect1_dropShadow_2073_1510" result="shape"/>
</filter>
<filter id="filter18_d_2073_1510" x="534.426" y="216.908" width="53.0352" height="54.2207" filterUnits="userSpaceOnUse" color-interpolation-filters="sRGB">
<feFlood flood-opacity="0" result="BackgroundImageFix"/>
<feColorMatrix in="SourceAlpha" type="matrix" values="0 0 0 0 0 0 0 0 0 0 0 0 0 0 0 0 0 0 127 0" result="hardAlpha"/>
<feOffset dy="4"/>
<feGaussianBlur stdDeviation="2"/>
<feComposite in2="hardAlpha" operator="out"/>
<feColorMatrix type="matrix" values="0 0 0 0 0 0 0 0 0 0 0 0 0 0 0 0 0 0 0.25 0"/>
<feBlend mode="normal" in2="BackgroundImageFix" result="effect1_dropShadow_2073_1510"/>
<feBlend mode="normal" in="SourceGraphic" in2="effect1_dropShadow_2073_1510" result="shape"/>
</filter>
<filter id="filter19_d_2073_1510" x="604.273" y="293.953" width="38.332" height="38.5879" filterUnits="userSpaceOnUse" color-interpolation-filters="sRGB">
<feFlood flood-opacity="0" result="BackgroundImageFix"/>
<feColorMatrix in="SourceAlpha" type="matrix" values="0 0 0 0 0 0 0 0 0 0 0 0 0 0 0 0 0 0 127 0" result="hardAlpha"/>
<feOffset dy="4"/>
<feGaussianBlur stdDeviation="2"/>
<feComposite in2="hardAlpha" operator="out"/>
<feColorMatrix type="matrix" values="0 0 0 0 0 0 0 0 0 0 0 0 0 0 0 0 0 0 0.25 0"/>
<feBlend mode="normal" in2="BackgroundImageFix" result="effect1_dropShadow_2073_1510"/>
<feBlend mode="normal" in="SourceGraphic" in2="effect1_dropShadow_2073_1510" result="shape"/>
</filter>
<linearGradient id="paint0_linear_2073_1510" x1="168.643" y1="382.723" x2="265.559" y2="409.24" gradientUnits="userSpaceOnUse">
<stop stop-color="white" stop-opacity="0"/>
<stop offset="1" stop-color="#6AABFF" stop-opacity="0.8"/>
</linearGradient>
<linearGradient id="paint1_linear_2073_1510" x1="448.205" y1="170.286" x2="448.205" y2="243.157" gradientUnits="userSpaceOnUse">
<stop stop-color="white"/>
<stop offset="1" stop-color="#C4DDFC"/>
</linearGradient>
<linearGradient id="paint2_linear_2073_1510" x1="417.009" y1="195.35" x2="417.009" y2="349.836" gradientUnits="userSpaceOnUse">
<stop/>
<stop offset="1" stop-color="#666666"/>
</linearGradient>
<linearGradient id="paint3_linear_2073_1510" x1="541.055" y1="474.556" x2="437.406" y2="383.2" gradientUnits="userSpaceOnUse">
<stop stop-color="white" stop-opacity="0"/>
<stop offset="1" stop-color="#6AABFF" stop-opacity="0.8"/>
</linearGradient>
<linearGradient id="paint4_linear_2073_1510" x1="359.984" y1="225.65" x2="359.984" y2="455.922" gradientUnits="userSpaceOnUse">
<stop stop-color="white" stop-opacity="0"/>
<stop offset="1" stop-color="#6AABFF" stop-opacity="0.45"/>
</linearGradient>
<linearGradient id="paint5_linear_2073_1510" x1="359.979" y1="383.057" x2="359.979" y2="455.927" gradientUnits="userSpaceOnUse">
<stop stop-color="white" stop-opacity="0"/>
<stop offset="1" stop-color="#6A90F9"/>
</linearGradient>
<linearGradient id="paint6_linear_2073_1510" x1="348.021" y1="511.842" x2="437.094" y2="465.345" gradientUnits="userSpaceOnUse">
<stop stop-color="white" stop-opacity="0"/>
<stop offset="1" stop-color="#6AABFF" stop-opacity="0.8"/>
</linearGradient>
</defs>
</svg>
