<svg width="780" height="646" viewBox="0 0 780 646" fill="none" xmlns="http://www.w3.org/2000/svg">
<path d="M390.695 645.176C553.284 645.176 685.089 638.627 685.089 630.548C685.089 622.469 553.284 615.92 390.695 615.92C228.106 615.92 96.3008 622.469 96.3008 630.548C96.3008 638.627 228.106 645.176 390.695 645.176Z" fill="#EDE4DD"/>
<ellipse cx="426.963" cy="630.853" rx="148.416" ry="8.22841" fill="black" fill-opacity="0.45"/>
<path d="M82.433 250.094C86.3315 223.177 85.0612 196.975 71.3724 202.914C57.6697 208.859 60.7066 253.907 77.9019 284.191L81.2873 295.891C69.1413 273.602 43.9707 254.162 33.0956 260.669C22.2901 267.135 40.2211 278.554 58.3374 286.253C72.1284 292.114 79.8129 299.11 83.3568 303.043L99.3471 358.304C80.0129 323.064 40.2497 292.421 23.0443 302.717C5.89968 312.977 34.3494 331.094 63.0962 343.31C84.8185 352.541 97.0021 363.555 102.68 369.821L105.869 380.84C107.867 380.587 109.861 380.322 111.856 380.045L92.8312 314.301C94.4823 308.779 97.6264 301.254 103.626 292.59C114.833 276.407 123.894 257.178 111.305 257.481C100.38 257.744 90.7689 279.999 89.3764 302.366L82.7973 279.63C81.9618 272.245 80.751 261.711 82.433 250.094Z" fill="#F99900"/>
<path d="M667.712 405.531C667.803 405.787 667.903 406.03 668.015 406.255C671.228 412.701 685.869 397.175 684.358 376.147C682.847 355.121 697.494 332.996 708.223 335.584C718.951 338.172 704.412 351.263 718.669 353.339C732.925 355.414 747.132 320.385 763.773 328.236C778.337 335.107 759.636 358.274 748.321 366.87C737.644 374.983 736.115 386.404 744.882 386.772C753.646 387.143 757.854 400.915 740.15 414.067C722.445 427.219 700.563 438.862 707.627 443.462C714.69 448.067 736.519 436.641 736.582 458.961C736.611 468.937 727.384 474.363 717.171 477.316L650.962 454.822L667.709 405.53L667.712 405.531Z" fill="#FCB13A"/>
<path d="M656.027 456.546C690.714 414.331 746.575 350.573 747.256 349.797C747.685 349.31 747.638 348.563 747.147 348.134C746.656 347.703 745.911 347.756 745.482 348.245C744.798 349.026 688.327 413.479 653.642 455.736L656.027 456.546Z" fill="#ED7C00"/>
<path d="M707.3 394.874C707.488 394.919 707.692 394.919 707.891 394.862C708.518 394.687 708.887 394.038 708.712 393.41C708.663 393.238 703.903 375.921 704.521 364.808C704.557 364.157 704.057 363.601 703.409 363.565C702.759 363.529 702.201 364.027 702.165 364.679C701.527 376.181 706.239 393.318 706.439 394.041C706.558 394.47 706.898 394.777 707.3 394.874Z" fill="#ED7C00"/>
<path d="M699.154 405.387C699.177 405.394 699.2 405.398 699.222 405.402C699.942 405.531 716.972 408.53 729.979 406.252C730.62 406.141 731.05 405.529 730.937 404.887C730.824 404.245 730.213 403.816 729.572 403.929C716.981 406.134 699.811 403.112 699.638 403.08C698.997 402.965 698.385 403.392 698.269 404.033C698.16 404.652 698.551 405.242 699.154 405.387Z" fill="#ED7C00"/>
<path d="M659.336 430.16C662.122 437.412 665.677 443.475 665.738 443.578C666.07 444.14 665.883 444.863 665.324 445.194C665.048 445.356 664.734 445.395 664.447 445.326C664.147 445.253 663.877 445.065 663.708 444.781C663.485 444.406 660.729 439.703 658.164 433.61L659.336 430.16Z" fill="#ED7C00"/>
<path d="M675.102 459.674C681.66 461.256 689.077 462.415 695.67 461.921C696.32 461.873 696.806 461.307 696.758 460.657C696.71 460.007 696.143 459.52 695.494 459.569C679.76 460.749 658.257 451.791 658.042 451.702C657.444 451.449 656.75 451.731 656.497 452.331C656.244 452.933 656.527 453.624 657.127 453.876C657.662 454.102 665.45 457.346 675.102 459.674Z" fill="#ED7C00"/>
<g filter="url(#filter0_d_2073_382)">
<ellipse cx="498.689" cy="120.447" rx="52.2443" ry="34.3713" transform="rotate(25.0481 498.689 120.447)" fill="url(#paint0_linear_2073_382)"/>
<ellipse cx="470.832" cy="183.312" rx="130.611" ry="72.8671" transform="rotate(25.0481 470.832 183.312)" fill="url(#paint1_linear_2073_382)"/>
</g>
<g filter="url(#filter1_d_2073_382)">
<g filter="url(#filter2_d_2073_382)">
<path d="M566.396 312.546C544.964 358.406 471.825 369.522 403.035 337.374C334.245 305.227 295.854 241.989 317.286 196.129C338.717 150.269 429.316 122.02 495.004 140.577C555.504 179.98 587.827 266.686 566.396 312.546Z" fill="white"/>
</g>
<path d="M566.396 312.546C544.964 358.406 471.825 369.522 403.035 337.374C334.245 305.227 295.854 241.989 317.286 196.129C338.717 150.269 429.316 122.02 495.004 140.577C555.504 179.98 587.827 266.686 566.396 312.546Z" fill="url(#paint2_linear_2073_382)"/>
<path d="M487.558 344.858C480.776 359.37 442.934 356.02 403.036 337.374C363.138 318.729 336.292 291.849 343.075 277.336C349.857 262.823 395.268 261.707 432.14 275.097C468.355 295.543 494.34 330.345 487.558 344.858Z" fill="url(#paint3_linear_2073_382)"/>
</g>
<path d="M668.258 243.01C668.323 242.915 668.399 242.759 668.486 242.54C668.572 242.322 668.668 242.072 668.774 241.79C668.885 241.5 668.996 241.191 669.108 240.863C669.225 240.527 669.345 240.205 669.468 239.898C669.591 239.59 669.71 239.306 669.827 239.045C669.943 238.783 670.055 238.575 670.161 238.421C670.296 238.223 670.461 238.103 670.656 238.06C670.856 238.008 671.065 238.006 671.284 238.055C671.503 238.105 671.72 238.184 671.935 238.294C672.15 238.404 672.348 238.521 672.528 238.645C672.751 238.799 672.922 239.011 673.039 239.281C673.171 239.549 673.167 239.868 673.026 240.239C672.89 240.638 672.734 241.03 672.558 241.415C672.397 241.797 672.23 242.169 672.057 242.531C671.89 242.884 671.725 243.225 671.561 243.555C671.406 243.891 671.266 244.205 671.141 244.498C671.05 244.74 671.003 244.947 670.997 245.12C671.001 245.299 671.034 245.462 671.099 245.607C671.178 245.75 671.276 245.874 671.392 245.98C671.518 246.091 671.658 246.2 671.813 246.306C671.984 246.424 672.181 246.534 672.402 246.635C672.623 246.737 672.828 246.852 673.017 246.982C673.137 247.065 673.238 247.166 673.32 247.286C673.416 247.403 673.477 247.545 673.5 247.713C673.53 247.872 673.511 248.055 673.445 248.263C673.387 248.476 673.266 248.715 673.083 248.981C672.93 249.204 672.757 249.364 672.565 249.459C672.379 249.546 672.148 249.533 671.872 249.419L671.338 249.203C671.174 249.129 671.022 249.056 670.882 248.985C670.756 248.911 670.592 248.817 670.392 248.705C669.959 248.47 669.636 248.507 669.424 248.816C669.406 248.842 669.343 248.97 669.236 249.2C669.129 249.429 668.995 249.716 668.834 250.061C668.687 250.402 668.522 250.781 668.336 251.198C668.157 251.605 667.983 251.997 667.813 252.373C667.651 252.755 667.505 253.097 667.373 253.399C667.248 253.692 667.16 253.903 667.109 254.032C667.022 254.25 666.956 254.42 666.911 254.541C666.866 254.661 666.781 254.812 666.657 254.992C666.563 255.129 666.43 255.24 666.258 255.324C666.092 255.4 665.897 255.436 665.671 255.433C665.455 255.436 665.218 255.393 664.963 255.306C664.701 255.227 664.432 255.093 664.158 254.905C663.857 254.698 663.7 254.457 663.687 254.183C663.688 253.905 663.745 253.629 663.859 253.353C664.054 252.83 664.263 252.297 664.484 251.754C664.714 251.217 664.942 250.684 665.166 250.156C665.399 249.633 665.623 249.124 665.838 248.627C666.067 248.127 666.286 247.652 666.495 247.202C666.582 246.983 666.599 246.793 666.546 246.63C666.5 246.459 666.391 246.314 666.219 246.196C665.635 245.795 665.032 245.412 664.411 245.048C663.803 244.681 663.207 244.316 662.623 243.952C662.414 243.834 662.215 243.792 662.027 243.827C661.839 243.862 661.683 243.969 661.559 244.15C661.281 244.553 661.011 244.955 660.748 245.356C660.485 245.757 660.212 246.163 659.929 246.575C659.605 247.047 659.263 247.526 658.903 248.012C658.552 248.504 658.205 248.973 657.86 249.419C657.725 249.579 657.576 249.685 657.414 249.738C657.26 249.796 657.095 249.816 656.919 249.796C656.752 249.782 656.577 249.732 656.397 249.645C656.224 249.565 656.057 249.469 655.894 249.357C655.49 249.079 655.224 248.795 655.095 248.504C654.961 248.222 655.002 247.922 655.221 247.605C655.551 247.124 655.909 246.631 656.295 246.125C656.681 245.619 657.056 245.1 657.422 244.567C657.67 244.207 657.905 243.856 658.126 243.516C658.354 243.166 658.591 242.811 658.839 242.451C658.951 242.288 658.995 242.141 658.971 242.011C658.962 241.878 658.923 241.75 658.855 241.628C658.788 241.505 658.704 241.379 658.605 241.247C658.512 241.107 658.446 240.954 658.408 240.789C658.37 240.624 658.374 240.425 658.421 240.191C658.476 239.964 658.613 239.691 658.831 239.374C658.949 239.202 659.071 239.09 659.196 239.036C659.335 238.981 659.473 238.955 659.608 238.96C659.753 238.971 659.892 238.997 660.028 239.04C660.169 239.073 660.307 239.093 660.443 239.098C660.587 239.108 660.719 239.091 660.838 239.047C660.972 239 661.097 238.89 661.215 238.718C661.286 238.615 661.365 238.492 661.45 238.349C661.542 238.197 661.628 238.054 661.708 237.919C661.788 237.785 661.856 237.667 661.912 237.567C661.974 237.458 662.017 237.386 662.041 237.352C662.242 237.06 662.44 236.855 662.635 236.736C662.845 236.615 663.039 236.553 663.218 236.55C663.403 236.538 663.578 236.569 663.741 236.644C663.919 236.716 664.077 236.799 664.215 236.893C664.73 237.247 665.018 237.591 665.08 237.924C665.156 238.254 665.076 238.61 664.839 238.991L663.961 240.378C663.837 240.596 663.783 240.793 663.801 240.97C663.825 241.138 663.944 241.296 664.158 241.443L667.152 243.349C667.413 243.503 667.619 243.544 667.77 243.471C667.93 243.404 668.093 243.25 668.258 243.01ZM684.427 251.925C684.899 252.249 685.304 252.635 685.641 253.082C685.979 253.529 686.227 253.996 686.384 254.484C686.542 254.971 686.596 255.463 686.545 255.96C686.504 256.462 686.332 256.932 686.031 257.37C685.907 257.55 685.743 257.696 685.54 257.809C685.35 257.919 685.143 257.991 684.917 258.026C684.697 258.051 684.47 258.041 684.237 257.994C684.018 257.945 683.814 257.855 683.625 257.725C683.608 257.714 683.588 257.706 683.565 257.703C683.556 257.697 683.543 257.688 683.526 257.676C683.503 257.673 683.483 257.666 683.466 257.654L682.809 258.719C682 259.97 681.555 260.986 681.474 261.765C681.403 262.549 681.62 263.116 682.126 263.464C682.307 263.588 682.477 263.68 682.638 263.74C682.808 263.806 682.967 263.859 683.117 263.899C683.281 263.936 683.431 263.975 683.566 264.018C683.701 264.06 683.825 264.12 683.936 264.196C684.134 264.332 684.246 264.536 684.274 264.808C684.311 265.086 684.246 265.345 684.081 265.585C683.916 265.826 683.656 266.001 683.302 266.112C682.957 266.228 682.566 266.282 682.13 266.273C681.699 266.255 681.254 266.176 680.794 266.037C680.334 265.897 679.91 265.695 679.524 265.429C678.854 264.969 678.455 264.29 678.326 263.393C678.203 262.487 678.404 261.423 678.926 260.203C678.993 259.996 678.983 259.863 678.897 259.804C678.794 259.733 678.669 259.722 678.521 259.772C676.933 260.261 675.473 260.445 674.14 260.325C672.813 260.197 671.681 259.811 670.746 259.168C670.308 258.867 669.957 258.531 669.694 258.16C669.43 257.789 669.254 257.403 669.164 257C669.089 256.594 669.098 256.177 669.191 255.748C669.298 255.316 669.496 254.889 669.785 254.469C670.192 253.877 670.749 253.343 671.455 252.867C672.169 252.398 672.968 251.999 673.851 251.671C674.734 251.342 675.665 251.091 676.644 250.917C677.632 250.749 678.598 250.668 679.543 250.672C680.496 250.683 681.396 250.79 682.243 250.992C683.09 251.195 683.818 251.506 684.427 251.925ZM680.94 256.088C681.295 255.902 681.581 255.789 681.798 255.749C682.021 255.7 682.268 255.737 682.538 255.859C682.744 255.963 682.88 255.968 682.945 255.874C682.992 255.805 683.017 255.714 683.018 255.602C683.009 255.267 682.97 254.955 682.901 254.668C682.839 254.373 682.658 254.122 682.357 253.915C682.031 253.691 681.602 253.535 681.068 253.446C680.535 253.358 679.949 253.328 679.31 253.356C678.685 253.382 678.033 253.458 677.352 253.584C676.686 253.707 676.053 253.873 675.455 254.081C674.857 254.29 674.322 254.535 673.85 254.817C673.378 255.099 673.03 255.403 672.805 255.73C672.605 256.022 672.526 256.302 672.568 256.571C672.619 256.847 672.782 257.079 673.057 257.267C673.761 257.751 674.785 257.906 676.132 257.732C677.478 257.557 679.08 257.009 680.94 256.088ZM694.218 255.887C693.969 255.716 693.756 255.519 693.58 255.297C693.419 255.072 693.301 254.839 693.226 254.598C693.166 254.355 693.151 254.111 693.18 253.865C693.21 253.62 693.298 253.39 693.446 253.176C693.694 252.815 694.036 252.621 694.473 252.592C694.918 252.57 695.381 252.724 695.862 253.054C696.085 253.207 696.27 253.398 696.417 253.625C696.57 253.844 696.676 254.075 696.736 254.319C696.805 254.568 696.822 254.82 696.786 255.074C696.757 255.319 696.674 255.54 696.538 255.738C696.285 256.107 695.947 256.304 695.525 256.33C695.117 256.353 694.681 256.205 694.218 255.887ZM689.754 258.601C689.961 258.301 690.257 258.145 690.645 258.133C691.047 258.118 691.462 258.259 691.891 258.554C692.664 259.085 692.893 259.634 692.579 260.202C692.359 260.595 692.107 261.034 691.823 261.522C691.547 262.015 691.247 262.535 690.921 263.082C690.61 263.627 690.276 264.187 689.918 264.762C689.574 265.335 689.23 265.901 688.884 266.46C688.544 267.01 688.211 267.539 687.886 268.049C687.561 268.559 687.257 269.02 686.974 269.432C686.679 269.861 686.303 270.077 685.846 270.079C685.398 270.087 684.882 269.89 684.299 269.489C684.033 269.306 683.867 269.097 683.801 268.862C683.737 268.642 683.788 268.411 683.953 268.171C684.768 266.986 685.499 265.858 686.147 264.787C686.809 263.713 687.384 262.749 687.87 261.894C688.364 261.046 688.764 260.335 689.07 259.762C689.39 259.186 689.618 258.799 689.754 258.601ZM705.192 261.023C705.24 260.879 705.284 260.751 705.323 260.639C705.371 260.533 705.427 260.432 705.492 260.338C705.657 260.097 705.869 259.946 706.127 259.883C706.394 259.826 706.677 259.901 706.978 260.108C708.308 261.022 708.82 261.841 708.512 262.565C708.112 263.478 707.696 264.387 707.264 265.291C706.832 266.195 706.374 267.1 705.89 268.006C705.421 268.909 704.914 269.812 704.369 270.715C703.839 271.615 703.265 272.515 702.645 273.416C702.527 273.588 702.403 273.75 702.274 273.901C702.151 274.044 702.019 274.162 701.879 274.255C701.745 274.34 701.604 274.388 701.457 274.401C701.318 274.419 701.171 274.375 701.016 274.269L700.041 273.371C699.836 273.192 699.721 273.018 699.697 272.85C699.688 272.679 699.743 272.49 699.861 272.28C700.873 270.662 701.831 268.9 702.736 266.995C703.642 265.089 704.46 263.098 705.192 261.023ZM696.949 278.697C696.7 278.525 696.49 278.325 696.32 278.094C696.153 277.878 696.035 277.645 695.966 277.395C695.9 277.16 695.882 276.92 695.911 276.675C695.941 276.43 696.029 276.2 696.177 275.986C696.425 275.625 696.767 275.43 697.204 275.402C697.649 275.379 698.112 275.533 698.593 275.864C698.816 276.017 699.001 276.208 699.148 276.435C699.301 276.654 699.407 276.885 699.467 277.129C699.536 277.378 699.553 277.63 699.517 277.884C699.488 278.129 699.405 278.35 699.27 278.548C699.016 278.917 698.681 279.11 698.265 279.127C697.851 279.159 697.412 279.015 696.949 278.697Z" fill="white"/>
<circle cx="426.571" cy="162.271" r="4.1207" transform="rotate(25.0481 426.571 162.271)" fill="#E2E2E2"/>
<ellipse cx="432.445" cy="161.02" rx="3.29656" ry="2.80207" transform="rotate(25.0481 432.445 161.02)" fill="#E2E2E2"/>
<ellipse cx="445.445" cy="167.462" rx="3.29656" ry="2.80207" transform="rotate(25.0481 445.445 167.462)" fill="#E2E2E2"/>
<path d="M452.597 173.158C451.633 175.22 448.147 165.62 439.982 161.805C431.818 157.989 422.664 161.681 423.627 159.62C424.591 157.558 433.144 155.152 441.308 158.967C449.473 162.783 453.56 171.096 452.597 173.158Z" fill="#E2E2E2"/>
<path d="M445.707 174.675C444.998 176.191 443.738 168.661 438.099 166.026C432.459 163.39 426.771 167.309 427.479 165.793C428.187 164.278 435.111 157.716 440.751 160.351C446.39 162.987 446.415 173.16 445.707 174.675Z" fill="#E2E2E2"/>
<circle cx="448.676" cy="172.613" r="4.1207" transform="rotate(25.0481 448.676 172.613)" fill="#E2E2E2"/>
<circle cx="502.164" cy="200.48" r="4.1207" transform="rotate(25.0481 502.164 200.48)" fill="#E2E2E2"/>
<ellipse cx="508.038" cy="199.229" rx="3.29656" ry="2.80207" transform="rotate(25.0481 508.038 199.229)" fill="#E2E2E2"/>
<ellipse cx="521.046" cy="205.663" rx="3.29656" ry="2.80207" transform="rotate(25.0481 521.046 205.663)" fill="#E2E2E2"/>
<path d="M528.19 211.367C527.227 213.429 523.741 203.829 515.576 200.014C507.411 196.198 498.258 199.89 499.221 197.829C500.185 195.767 508.737 193.361 516.902 197.176C525.066 200.992 529.154 209.305 528.19 211.367Z" fill="#E2E2E2"/>
<path d="M521.3 212.884C520.592 214.4 519.332 206.87 513.693 204.235C508.053 201.599 502.365 205.518 503.073 204.002C503.781 202.487 510.705 195.925 516.344 198.56C521.984 201.196 522.009 211.369 521.3 212.884Z" fill="#E2E2E2"/>
<circle cx="524.27" cy="210.822" r="4.1207" transform="rotate(25.0481 524.27 210.822)" fill="#E2E2E2"/>
<g filter="url(#filter3_d_2073_382)">
<path d="M531.206 262.322C532.911 267.074 533.385 272.143 531.594 276.88C531.408 277.373 531.085 277.812 530.665 278.144C530.244 278.476 529.742 278.689 529.218 278.757C528.693 278.825 528.166 278.747 527.7 278.531C527.233 278.314 526.844 277.969 526.579 277.534C518.004 263.471 501.608 256.797 492.874 253.368C487.392 251.214 485.045 246.213 485.868 241.636C486.267 239.283 487.564 237.127 489.491 235.615C495.823 230.702 505.002 235.012 510.524 238.377C519.497 243.85 527.636 252.348 531.208 262.32L531.206 262.322Z" fill="black"/>
</g>
<g filter="url(#filter4_d_2073_382)">
<path d="M388.108 191.048C383.084 192.407 378.472 194.925 375.402 199.057C375.083 199.487 374.886 199.994 374.835 200.518C374.784 201.043 374.88 201.563 375.113 202.02C375.346 202.477 375.705 202.851 376.151 203.099C376.596 203.346 377.108 203.458 377.628 203.42C394.458 202.207 409.294 211.437 417.089 216.426C421.982 219.557 427.577 218.566 431.047 215.297C432.844 213.635 433.973 211.371 434.2 208.974C434.896 201.13 426.098 196.289 420.143 193.82C410.462 189.808 398.649 188.189 388.108 191.045L388.108 191.048Z" fill="black"/>
</g>
<path d="M422.52 211.684C422.149 212.689 418.789 212.484 415.015 211.224C411.242 209.964 408.483 208.128 408.853 207.122C409.224 206.117 412.436 207.994 416.21 209.254C419.984 210.513 422.89 210.678 422.52 211.684Z" fill="white"/>
<ellipse cx="426.043" cy="211.61" rx="1.21383" ry="1.21383" transform="rotate(43.0426 426.043 211.61)" fill="white"/>
<path d="M494.516 246.394C493.993 247.33 496.334 249.748 499.746 251.795C503.157 253.842 506.347 254.743 506.87 253.808C507.392 252.872 503.877 251.653 500.465 249.606C497.054 247.558 495.038 245.458 494.516 246.394Z" fill="white"/>
<circle cx="1.21383" cy="1.21383" r="1.21383" transform="matrix(-0.993801 -0.111172 -0.111172 0.993801 493.617 242.598)" fill="white"/>
<g filter="url(#filter5_d_2073_382)">
<path d="M646.446 274.08C649.592 274.932 652.44 276.639 654.675 279.011C656.665 280.835 658.779 282.518 661.002 284.048C682.327 298.707 708.823 296.157 720.277 279.494C731.73 262.832 724.618 237.182 703.294 222.524C681.967 207.864 655.473 210.415 644.021 227.076C638.107 235.678 636.967 246.886 640.78 258.085C641.066 258.885 641.365 259.681 641.676 260.472C641.657 260.426 641.727 260.6 641.624 260.376L641.816 260.793L641.967 261.226C643.506 265.666 642.881 269.764 640.785 273.26C643.097 273.481 645.276 273.754 646.446 274.08ZM637.922 222.939C652.002 202.455 683.205 199.449 707.619 216.232C732.03 233.012 740.405 263.222 726.326 283.703C712.245 304.188 681.038 307.192 656.627 290.412C653.977 288.59 651.521 286.612 649.255 284.505L649.242 284.491C644.25 278.963 637.159 283.866 621.186 277.956C617.905 276.743 618.052 275.806 621.754 275.007C628.447 273.57 636.775 269.453 634.858 263.927C634.786 263.776 634.001 261.715 633.718 260.906C629.267 247.842 630.338 233.971 637.924 222.935" fill="white"/>
</g>
<g filter="url(#filter6_d_2073_382)">
<path d="M300.3 110.154C300.056 108.152 299.036 106.325 297.46 105.066C299.023 103.87 300.065 102.118 300.371 100.175C300.676 98.231 300.222 96.2442 299.102 94.6265C297.982 93.0087 296.283 91.884 294.356 91.4857C292.429 91.0874 290.423 91.446 288.754 92.4872C288.134 90.5724 286.803 88.9687 285.035 88.0073C283.71 87.3151 282.211 87.0259 280.724 87.1753C279.237 87.3246 277.825 87.906 276.665 88.8478C275.504 89.7896 274.644 91.0505 274.191 92.4751C273.738 93.8997 273.712 95.4257 274.116 96.8648C272.548 96.8537 271.013 97.3214 269.717 98.2055C269.359 98.4626 269.021 98.7464 268.706 99.0544C267.41 100.31 266.604 101.985 266.429 103.78C266.255 105.576 266.725 107.375 267.754 108.856C267.947 109.176 268.16 109.484 268.392 109.778C269.792 111.245 271.711 112.105 273.737 112.173C273.116 114.089 273.266 116.172 274.155 117.98C274.348 118.3 274.561 118.608 274.793 118.902C275.59 120.051 276.688 120.959 277.966 121.527C279.244 122.095 280.653 122.302 282.041 122.124C283.428 121.947 284.74 121.392 285.833 120.52C286.927 119.648 287.76 118.492 288.242 117.179C289.444 118.075 290.882 118.597 292.378 118.681C293.875 118.765 295.363 118.408 296.657 117.652C297.952 116.897 298.995 115.778 299.659 114.434C300.322 113.09 300.575 111.581 300.387 110.094L300.3 110.154ZM293.781 94.7617C294.843 94.9787 295.78 95.5973 296.397 96.4886C297.014 97.3798 297.263 98.4749 297.092 99.5453C296.94 100.377 296.543 101.145 295.953 101.751C295.363 102.357 294.606 102.774 293.778 102.947L292.668 103.161L291.174 102.789C290.972 102.064 290.655 101.377 290.235 100.754C289.681 99.9555 288.967 99.2811 288.139 98.7732L289.439 96.6798C289.884 95.9584 290.537 95.3889 291.312 95.0465C292.087 94.704 292.948 94.6047 293.781 94.7617ZM277.842 92.7945C278.327 91.9829 279.074 91.3611 279.961 91.032C280.847 90.7029 281.819 90.6861 282.717 90.9844C283.614 91.2827 284.382 91.8782 284.895 92.6725C285.408 93.4669 285.635 94.4124 285.537 95.3529L285.406 96.4878L284.603 97.7899C283.137 97.7366 281.694 98.1536 280.482 98.9799C280.255 99.113 280.038 99.2631 279.834 99.4287L279.285 98.6362L278.332 97.5057C277.78 96.8641 277.437 96.0689 277.349 95.2269C277.262 94.3849 277.434 93.5361 277.842 92.7945ZM275.664 108.368C274.775 108.727 273.789 108.768 272.873 108.485C271.956 108.202 271.165 107.613 270.633 106.815C270.101 106.017 269.86 105.06 269.951 104.106C270.042 103.151 270.459 102.257 271.132 101.574C271.323 101.42 271.525 101.28 271.737 101.155C272.326 100.755 273.01 100.516 273.72 100.461C274.43 100.407 275.142 100.54 275.785 100.846L276.813 101.222L277.864 102.433C277.287 104.055 277.326 105.833 277.976 107.428L275.664 108.368ZM281.59 106.738C281.195 106.168 280.979 105.494 280.967 104.801C280.956 104.108 281.15 103.427 281.526 102.844C281.902 102.262 282.441 101.803 283.077 101.528C283.713 101.252 284.417 101.171 285.099 101.295C285.781 101.419 286.411 101.743 286.909 102.225C287.407 102.707 287.751 103.326 287.897 104.003C288.044 104.681 287.986 105.386 287.731 106.031C287.476 106.676 287.036 107.23 286.466 107.625C285.702 108.154 284.759 108.358 283.844 108.191C282.93 108.025 282.119 107.502 281.59 106.738ZM282.755 118.335C281.773 118.795 280.65 118.85 279.627 118.49C278.604 118.13 277.764 117.382 277.287 116.408C276.904 115.646 276.763 114.785 276.883 113.94C277.003 113.095 277.378 112.307 277.958 111.682L278.683 110.881L280.218 110.266C281.571 111.296 283.252 111.799 284.948 111.681L285.014 112.701L285.104 112.83L285.2 114.17C285.275 115.032 285.08 115.896 284.642 116.642C284.204 117.389 283.544 117.98 282.755 118.335ZM293.335 115.146C292.566 115.259 291.781 115.156 291.067 114.848C290.353 114.54 289.74 114.04 289.294 113.404L289.055 113.058L288.56 112.036L288.403 110.546C289.803 109.575 290.8 108.126 291.21 106.473L292.172 106.723L293.636 107.052C294.572 107.28 295.399 107.826 295.977 108.597C296.555 109.368 296.847 110.315 296.803 111.278C296.759 112.24 296.381 113.157 295.736 113.872C295.09 114.587 294.216 115.055 293.263 115.196L293.335 115.146Z" fill="white"/>
</g>
<g filter="url(#filter7_d_2073_382)">
<path d="M358.692 42.6929C357.569 43.4322 356.78 44.5824 356.495 45.8966C355.317 45.3178 353.963 45.2144 352.711 45.6077C351.46 46.001 350.408 46.8608 349.774 48.0089C349.139 49.157 348.971 50.5052 349.304 51.7739C349.637 53.0426 350.446 54.1345 351.562 54.8231C350.602 55.7604 350.039 57.0306 349.989 58.3714C349.968 59.3677 350.239 60.3484 350.769 61.1924C351.299 62.0364 352.064 62.7069 352.971 63.1211C353.877 63.5354 354.885 63.6753 355.87 63.5236C356.855 63.3719 357.774 62.9353 358.513 62.2675C358.972 63.2078 359.706 63.9859 360.618 64.498C360.877 64.6355 361.147 64.7532 361.424 64.8502C362.558 65.2517 363.797 65.2373 364.921 64.8095C366.045 64.3816 366.98 63.5682 367.56 62.5145C367.694 62.3043 367.815 62.0857 367.921 61.8601C368.383 60.5896 368.328 59.1887 367.768 57.9583C369.096 57.7616 370.296 57.0551 371.112 55.9888C371.246 55.7786 371.367 55.56 371.474 55.3344C371.924 54.5177 372.141 53.5932 372.101 52.6617C372.062 51.7301 371.768 50.8272 371.251 50.0513C370.734 49.2754 370.014 48.6564 369.169 48.2617C368.324 47.867 367.387 47.7117 366.46 47.8128C366.639 46.8298 366.525 45.816 366.132 44.8975C365.739 43.9789 365.084 43.1963 364.249 42.647C363.415 42.0977 362.437 41.8059 361.438 41.8081C360.439 41.8102 359.463 42.1061 358.63 42.659L358.692 42.6929ZM351.431 51.147C351.246 50.4485 351.338 49.7055 351.687 49.073C352.037 48.4405 352.617 47.9674 353.307 47.7523C353.849 47.5965 354.425 47.6057 354.962 47.7787C355.499 47.9516 355.972 48.2805 356.321 48.7234L356.777 49.3226L356.997 50.3252C356.624 50.6604 356.308 51.0535 356.06 51.4892C355.748 52.0565 355.556 52.6825 355.498 53.3276L353.863 53.1714C353.3 53.1195 352.767 52.8983 352.333 52.5369C351.898 52.1755 351.584 51.6908 351.431 51.147ZM354.979 61.2488C354.35 61.1995 353.758 60.9373 353.298 60.5054C352.839 60.0736 352.541 59.498 352.453 58.8738C352.366 58.2495 352.494 57.6141 352.816 57.0724C353.139 56.5308 353.636 56.1154 354.227 55.8949L354.943 55.6368L355.959 55.7309C356.361 56.6218 357.038 57.3606 357.89 57.8392C358.037 57.9354 358.191 58.0203 358.351 58.0935L358.04 58.6558L357.647 59.5599C357.427 60.0798 357.054 60.5202 356.577 60.8221C356.1 61.1239 355.543 61.2728 354.979 61.2488ZM364.925 57.9354C365.402 58.3601 365.719 58.9365 365.822 59.5675C365.924 60.1985 365.806 60.8456 365.488 61.3997C365.169 61.9539 364.669 62.3813 364.072 62.61C363.475 62.8386 362.817 62.8545 362.21 62.655C362.061 62.5861 361.918 62.5068 361.78 62.4177C361.367 62.1844 361.022 61.8469 360.779 61.4388C360.536 61.0307 360.404 60.5662 360.396 60.0914L360.316 59.3666L360.728 58.3796C361.868 58.2439 362.918 57.6934 363.678 56.8331L364.925 57.9354ZM362.195 54.8792C361.972 55.2836 361.633 55.6127 361.223 55.8249C360.812 56.037 360.348 56.1226 359.889 56.0709C359.43 56.0193 358.996 55.8326 358.643 55.5345C358.29 55.2364 358.033 54.8402 357.905 54.3962C357.777 53.9522 357.784 53.4802 357.924 53.0399C358.064 52.5996 358.332 52.2108 358.693 51.9226C359.055 51.6345 359.493 51.4599 359.954 51.421C360.414 51.3822 360.876 51.4807 361.28 51.7042C361.823 52.0039 362.224 52.5067 362.395 53.1021C362.567 53.6976 362.495 54.3368 362.195 54.8792ZM368.776 50.7474C369.342 51.1976 369.708 51.852 369.796 52.5696C369.883 53.2871 369.686 54.0105 369.246 54.5838C368.904 55.0384 368.431 55.3777 367.891 55.5564C367.351 55.7351 366.77 55.7446 366.224 55.5836L365.531 55.3878L364.709 54.6532C364.923 53.5402 364.725 52.3874 364.153 51.4094L364.742 51.0676L364.793 50.9756L365.564 50.5211C366.057 50.2209 366.631 50.0815 367.206 50.1221C367.782 50.1626 368.33 50.3812 368.776 50.7474ZM363.737 45.3738C364.032 45.7995 364.203 46.299 364.231 46.8163C364.259 47.3337 364.142 47.8485 363.894 48.3032L363.758 48.5486L363.294 49.1465L362.451 49.6818C361.456 49.1339 360.296 48.9671 359.187 49.2127L359.051 48.564L358.814 47.5921C358.673 46.9656 358.754 46.3095 359.043 45.7361C359.332 45.1627 359.812 44.7076 360.399 44.4488C360.987 44.19 361.647 44.1436 362.265 44.3175C362.883 44.4914 363.422 44.8748 363.788 45.4021L363.737 45.3738Z" fill="white"/>
</g>
<g filter="url(#filter8_d_2073_382)">
<path d="M623.39 159.296C623.146 157.294 622.126 155.467 620.55 154.208C622.113 153.012 623.155 151.261 623.46 149.317C623.766 147.374 623.312 145.387 622.192 143.769C621.072 142.151 619.373 141.027 617.446 140.628C615.519 140.23 613.513 140.589 611.844 141.63C611.224 139.715 609.893 138.111 608.125 137.15C606.8 136.458 605.301 136.168 603.814 136.318C602.326 136.467 600.915 137.049 599.754 137.99C598.594 138.932 597.734 140.193 597.281 141.618C596.828 143.042 596.802 144.568 597.206 146.007C595.637 145.996 594.102 146.464 592.806 147.348C592.449 147.605 592.111 147.889 591.796 148.197C590.5 149.452 589.694 151.127 589.519 152.923C589.345 154.718 589.814 156.517 590.844 157.998C591.037 158.319 591.25 158.627 591.482 158.921C592.882 160.388 594.801 161.248 596.827 161.316C596.206 163.232 596.356 165.315 597.245 167.122C597.437 167.443 597.651 167.751 597.883 168.044C598.68 169.193 599.778 170.101 601.056 170.67C602.334 171.238 603.743 171.445 605.13 171.267C606.518 171.089 607.83 170.534 608.923 169.662C610.017 168.79 610.85 167.635 611.332 166.322C612.534 167.217 613.972 167.74 615.468 167.824C616.965 167.908 618.453 167.55 619.747 166.795C621.042 166.04 622.085 164.92 622.748 163.577C623.412 162.233 623.665 160.723 623.477 159.237L623.39 159.296ZM616.87 143.904C617.932 144.121 618.87 144.74 619.487 145.631C620.104 146.522 620.352 147.617 620.182 148.688C620.03 149.52 619.633 150.288 619.043 150.894C618.453 151.5 617.695 151.916 616.868 152.09L615.758 152.304L614.264 151.931C614.062 151.207 613.745 150.52 613.325 149.896C612.771 149.098 612.057 148.424 611.229 147.916L612.529 145.822C612.974 145.101 613.627 144.531 614.402 144.189C615.177 143.847 616.038 143.747 616.87 143.904ZM600.932 141.937C601.417 141.125 602.164 140.504 603.051 140.175C603.937 139.845 604.909 139.829 605.806 140.127C606.704 140.425 607.472 141.021 607.985 141.815C608.498 142.609 608.724 143.555 608.627 144.495L608.496 145.63L607.693 146.932C606.227 146.879 604.783 147.296 603.572 148.122C603.345 148.256 603.128 148.406 602.924 148.571L602.375 147.779L601.422 146.648C600.87 146.007 600.527 145.212 600.439 144.369C600.352 143.527 600.523 142.679 600.932 141.937ZM598.754 157.51C597.864 157.869 596.879 157.911 595.962 157.628C595.046 157.345 594.255 156.755 593.723 155.957C593.191 155.16 592.95 154.203 593.041 153.248C593.132 152.294 593.548 151.399 594.221 150.716C594.413 150.563 594.615 150.423 594.827 150.297C595.416 149.897 596.099 149.658 596.81 149.604C597.52 149.55 598.232 149.682 598.875 149.988L599.902 150.364L600.954 151.576C600.376 153.198 600.416 154.976 601.066 156.571L598.754 157.51ZM604.68 155.88C604.285 155.31 604.069 154.636 604.057 153.943C604.046 153.25 604.24 152.569 604.616 151.987C604.991 151.404 605.531 150.946 606.167 150.67C606.803 150.395 607.507 150.314 608.189 150.438C608.871 150.562 609.5 150.885 609.999 151.367C610.497 151.849 610.841 152.468 610.987 153.146C611.133 153.823 611.076 154.529 610.821 155.174C610.566 155.818 610.126 156.373 609.556 156.767C608.792 157.296 607.849 157.5 606.934 157.334C606.02 157.167 605.209 156.645 604.68 155.88ZM605.845 167.477C604.863 167.937 603.739 167.993 602.717 167.633C601.694 167.272 600.854 166.525 600.377 165.551C599.994 164.788 599.853 163.927 599.973 163.083C600.093 162.238 600.468 161.45 601.048 160.824L601.772 160.024L603.307 159.409C604.66 160.439 606.341 160.941 608.037 160.824L608.104 161.843L608.194 161.973L608.29 163.313C608.365 164.175 608.17 165.039 607.731 165.785C607.293 166.531 606.634 167.123 605.845 167.477ZM616.424 164.289C615.656 164.402 614.871 164.299 614.157 163.991C613.443 163.683 612.829 163.183 612.384 162.546L612.145 162.2L611.65 161.178L611.493 159.689C612.893 158.717 613.89 157.269 614.299 155.615L615.261 155.866L616.725 156.195C617.661 156.423 618.489 156.969 619.067 157.739C619.645 158.51 619.937 159.458 619.893 160.42C619.848 161.383 619.471 162.3 618.825 163.014C618.18 163.729 617.305 164.197 616.352 164.338L616.424 164.289Z" fill="white"/>
</g>
<g filter="url(#filter9_d_2073_382)">
<path d="M612.856 305.23C611.733 305.969 610.944 307.119 610.659 308.434C609.481 307.855 608.127 307.751 606.875 308.145C605.624 308.538 604.572 309.398 603.938 310.546C603.303 311.694 603.135 313.042 603.468 314.311C603.801 315.58 604.61 316.672 605.726 317.36C604.766 318.298 604.203 319.568 604.153 320.909C604.132 321.905 604.403 322.885 604.933 323.729C605.463 324.573 606.228 325.244 607.135 325.658C608.041 326.072 609.049 326.212 610.034 326.061C611.019 325.909 611.938 325.472 612.677 324.805C613.136 325.745 613.87 326.523 614.782 327.035C615.041 327.173 615.311 327.29 615.588 327.387C616.722 327.789 617.961 327.774 619.085 327.347C620.209 326.919 621.144 326.105 621.724 325.052C621.858 324.841 621.979 324.623 622.085 324.397C622.547 323.127 622.492 321.726 621.932 320.495C623.26 320.299 624.46 319.592 625.276 318.526C625.41 318.316 625.531 318.097 625.638 317.871C626.088 317.055 626.305 316.13 626.266 315.199C626.226 314.267 625.932 313.364 625.415 312.588C624.898 311.813 624.178 311.194 623.333 310.799C622.488 310.404 621.551 310.249 620.624 310.35C620.803 309.367 620.689 308.353 620.296 307.435C619.903 306.516 619.248 305.733 618.414 305.184C617.579 304.635 616.601 304.343 615.602 304.345C614.603 304.347 613.627 304.643 612.795 305.196L612.856 305.23ZM605.595 313.684C605.41 312.986 605.502 312.243 605.851 311.61C606.201 310.978 606.781 310.504 607.471 310.289C608.013 310.134 608.589 310.143 609.126 310.316C609.663 310.489 610.136 310.818 610.485 311.261L610.941 311.86L611.161 312.862C610.789 313.198 610.472 313.591 610.224 314.026C609.912 314.594 609.72 315.22 609.662 315.865L608.027 315.708C607.464 315.657 606.931 315.435 606.497 315.074C606.063 314.713 605.748 314.228 605.595 313.684ZM609.143 323.786C608.514 323.737 607.922 323.474 607.462 323.043C607.003 322.611 606.705 322.035 606.618 321.411C606.53 320.787 606.658 320.151 606.98 319.61C607.303 319.068 607.8 318.652 608.391 318.432L609.107 318.174L610.123 318.268C610.525 319.159 611.202 319.898 612.055 320.376C612.201 320.472 612.355 320.557 612.515 320.631L612.204 321.193L611.811 322.097C611.591 322.617 611.218 323.057 610.741 323.359C610.264 323.661 609.707 323.81 609.143 323.786ZM619.089 320.472C619.566 320.897 619.883 321.474 619.986 322.105C620.088 322.736 619.97 323.383 619.652 323.937C619.333 324.491 618.833 324.918 618.236 325.147C617.639 325.376 616.981 325.392 616.374 325.192C616.225 325.123 616.082 325.044 615.944 324.955C615.531 324.722 615.186 324.384 614.943 323.976C614.7 323.568 614.568 323.103 614.561 322.629L614.481 321.904L614.892 320.917C616.032 320.781 617.082 320.231 617.842 319.37L619.089 320.472ZM616.359 317.416C616.136 317.821 615.798 318.15 615.387 318.362C614.976 318.574 614.512 318.66 614.053 318.608C613.594 318.556 613.16 318.37 612.807 318.072C612.454 317.773 612.197 317.377 612.069 316.933C611.941 316.489 611.948 316.017 612.088 315.577C612.229 315.137 612.496 314.748 612.858 314.46C613.219 314.172 613.657 313.997 614.118 313.958C614.578 313.919 615.04 314.018 615.444 314.241C615.987 314.541 616.388 315.044 616.559 315.639C616.731 316.235 616.659 316.874 616.359 317.416ZM622.94 313.285C623.506 313.735 623.872 314.389 623.96 315.107C624.048 315.824 623.85 316.548 623.41 317.121C623.068 317.575 622.595 317.915 622.055 318.094C621.515 318.272 620.934 318.282 620.388 318.121L619.695 317.925L618.873 317.19C619.087 316.077 618.89 314.924 618.317 313.946L618.906 313.605L618.957 313.513L619.728 313.058C620.221 312.758 620.795 312.619 621.37 312.659C621.946 312.7 622.494 312.918 622.94 313.285ZM617.901 307.911C618.196 308.337 618.368 308.836 618.395 309.353C618.423 309.871 618.306 310.386 618.058 310.84L617.922 311.086L617.458 311.684L616.615 312.219C615.62 311.671 614.46 311.504 613.351 311.75L613.215 311.101L612.978 310.129C612.837 309.503 612.918 308.847 613.207 308.273C613.496 307.7 613.976 307.245 614.563 306.986C615.151 306.727 615.811 306.681 616.429 306.855C617.047 307.029 617.586 307.412 617.952 307.939L617.901 307.911Z" fill="white"/>
</g>
<path d="M156.385 473.38C156.326 473.675 156.255 473.956 156.168 474.22C153.688 481.783 135.19 467.153 133.473 443.917C131.756 420.682 112.194 398.837 100.878 403.388C89.5619 407.937 107.558 419.921 92.3015 424.476C77.0458 429.032 55.8968 393.004 38.9595 404.256C24.134 414.103 48.2965 436.438 62.046 444.024C75.0208 451.184 78.5231 463.427 68.9962 465.235C59.4725 467.045 57.0782 482.778 78.5448 494.322C100.011 505.866 125.805 515.091 118.818 521.252C111.832 527.419 86.1324 518.423 89.6403 542.84C91.2072 553.753 127.879 575.529 174.073 555.095L182.597 524.594L156.385 473.38Z" fill="#FCB13A"/>
<path d="M177.332 527.287C132.637 486.684 61.339 425.921 60.4724 425.181C59.9246 424.717 59.8563 423.893 60.3231 423.346C60.7906 422.796 61.6134 422.733 62.1613 423.201C63.0342 423.945 135.112 485.371 179.811 526.02L177.332 527.287Z" fill="#ED7C00"/>
<path d="M111.382 468.071C111.184 468.15 110.962 468.183 110.735 468.153C110.021 468.062 109.514 467.411 109.605 466.697C109.63 466.5 112.06 446.802 109.604 434.75C109.459 434.044 109.917 433.355 110.62 433.213C111.325 433.069 112.015 433.524 112.158 434.229C114.698 446.704 112.293 466.198 112.191 467.023C112.129 467.511 111.806 467.899 111.382 468.071Z" fill="#ED7C00"/>
<path d="M121.981 478.259C121.956 478.27 121.931 478.279 121.908 478.287C121.142 478.542 103.001 484.551 88.4134 484.145C87.6944 484.126 87.1264 483.525 87.1472 482.805C87.168 482.086 87.7667 481.519 88.4865 481.539C102.605 481.933 120.897 475.876 121.082 475.815C121.765 475.586 122.503 475.955 122.732 476.638C122.948 477.294 122.615 478.004 121.981 478.259Z" fill="#ED7C00"/>
<path d="M169.482 498.972C167.597 507.348 164.682 514.549 164.632 514.67C164.359 515.337 164.679 516.098 165.344 516.37C165.671 516.503 166.02 516.496 166.324 516.374C166.639 516.246 166.905 515.997 167.044 515.658C167.227 515.213 169.487 509.629 171.315 502.555L169.482 498.972Z" fill="#ED7C00"/>
<path d="M156.969 533.764C150.052 536.545 142.128 539.003 134.839 539.517C134.121 539.568 133.498 539.028 133.447 538.309C133.395 537.591 133.937 536.968 134.654 536.917C152.048 535.686 174.125 522.445 174.346 522.312C174.96 521.941 175.764 522.138 176.136 522.753C176.509 523.37 176.312 524.171 175.695 524.544C175.147 524.877 167.15 529.671 156.969 533.764Z" fill="#ED7C00"/>
<path d="M341.663 236.171C317.096 141.984 206.395 111.642 142.953 182.033C142.042 183.044 141.131 184.072 140.222 185.117C49.268 289.616 92.2345 547.131 282.053 612.399C471.872 677.667 669.31 558.48 680.402 451.936C691.495 345.391 603.921 311.913 468.016 341.706C391.234 358.539 356.955 294.806 341.663 236.171Z" fill="#EDE4DD"/>
<path d="M629.619 629.489H598.165C593.888 629.489 590.096 626.735 588.775 622.666L575.436 581.607C574.89 579.927 576.061 578.183 577.823 578.046C602.11 576.163 626.158 576.162 649.968 578.041C651.726 578.18 652.896 579.925 652.35 581.602L639.009 622.666C637.688 626.733 633.896 629.489 629.619 629.489Z" fill="#F99900"/>
<path d="M649.559 581.027C649.559 582.118 633.688 583.005 614.11 583.005C594.531 583.005 578.66 582.12 578.66 581.027C578.66 579.935 594.531 579.049 614.11 579.049C633.688 579.049 649.559 579.935 649.559 581.027Z" fill="#373543"/>
<path d="M617.901 581.289L614.441 580.773C620.784 538.198 623.556 492.119 622.918 439.902L626.416 439.859C627.057 492.265 624.272 538.527 617.901 581.289Z" fill="#3043BC"/>
<path d="M618.905 544.428C618.583 530.119 599.857 519.588 599.668 519.483L601.359 516.422C602.204 516.888 622.034 528.022 622.402 544.35L618.905 544.428Z" fill="#3043BC"/>
<path d="M623.46 532.512L620.027 531.832C625.283 505.31 643.81 494.058 644.596 493.592L646.381 496.599C646.202 496.706 628.397 507.584 623.46 532.512Z" fill="#3043BC"/>
<path d="M560.621 517.401C556.521 523.602 561.129 537.008 561.129 537.008L572.045 559.214L591.8 548.853C591.8 548.853 589.24 531.695 591.242 532.094C593.244 532.494 596.302 547.149 596.302 547.149L605.849 540.994C605.849 540.994 598.491 521.837 602.543 523.688C606.594 525.537 610.954 537.589 610.954 537.589C610.954 537.589 613.602 537.341 617.053 529.182C620.498 521.027 618.344 505.774 607.835 503.676C597.331 501.581 591.176 507.895 591.176 507.895C587.868 493.19 576.02 496.287 569.517 497.588C563.013 498.895 560.314 509.799 560.314 509.799C560.314 509.799 577.274 506.942 576.225 510.894C575.177 514.844 560.621 517.401 560.621 517.401ZM602.029 508.057C602.029 508.057 607.611 506.938 608.701 510.43C609.791 513.921 602.166 515.23 599.537 513.66C596.905 512.094 598.25 509.088 602.029 508.057ZM571.238 523.454C574.23 520.5 577.913 521.579 577.913 521.579C577.913 521.579 578.518 524.768 575.727 527.971C572.939 531.179 567.647 531.119 567.647 531.119C567.647 531.119 568.244 526.401 571.238 523.454Z" fill="#375BC9"/>
<path d="M563.174 435.099C557.245 441.166 559.524 457.18 559.524 457.18L566.979 484.415L591.347 477.055C591.347 477.055 592.172 457.276 594.328 458.154C596.484 459.033 596.759 476.113 596.759 476.113L608.783 471.271C608.783 471.271 604.658 448.22 608.8 451.164C612.944 454.108 615.237 468.551 615.237 468.551C615.237 468.551 618.258 468.843 623.88 460.444C629.496 452.047 630.365 434.488 619.04 429.876C607.72 425.267 599.464 431.019 599.464 431.019C598.922 413.829 584.976 414.75 577.41 414.809C569.84 414.873 564.47 426.514 564.47 426.514C564.47 426.514 584.09 426.96 582.064 431.164C580.035 435.366 563.174 435.099 563.174 435.099ZM611.588 433.538C611.588 433.538 618.083 433.485 618.554 437.632C619.024 441.779 610.197 441.605 607.589 439.281C604.978 436.959 607.132 433.882 611.588 433.538ZM573.771 444.167C577.758 441.502 581.654 443.504 581.654 443.504C581.654 443.504 581.646 447.207 577.828 450.197C574.014 453.191 568.095 451.985 568.095 451.985C568.095 451.985 569.78 446.826 573.771 444.167Z" fill="#375BC9"/>
<path d="M664.867 486.169C664.074 482.06 681.648 486.137 681.648 486.137C681.648 486.137 679.662 474.812 672.939 473.035C666.218 471.262 654.024 467.289 649.411 482.083C649.411 482.083 643.444 475.213 632.259 476.637C621.069 478.062 617.626 493.498 620.608 502.062C623.595 510.631 626.355 511.065 626.355 511.065C626.355 511.065 631.866 499.053 636.261 497.441C640.656 495.829 631.447 514.894 631.447 514.894L640.989 521.833C640.989 521.833 645.336 507.073 647.466 506.803C649.597 506.53 645.579 523.883 645.579 523.883L665.505 535.814L678.683 513.877C678.683 513.877 684.56 500.5 680.738 493.885C680.738 493.885 665.664 490.277 664.867 486.169ZM640.196 487.404C637.316 488.828 629.415 486.969 630.83 483.478C632.245 479.987 638.015 481.511 638.015 481.511C641.899 482.824 643.078 485.984 640.196 487.404ZM672.303 507.415C672.303 507.415 666.744 507.116 664.068 503.649C661.387 500.186 662.27 496.97 662.27 496.97C662.27 496.97 666.218 496.119 669.128 499.34C672.042 502.557 672.303 507.415 672.303 507.415Z" fill="#375BC9"/>
<path d="M259.475 630.32H197.183C188.713 630.32 181.203 624.865 178.587 616.807L152.17 535.494C151.089 532.166 153.408 528.712 156.897 528.441C204.995 524.713 252.621 524.71 299.775 528.432C303.257 528.706 305.573 532.163 304.492 535.484L278.071 616.807C275.456 624.862 267.946 630.32 259.475 630.32Z" fill="#F99900"/>
<path d="M298.957 534.343C298.957 536.505 267.526 538.26 228.752 538.26C189.978 538.26 158.547 536.508 158.547 534.343C158.547 532.181 189.978 530.426 228.752 530.426C267.526 530.426 298.957 532.181 298.957 534.343Z" fill="#373543"/>
<path d="M236.273 534.853L229.422 533.832C241.983 449.515 247.473 358.259 246.209 254.849L253.136 254.764C254.406 358.549 248.891 450.168 236.273 534.853Z" fill="#3043BC"/>
<path d="M238.26 461.86C237.624 433.523 200.539 412.668 200.164 412.46L203.514 406.396C205.187 407.32 244.459 429.37 245.187 461.705L238.26 461.86Z" fill="#3043BC"/>
<path d="M247.282 438.26L240.484 436.914C250.893 384.388 287.584 362.105 289.141 361.182L292.677 367.138C292.32 367.349 257.06 388.891 247.282 438.26Z" fill="#3043BC"/>
<path d="M122.831 408.339C114.71 420.62 123.836 447.17 123.836 447.17L145.454 491.147L184.578 470.628C184.578 470.628 179.507 436.648 183.472 437.439C187.436 438.23 193.493 467.253 193.493 467.253L212.401 455.064C212.401 455.064 197.829 417.125 205.852 420.79C213.876 424.452 222.51 448.32 222.51 448.32C222.51 448.32 227.754 447.829 234.589 431.672C241.412 415.521 237.145 385.313 216.334 381.159C195.532 377.009 183.342 389.513 183.342 389.513C176.791 360.392 153.326 366.525 140.447 369.102C127.567 371.69 122.223 393.286 122.223 393.286C122.223 393.286 155.809 387.626 153.733 395.454C151.656 403.275 122.831 408.339 122.831 408.339ZM204.834 389.835C204.834 389.835 215.889 387.62 218.048 394.534C220.207 401.448 205.106 404.041 199.9 400.931C194.687 397.83 197.35 391.877 204.834 389.835ZM143.856 420.327C149.781 414.478 157.076 416.615 157.076 416.615C157.076 416.615 158.274 422.93 152.746 429.274C147.225 435.627 136.744 435.507 136.744 435.507C136.744 435.507 137.926 426.163 143.856 420.327Z" fill="#375BC9"/>
<path d="M127.886 245.343C116.144 257.359 120.657 289.074 120.657 289.074L135.421 343.009L183.68 328.434C183.68 328.434 185.313 289.263 189.583 291.002C193.853 292.742 194.398 326.568 194.398 326.568L218.209 316.979C218.209 316.979 210.041 271.329 218.244 277.159C226.45 282.989 230.991 311.593 230.991 311.593C230.991 311.593 236.975 312.17 248.109 295.537C259.23 278.908 260.951 244.133 238.523 235C216.104 225.871 199.755 237.263 199.755 237.263C198.681 203.219 171.062 205.044 156.078 205.16C141.087 205.286 130.451 228.341 130.451 228.341C130.451 228.341 169.307 229.224 165.296 237.55C161.278 245.872 127.886 245.343 127.886 245.343ZM223.765 242.251C223.765 242.251 236.629 242.147 237.562 250.36C238.491 258.572 221.011 258.229 215.846 253.624C210.675 249.027 214.941 242.932 223.765 242.251ZM148.871 263.302C156.768 258.024 164.482 261.988 164.482 261.988C164.482 261.988 164.467 269.321 156.907 275.243C149.353 281.173 137.63 278.785 137.63 278.785C137.63 278.785 140.967 268.568 148.871 263.302Z" fill="#375BC9"/>
<path d="M329.28 346.486C327.711 338.349 362.514 346.423 362.514 346.423C362.514 346.423 358.581 323.995 345.267 320.475C331.956 316.964 307.807 309.095 298.672 338.393C298.672 338.393 286.854 324.789 264.703 327.61C242.543 330.43 235.724 361.001 241.629 377.961C247.544 394.931 253.012 395.791 253.012 395.791C253.012 395.791 263.925 372.002 272.629 368.81C281.333 365.618 263.096 403.374 263.096 403.374L281.992 417.116C281.992 417.116 290.601 387.885 294.821 387.349C299.04 386.81 291.083 421.175 291.083 421.175L330.544 444.804L356.643 401.36C356.643 401.36 368.281 374.867 360.712 361.767C360.712 361.767 330.859 354.623 329.28 346.486ZM280.422 348.931C274.718 351.752 259.072 348.071 261.874 341.157C264.675 334.243 276.102 337.262 276.102 337.262C283.794 339.862 286.129 346.12 280.422 348.931ZM344.006 388.562C344.006 388.562 332.999 387.97 327.698 381.103C322.388 374.246 324.137 367.877 324.137 367.877C324.137 367.877 331.956 366.191 337.72 372.569C343.49 378.941 344.006 388.562 344.006 388.562Z" fill="#375BC9"/>
<g filter="url(#filter10_d_2073_382)">
<path d="M281.462 172.179C258.208 174.349 240.634 189.797 242.209 206.683C243.785 223.569 263.913 235.499 287.167 233.329C310.421 231.16 338.344 212.825 341.999 197.372C335.884 181.906 304.716 170.01 281.462 172.179Z" fill="white"/>
<path d="M281.462 172.179C258.208 174.349 240.634 189.797 242.209 206.683C243.785 223.569 263.913 235.499 287.167 233.329C310.421 231.16 338.344 212.825 341.999 197.372C335.884 181.906 304.716 170.01 281.462 172.179Z" fill="url(#paint4_linear_2073_382)"/>
</g>
<g filter="url(#filter11_d_2073_382)">
<path d="M531.475 385.034C543.423 405.102 564.921 414.337 579.494 405.661C594.066 396.986 596.194 373.684 584.246 353.616C572.299 333.549 543.749 316.208 528.224 319.545C516.883 331.71 519.528 364.966 531.475 385.034Z" fill="white"/>
<path d="M531.475 385.034C543.423 405.102 564.921 414.337 579.494 405.661C594.066 396.986 596.194 373.684 584.246 353.616C572.299 333.549 543.749 316.208 528.224 319.545C516.883 331.71 519.528 364.966 531.475 385.034Z" fill="url(#paint5_linear_2073_382)"/>
</g>
<defs>
<filter id="filter0_d_2073_382" x="344.52" y="82.248" width="252.625" height="195.18" filterUnits="userSpaceOnUse" color-interpolation-filters="sRGB">
<feFlood flood-opacity="0" result="BackgroundImageFix"/>
<feColorMatrix in="SourceAlpha" type="matrix" values="0 0 0 0 0 0 0 0 0 0 0 0 0 0 0 0 0 0 127 0" result="hardAlpha"/>
<feOffset dy="4"/>
<feGaussianBlur stdDeviation="2"/>
<feComposite in2="hardAlpha" operator="out"/>
<feColorMatrix type="matrix" values="0 0 0 0 0 0 0 0 0 0 0 0 0 0 0 0 0 0 0.25 0"/>
<feBlend mode="normal" in2="BackgroundImageFix" result="effect1_dropShadow_2073_382"/>
<feBlend mode="normal" in="SourceGraphic" in2="effect1_dropShadow_2073_382" result="shape"/>
</filter>
<filter id="filter1_d_2073_382" x="307.348" y="134.809" width="269.676" height="228.943" filterUnits="userSpaceOnUse" color-interpolation-filters="sRGB">
<feFlood flood-opacity="0" result="BackgroundImageFix"/>
<feColorMatrix in="SourceAlpha" type="matrix" values="0 0 0 0 0 0 0 0 0 0 0 0 0 0 0 0 0 0 127 0" result="hardAlpha"/>
<feOffset dy="4"/>
<feGaussianBlur stdDeviation="2"/>
<feComposite in2="hardAlpha" operator="out"/>
<feColorMatrix type="matrix" values="0 0 0 0 0 0 0 0 0 0 0 0 0 0 0 0 0 0 0.25 0"/>
<feBlend mode="normal" in2="BackgroundImageFix" result="effect1_dropShadow_2073_382"/>
<feBlend mode="normal" in="SourceGraphic" in2="effect1_dropShadow_2073_382" result="shape"/>
</filter>
<filter id="filter2_d_2073_382" x="307.348" y="128.809" width="269.676" height="228.943" filterUnits="userSpaceOnUse" color-interpolation-filters="sRGB">
<feFlood flood-opacity="0" result="BackgroundImageFix"/>
<feColorMatrix in="SourceAlpha" type="matrix" values="0 0 0 0 0 0 0 0 0 0 0 0 0 0 0 0 0 0 127 0" result="hardAlpha"/>
<feOffset dy="-2"/>
<feGaussianBlur stdDeviation="2"/>
<feComposite in2="hardAlpha" operator="out"/>
<feColorMatrix type="matrix" values="0 0 0 0 0 0 0 0 0 0 0 0 0 0 0 0 0 0 0.1 0"/>
<feBlend mode="normal" in2="BackgroundImageFix" result="effect1_dropShadow_2073_382"/>
<feBlend mode="normal" in="SourceGraphic" in2="effect1_dropShadow_2073_382" result="shape"/>
</filter>
<filter id="filter3_d_2073_382" x="481.707" y="231.398" width="55.0234" height="53.3828" filterUnits="userSpaceOnUse" color-interpolation-filters="sRGB">
<feFlood flood-opacity="0" result="BackgroundImageFix"/>
<feColorMatrix in="SourceAlpha" type="matrix" values="0 0 0 0 0 0 0 0 0 0 0 0 0 0 0 0 0 0 127 0" result="hardAlpha"/>
<feOffset dy="2"/>
<feGaussianBlur stdDeviation="2"/>
<feComposite in2="hardAlpha" operator="out"/>
<feColorMatrix type="matrix" values="0 0 0 0 0 0 0 0 0 0 0 0 0 0 0 0 0 0 0.25 0"/>
<feBlend mode="normal" in2="BackgroundImageFix" result="effect1_dropShadow_2073_382"/>
<feBlend mode="normal" in="SourceGraphic" in2="effect1_dropShadow_2073_382" result="shape"/>
</filter>
<filter id="filter4_d_2073_382" x="370.82" y="187.602" width="67.418" height="36.7246" filterUnits="userSpaceOnUse" color-interpolation-filters="sRGB">
<feFlood flood-opacity="0" result="BackgroundImageFix"/>
<feColorMatrix in="SourceAlpha" type="matrix" values="0 0 0 0 0 0 0 0 0 0 0 0 0 0 0 0 0 0 127 0" result="hardAlpha"/>
<feOffset dy="2"/>
<feGaussianBlur stdDeviation="2"/>
<feComposite in2="hardAlpha" operator="out"/>
<feColorMatrix type="matrix" values="0 0 0 0 0 0 0 0 0 0 0 0 0 0 0 0 0 0 0.25 0"/>
<feBlend mode="normal" in2="BackgroundImageFix" result="effect1_dropShadow_2073_382"/>
<feBlend mode="normal" in="SourceGraphic" in2="effect1_dropShadow_2073_382" result="shape"/>
</filter>
<filter id="filter5_d_2073_382" x="614.844" y="205.373" width="122.316" height="103.896" filterUnits="userSpaceOnUse" color-interpolation-filters="sRGB">
<feFlood flood-opacity="0" result="BackgroundImageFix"/>
<feColorMatrix in="SourceAlpha" type="matrix" values="0 0 0 0 0 0 0 0 0 0 0 0 0 0 0 0 0 0 127 0" result="hardAlpha"/>
<feOffset dy="4"/>
<feGaussianBlur stdDeviation="2"/>
<feComposite in2="hardAlpha" operator="out"/>
<feColorMatrix type="matrix" values="0 0 0 0 0 0 0 0 0 0 0 0 0 0 0 0 0 0 0.25 0"/>
<feBlend mode="normal" in2="BackgroundImageFix" result="effect1_dropShadow_2073_382"/>
<feBlend mode="normal" in="SourceGraphic" in2="effect1_dropShadow_2073_382" result="shape"/>
</filter>
<filter id="filter6_d_2073_382" x="262.395" y="87.1367" width="42.0703" height="43.0488" filterUnits="userSpaceOnUse" color-interpolation-filters="sRGB">
<feFlood flood-opacity="0" result="BackgroundImageFix"/>
<feColorMatrix in="SourceAlpha" type="matrix" values="0 0 0 0 0 0 0 0 0 0 0 0 0 0 0 0 0 0 127 0" result="hardAlpha"/>
<feOffset dy="4"/>
<feGaussianBlur stdDeviation="2"/>
<feComposite in2="hardAlpha" operator="out"/>
<feColorMatrix type="matrix" values="0 0 0 0 0 0 0 0 0 0 0 0 0 0 0 0 0 0 0.25 0"/>
<feBlend mode="normal" in2="BackgroundImageFix" result="effect1_dropShadow_2073_382"/>
<feBlend mode="normal" in="SourceGraphic" in2="effect1_dropShadow_2073_382" result="shape"/>
</filter>
<filter id="filter7_d_2073_382" x="345.137" y="41.8086" width="30.9688" height="31.332" filterUnits="userSpaceOnUse" color-interpolation-filters="sRGB">
<feFlood flood-opacity="0" result="BackgroundImageFix"/>
<feColorMatrix in="SourceAlpha" type="matrix" values="0 0 0 0 0 0 0 0 0 0 0 0 0 0 0 0 0 0 127 0" result="hardAlpha"/>
<feOffset dy="4"/>
<feGaussianBlur stdDeviation="2"/>
<feComposite in2="hardAlpha" operator="out"/>
<feColorMatrix type="matrix" values="0 0 0 0 0 0 0 0 0 0 0 0 0 0 0 0 0 0 0.25 0"/>
<feBlend mode="normal" in2="BackgroundImageFix" result="effect1_dropShadow_2073_382"/>
<feBlend mode="normal" in="SourceGraphic" in2="effect1_dropShadow_2073_382" result="shape"/>
</filter>
<filter id="filter8_d_2073_382" x="585.484" y="136.279" width="42.0703" height="43.0488" filterUnits="userSpaceOnUse" color-interpolation-filters="sRGB">
<feFlood flood-opacity="0" result="BackgroundImageFix"/>
<feColorMatrix in="SourceAlpha" type="matrix" values="0 0 0 0 0 0 0 0 0 0 0 0 0 0 0 0 0 0 127 0" result="hardAlpha"/>
<feOffset dy="4"/>
<feGaussianBlur stdDeviation="2"/>
<feComposite in2="hardAlpha" operator="out"/>
<feColorMatrix type="matrix" values="0 0 0 0 0 0 0 0 0 0 0 0 0 0 0 0 0 0 0.25 0"/>
<feBlend mode="normal" in2="BackgroundImageFix" result="effect1_dropShadow_2073_382"/>
<feBlend mode="normal" in="SourceGraphic" in2="effect1_dropShadow_2073_382" result="shape"/>
</filter>
<filter id="filter9_d_2073_382" x="599.301" y="304.346" width="30.9688" height="31.332" filterUnits="userSpaceOnUse" color-interpolation-filters="sRGB">
<feFlood flood-opacity="0" result="BackgroundImageFix"/>
<feColorMatrix in="SourceAlpha" type="matrix" values="0 0 0 0 0 0 0 0 0 0 0 0 0 0 0 0 0 0 127 0" result="hardAlpha"/>
<feOffset dy="4"/>
<feGaussianBlur stdDeviation="2"/>
<feComposite in2="hardAlpha" operator="out"/>
<feColorMatrix type="matrix" values="0 0 0 0 0 0 0 0 0 0 0 0 0 0 0 0 0 0 0.25 0"/>
<feBlend mode="normal" in2="BackgroundImageFix" result="effect1_dropShadow_2073_382"/>
<feBlend mode="normal" in="SourceGraphic" in2="effect1_dropShadow_2073_382" result="shape"/>
</filter>
<filter id="filter10_d_2073_382" x="238.109" y="171.924" width="107.891" height="69.6602" filterUnits="userSpaceOnUse" color-interpolation-filters="sRGB">
<feFlood flood-opacity="0" result="BackgroundImageFix"/>
<feColorMatrix in="SourceAlpha" type="matrix" values="0 0 0 0 0 0 0 0 0 0 0 0 0 0 0 0 0 0 127 0" result="hardAlpha"/>
<feOffset dy="4"/>
<feGaussianBlur stdDeviation="2"/>
<feComposite in2="hardAlpha" operator="out"/>
<feColorMatrix type="matrix" values="0 0 0 0 0 0 0 0 0 0 0 0 0 0 0 0 0 0 0.25 0"/>
<feBlend mode="normal" in2="BackgroundImageFix" result="effect1_dropShadow_2073_382"/>
<feBlend mode="normal" in="SourceGraphic" in2="effect1_dropShadow_2073_382" result="shape"/>
</filter>
<filter id="filter11_d_2073_382" x="516.977" y="319.131" width="79.0039" height="97.791" filterUnits="userSpaceOnUse" color-interpolation-filters="sRGB">
<feFlood flood-opacity="0" result="BackgroundImageFix"/>
<feColorMatrix in="SourceAlpha" type="matrix" values="0 0 0 0 0 0 0 0 0 0 0 0 0 0 0 0 0 0 127 0" result="hardAlpha"/>
<feOffset dy="4"/>
<feGaussianBlur stdDeviation="2"/>
<feComposite in2="hardAlpha" operator="out"/>
<feColorMatrix type="matrix" values="0 0 0 0 0 0 0 0 0 0 0 0 0 0 0 0 0 0 0.25 0"/>
<feBlend mode="normal" in2="BackgroundImageFix" result="effect1_dropShadow_2073_382"/>
<feBlend mode="normal" in="SourceGraphic" in2="effect1_dropShadow_2073_382" result="shape"/>
</filter>
<linearGradient id="paint0_linear_2073_382" x1="498.689" y1="86.0761" x2="498.689" y2="154.819" gradientUnits="userSpaceOnUse">
<stop stop-color="white"/>
<stop offset="1" stop-color="#C4DDFC"/>
</linearGradient>
<linearGradient id="paint1_linear_2073_382" x1="470.832" y1="110.445" x2="470.832" y2="256.179" gradientUnits="userSpaceOnUse">
<stop/>
<stop offset="1" stop-color="#666666"/>
</linearGradient>
<linearGradient id="paint2_linear_2073_382" x1="495.004" y1="140.577" x2="403.035" y2="337.374" gradientUnits="userSpaceOnUse">
<stop stop-color="white" stop-opacity="0"/>
<stop offset="1" stop-color="#6AABFF" stop-opacity="0.45"/>
</linearGradient>
<linearGradient id="paint3_linear_2073_382" x1="432.14" y1="275.097" x2="403.036" y2="337.374" gradientUnits="userSpaceOnUse">
<stop stop-color="white" stop-opacity="0"/>
<stop offset="1" stop-color="#6A90F9"/>
</linearGradient>
<linearGradient id="paint4_linear_2073_382" x1="252.908" y1="236.526" x2="343.775" y2="209.552" gradientUnits="userSpaceOnUse">
<stop stop-color="white" stop-opacity="0"/>
<stop offset="1" stop-color="#6AABFF" stop-opacity="0.8"/>
</linearGradient>
<linearGradient id="paint5_linear_2073_382" x1="601.848" y1="383.182" x2="538.46" y2="312.709" gradientUnits="userSpaceOnUse">
<stop stop-color="white" stop-opacity="0"/>
<stop offset="1" stop-color="#6AABFF" stop-opacity="0.8"/>
</linearGradient>
</defs>
</svg>
