<svg width="755" height="728" viewBox="0 0 755 728" fill="none" xmlns="http://www.w3.org/2000/svg">
<g filter="url(#filter0_d_2073_523)">
<path d="M603.684 349.224C607.207 357.392 605.828 366.854 600.027 373.559L401.396 604.572C396.76 609.955 389.881 612.917 382.76 612.572C375.639 612.226 369.083 608.65 364.948 602.831L310.519 526.499L240.065 545.78C230.883 548.329 221.059 544.933 215.342 537.274C209.625 529.615 209.268 519.242 214.324 511.134L246.341 459.783C247.873 457.326 250.25 455.567 253.057 454.758L426.012 406.663C431.988 405.014 435.58 398.979 434.192 392.996C432.805 387.013 427 383.052 420.947 384.141L226.806 417.236L189.496 356.269C185.015 348.954 184.898 339.839 189.233 332.476C193.568 325.113 201.589 320.731 210.114 321.013L583.336 335.343C592.245 335.694 600.123 341.118 603.684 349.224Z" fill="white"/>
</g>
<ellipse cx="40.1457" cy="6.98242" rx="40.1457" ry="6.98242" transform="matrix(-0.968369 0.249521 0.249521 0.968369 541.535 411.549)" fill="black" fill-opacity="0.45"/>
<ellipse cx="474.888" cy="132.071" rx="48.7438" ry="32.0683" transform="rotate(22.8075 474.888 132.071)" fill="url(#paint0_linear_2073_523)"/>
<ellipse cx="451.209" cy="191.703" rx="121.859" ry="67.9847" transform="rotate(22.8075 451.209 191.703)" fill="url(#paint1_linear_2073_523)"/>
<g filter="url(#filter1_d_2073_523)">
<g filter="url(#filter2_d_2073_523)">
<path d="M545.983 307.152C527.676 350.688 459.895 363.719 394.591 336.257C329.287 308.796 291.189 251.241 309.496 207.705C327.804 164.169 411.237 134.527 473.154 149.432C530.994 183.96 564.291 263.615 545.983 307.152Z" fill="white"/>
</g>
<path d="M545.983 307.152C527.676 350.688 459.895 363.719 394.591 336.257C329.287 308.796 291.189 251.241 309.496 207.705C327.804 164.169 411.237 134.527 473.154 149.432C530.994 183.96 564.291 263.615 545.983 307.152Z" fill="url(#paint2_linear_2073_523)"/>
<path d="M473.666 340.156C467.873 353.933 432.471 352.19 394.595 336.262C356.718 320.335 330.71 296.254 336.503 282.477C342.297 268.699 384.593 266.002 419.456 277.14C453.965 294.881 479.46 326.379 473.666 340.156Z" fill="url(#paint3_linear_2073_523)"/>
</g>
<ellipse cx="409.179" cy="173.693" rx="3.84459" ry="3.84459" transform="rotate(22.8075 409.179 173.693)" fill="#E2E2E2"/>
<ellipse cx="414.603" cy="172.307" rx="3.07568" ry="2.61432" transform="rotate(22.8075 414.603 172.307)" fill="#E2E2E2"/>
<ellipse cx="426.962" cy="177.823" rx="3.07568" ry="2.61432" transform="rotate(22.8075 426.962 177.823)" fill="#E2E2E2"/>
<path d="M433.842 182.892C433.019 184.849 429.419 176.027 421.668 172.767C413.917 169.508 405.518 173.284 406.341 171.327C407.164 169.37 415.049 166.815 422.8 170.074C430.551 173.333 434.665 180.935 433.842 182.892Z" fill="#E2E2E2"/>
<path d="M427.471 184.54C426.866 185.979 425.416 179.005 420.063 176.754C414.709 174.502 409.548 178.363 410.154 176.924C410.759 175.485 416.974 169.115 422.328 171.367C427.682 173.618 428.076 183.101 427.471 184.54Z" fill="#E2E2E2"/>
<ellipse cx="430.163" cy="182.517" rx="3.84459" ry="3.84459" transform="rotate(22.8075 430.163 182.517)" fill="#E2E2E2"/>
<ellipse cx="481.061" cy="206.558" rx="3.84459" ry="3.84459" transform="rotate(22.8075 481.061 206.558)" fill="#E2E2E2"/>
<ellipse cx="486.486" cy="205.172" rx="3.07568" ry="2.61432" transform="rotate(22.8075 486.486 205.172)" fill="#E2E2E2"/>
<ellipse cx="498.845" cy="210.688" rx="3.07568" ry="2.61432" transform="rotate(22.8075 498.845 210.688)" fill="#E2E2E2"/>
<path d="M505.725 215.757C504.902 217.714 501.301 208.892 493.551 205.633C485.8 202.373 477.4 206.15 478.224 204.192C479.047 202.235 486.932 199.68 494.683 202.939C502.434 206.199 506.548 213.8 505.725 215.757Z" fill="#E2E2E2"/>
<path d="M499.354 217.405C498.749 218.844 497.299 211.87 491.945 209.619C486.592 207.367 481.431 211.228 482.036 209.789C482.641 208.351 488.857 201.981 494.211 204.232C499.564 206.483 499.959 215.966 499.354 217.405Z" fill="#E2E2E2"/>
<ellipse cx="502.03" cy="215.382" rx="3.84459" ry="3.84459" transform="rotate(22.8075 502.03 215.382)" fill="#E2E2E2"/>
<g filter="url(#filter3_d_2073_523)">
<path d="M374.356 201.937C369.723 203.388 365.514 205.904 362.804 209.868C362.522 210.281 362.357 210.76 362.328 211.251C362.299 211.742 362.408 212.224 362.642 212.641C362.876 213.058 363.225 213.393 363.649 213.608C364.073 213.823 364.554 213.908 365.037 213.855C380.684 212.109 394.852 220.173 402.301 224.54C406.977 227.28 412.157 226.153 415.273 222.978C416.887 221.364 417.857 219.211 417.981 216.969C418.345 209.63 409.966 205.438 404.324 203.353C395.152 199.966 384.08 198.888 374.357 201.935L374.356 201.937Z" fill="black"/>
</g>
<path d="M407.196 219.914C406.887 220.865 403.747 220.795 400.183 219.759C396.619 218.722 393.98 217.111 394.288 216.16C394.597 215.209 397.661 216.842 401.225 217.878C404.789 218.915 407.505 218.963 407.196 219.914Z" fill="white"/>
<ellipse cx="410.469" cy="219.718" rx="1.1325" ry="1.1325" transform="rotate(40.8021 410.469 219.718)" fill="white"/>
<g filter="url(#filter4_d_2073_523)">
<path d="M510.379 263.14C512.142 267.507 512.769 272.215 511.272 276.697C511.116 277.164 510.832 277.584 510.452 277.909C510.072 278.234 509.612 278.451 509.125 278.534C508.638 278.617 508.145 278.563 507.701 278.378C507.258 278.193 506.883 277.886 506.621 277.49C498.113 264.692 482.584 259.068 474.316 256.189C469.127 254.382 466.757 249.805 467.356 245.508C467.643 243.3 468.774 241.243 470.515 239.762C476.238 234.951 484.954 238.634 490.224 241.57C498.789 246.345 506.687 253.971 510.381 263.138L510.379 263.14Z" fill="black"/>
</g>
<path d="M475.584 249.635C475.13 250.527 477.402 252.696 480.657 254.48C483.912 256.264 486.918 256.988 487.371 256.097C487.825 255.205 484.503 254.197 481.248 252.413C477.993 250.629 476.037 248.744 475.584 249.635Z" fill="white"/>
<ellipse cx="1.1325" cy="1.1325" rx="1.1325" ry="1.1325" transform="matrix(-0.997388 -0.0722343 -0.0722343 0.997388 474.609 246.135)" fill="white"/>
<g filter="url(#filter5_d_2073_523)">
<path d="M272.004 213.612C267.575 192.277 251.425 177.588 235.932 180.804C220.439 184.021 211.471 203.924 215.9 225.259C220.329 246.594 240.231 270.578 254.939 272.36C268.644 265.082 276.433 234.947 272.004 213.612Z" fill="white"/>
<path d="M272.004 213.612C267.575 192.277 251.425 177.588 235.932 180.804C220.439 184.021 211.471 203.924 215.9 225.259C220.329 246.594 240.231 270.578 254.939 272.36C268.644 265.082 276.433 234.947 272.004 213.612Z" fill="url(#paint4_linear_2073_523)"/>
</g>
<g filter="url(#filter6_d_2073_523)">
<path d="M528.033 405.792C546.704 394.558 555.227 374.459 547.069 360.901C538.911 347.344 517.162 345.46 498.491 356.694C479.82 367.929 463.766 394.641 466.947 409.111C478.347 419.639 509.362 417.026 528.033 405.792Z" fill="white"/>
<path d="M528.033 405.792C546.704 394.558 555.227 374.459 547.069 360.901C538.911 347.344 517.162 345.46 498.491 356.694C479.82 367.929 463.766 394.641 466.947 409.111C478.347 419.639 509.362 417.026 528.033 405.792Z" fill="url(#paint5_linear_2073_523)"/>
</g>
<ellipse cx="69.6679" cy="26.1988" rx="69.6679" ry="26.1988" transform="matrix(-0.968369 0.249521 0.249521 0.968369 427.008 397.604)" fill="black" fill-opacity="0.45"/>
<g filter="url(#filter7_d_2073_523)">
<path d="M440.895 369.853C436.845 360.386 405.894 376.379 368.675 342.325C331.457 308.27 282.881 300.777 260.177 325.589C237.474 350.401 243.161 413.195 271.249 448.801C357.264 471.542 457.405 436.676 440.895 369.853Z" fill="white"/>
<path d="M440.895 369.853C436.845 360.386 405.894 376.379 368.675 342.325C331.457 308.27 282.881 300.777 260.177 325.589C237.474 350.401 243.161 413.195 271.249 448.801C357.264 471.542 457.405 436.676 440.895 369.853Z" fill="url(#paint6_linear_2073_523)"/>
</g>
<g filter="url(#filter8_d_2073_523)">
<line x1="54.8091" y1="533.464" x2="190.418" y2="493.604" stroke="white" stroke-width="3" stroke-linecap="round"/>
</g>
<g filter="url(#filter9_d_2073_523)">
<line x1="1.5" y1="-1.5" x2="122.941" y2="-1.5" transform="matrix(0.960647 -0.277771 0.116749 0.993161 5 589.166)" stroke="white" stroke-width="3" stroke-linecap="round"/>
</g>
<path d="M633.004 192.357C633.142 191.536 633.669 191.109 634.585 191.078L635.439 191.063C635.534 191.053 635.613 191.053 635.677 191.063C635.754 191.076 635.825 191.088 635.889 191.099C636.672 191.23 637.059 191.758 637.049 192.68C637.027 193.125 636.999 193.688 636.964 194.369C636.929 195.05 636.902 195.798 636.884 196.613C636.879 197.431 636.88 198.289 636.888 199.188C636.908 200.09 636.95 200.981 637.013 201.863C637.078 202.732 637.176 203.567 637.305 204.368C637.435 205.169 637.612 205.885 637.836 206.517C638.06 207.149 638.329 207.669 638.643 208.078C638.972 208.477 639.361 208.714 639.811 208.789C640.132 208.843 640.469 208.801 640.822 208.662C641.189 208.526 641.558 208.33 641.931 208.076C642.306 207.809 642.674 207.501 643.037 207.152C643.399 206.804 643.736 206.445 644.049 206.075C644.362 205.705 644.646 205.35 644.901 205.01C645.172 204.659 645.388 204.352 645.551 204.089C645.669 203.858 645.745 203.64 645.78 203.434C645.797 203.332 645.808 203.228 645.812 203.123C645.817 203.018 645.816 202.906 645.81 202.786C645.699 201.949 645.647 201.121 645.652 200.303C645.657 199.486 645.737 198.615 645.893 197.69C645.983 197.151 646.118 196.625 646.296 196.114C646.474 195.603 646.709 195.147 647.001 194.747C647.155 194.535 647.362 194.365 647.621 194.237C647.88 194.109 648.153 194.016 648.44 193.959C648.74 193.904 649.041 193.881 649.343 193.892C649.659 193.893 649.946 193.915 650.203 193.958C650.486 194.005 650.733 194.106 650.944 194.26C651.158 194.402 651.334 194.616 651.47 194.903C651.748 195.452 651.904 196.052 651.94 196.705C651.989 197.36 651.959 198.009 651.851 198.651C651.735 199.344 651.551 200.046 651.299 200.757C651.05 201.454 650.775 202.147 650.475 202.836C650.355 203.001 650.277 203.192 650.24 203.411C650.223 203.513 650.217 203.625 650.223 203.745C650.243 203.867 650.266 204.003 650.294 204.153C650.423 204.795 650.59 205.457 650.792 206.137C651.01 206.808 651.282 207.428 651.609 207.998C651.936 208.567 652.329 209.056 652.789 209.463C653.248 209.87 653.806 210.129 654.46 210.239C655.038 210.336 655.599 210.179 656.144 209.769C656.688 209.359 657.177 208.807 657.61 208.114C658.056 207.423 658.436 206.655 658.749 205.81C659.065 204.952 659.29 204.125 659.423 203.329C659.566 202.481 659.674 201.641 659.747 200.808C659.821 199.976 659.865 199.204 659.879 198.493C659.864 198.425 659.862 198.359 659.872 198.294C659.883 198.23 659.894 198.166 659.905 198.102C660.028 197.37 660.503 196.935 661.332 196.797L662.247 196.653C662.504 196.617 662.735 196.616 662.941 196.651C663.621 196.765 663.961 197.258 663.96 198.129C663.968 198.949 663.943 199.763 663.886 200.573C663.843 201.384 663.754 202.187 663.62 202.984C663.336 204.679 662.869 206.238 662.221 207.66C661.573 209.083 660.796 210.293 659.889 211.289C658.997 212.275 658.01 213.007 656.926 213.485C655.842 213.963 654.716 214.104 653.547 213.908C652.405 213.716 651.312 213.183 650.271 212.308C649.232 211.421 648.369 210.147 647.684 208.487C647.561 208.123 647.383 207.922 647.152 207.883C646.934 207.846 646.707 207.98 646.471 208.284C645.888 209.004 645.269 209.66 644.616 210.25C643.964 210.827 643.296 211.309 642.61 211.695C641.925 212.082 641.232 212.355 640.532 212.515C639.832 212.675 639.148 212.698 638.48 212.586C637.401 212.405 636.501 211.95 635.778 211.222C635.066 210.508 634.49 209.613 634.051 208.535C633.624 207.46 633.311 206.259 633.111 204.931C632.914 203.591 632.788 202.217 632.734 200.808C632.695 199.389 632.701 197.977 632.752 196.573C632.816 195.171 632.883 193.862 632.956 192.646L633.004 192.357ZM669.842 209.098C669.553 210.819 669.593 212.192 669.962 213.218C670.332 214.244 671.017 214.841 672.019 215.009C672.648 215.115 673.257 215.025 673.846 214.741C674.448 214.46 674.997 214.017 675.495 213.414C675.992 212.811 676.42 212.071 676.778 211.194C677.152 210.306 677.429 209.322 677.61 208.244C677.72 207.589 677.79 207.02 677.818 206.536C677.849 206.039 677.863 205.599 677.861 205.216C677.875 204.822 677.88 204.473 677.879 204.169C677.877 203.865 677.899 203.579 677.944 203.309C678.013 202.898 678.236 202.632 678.613 202.51C678.992 202.376 679.56 202.372 680.318 202.499C681.281 202.661 681.989 203.005 682.442 203.53C682.908 204.057 683.071 204.738 682.931 205.572C682.549 207.845 681.982 209.849 681.228 211.584C680.488 213.322 679.593 214.756 678.545 215.887C677.512 217.007 676.348 217.809 675.052 218.291C673.756 218.773 672.377 218.891 670.913 218.646C669.873 218.471 668.946 218.091 668.134 217.506C667.331 216.935 666.674 216.211 666.161 215.333C665.664 214.444 665.325 213.436 665.144 212.31C664.966 211.171 664.984 209.959 665.2 208.675C665.282 208.187 665.382 207.669 665.5 207.122C665.619 206.574 665.756 205.989 665.913 205.369C666.072 204.735 666.253 204.053 666.455 203.321C666.67 202.591 666.902 201.798 667.152 200.942C667.253 200.577 667.476 200.31 667.82 200.144C668.18 199.967 668.604 199.919 669.092 200.001C669.529 200.074 669.932 200.188 670.302 200.343C670.672 200.497 670.979 200.674 671.223 200.874C671.48 201.075 671.668 201.291 671.787 201.523C671.92 201.756 671.967 201.989 671.928 202.22C671.889 202.451 671.776 202.808 671.589 203.292C671.418 203.765 671.22 204.312 670.997 204.935C670.788 205.547 670.57 206.217 670.342 206.944C670.13 207.661 669.963 208.379 669.842 209.098ZM689.37 199.187C688.998 199.124 688.653 199.014 688.336 198.855C688.035 198.686 687.778 198.484 687.567 198.25C687.37 198.006 687.224 197.737 687.128 197.444C687.032 197.151 687.011 196.843 687.065 196.522C687.155 195.983 687.44 195.582 687.92 195.319C688.413 195.059 689.019 194.989 689.738 195.11C690.072 195.166 690.382 195.284 690.668 195.464C690.957 195.631 691.2 195.837 691.397 196.081C691.606 196.328 691.758 196.604 691.852 196.91C691.948 197.204 691.971 197.498 691.921 197.793C691.828 198.345 691.55 198.748 691.085 199C690.635 199.241 690.063 199.303 689.37 199.187ZM685.745 204.619C685.82 204.169 686.074 203.836 686.507 203.618C686.955 203.389 687.499 203.329 688.142 203.437C689.297 203.631 689.847 204.132 689.79 204.941C689.749 205.502 689.696 206.134 689.631 206.836C689.578 207.54 689.512 208.288 689.432 209.08C689.367 209.861 689.283 210.672 689.182 211.513C689.095 212.344 689.003 213.167 688.906 213.982C688.811 214.785 688.714 215.561 688.614 216.31C688.515 217.059 688.413 217.742 688.31 218.358C688.202 219 687.89 219.443 687.374 219.686C686.871 219.932 686.182 219.981 685.309 219.835C684.911 219.768 684.613 219.619 684.414 219.387C684.226 219.171 684.162 218.883 684.222 218.523C684.52 216.751 684.753 215.087 684.922 213.531C685.106 211.965 685.247 210.569 685.347 209.345C685.46 208.123 685.538 207.106 685.582 206.295C685.641 205.473 685.695 204.914 685.745 204.619ZM697.922 200.623C697.55 200.56 697.205 200.45 696.889 200.291C696.587 200.121 696.33 199.92 696.119 199.686C695.922 199.442 695.776 199.173 695.68 198.88C695.584 198.586 695.563 198.279 695.617 197.958C695.707 197.419 695.992 197.018 696.472 196.755C696.965 196.495 697.571 196.425 698.29 196.545C698.624 196.602 698.934 196.72 699.221 196.9C699.509 197.067 699.752 197.273 699.949 197.517C700.158 197.764 700.31 198.04 700.404 198.346C700.5 198.639 700.523 198.934 700.473 199.229C700.381 199.781 700.102 200.183 699.637 200.435C699.187 200.677 698.616 200.739 697.922 200.623ZM694.297 206.055C694.372 205.605 694.626 205.272 695.059 205.054C695.507 204.825 696.052 204.765 696.694 204.873C697.849 205.067 698.399 205.568 698.342 206.377C698.301 206.938 698.248 207.57 698.183 208.272C698.131 208.976 698.064 209.724 697.984 210.516C697.919 211.297 697.836 212.108 697.734 212.949C697.647 213.78 697.555 214.603 697.458 215.418C697.363 216.221 697.266 216.997 697.166 217.746C697.067 218.495 696.966 219.178 696.862 219.794C696.754 220.436 696.442 220.879 695.926 221.122C695.423 221.368 694.735 221.417 693.861 221.271C693.463 221.204 693.165 221.055 692.966 220.823C692.778 220.607 692.714 220.319 692.774 219.959C693.072 218.187 693.305 216.523 693.474 214.967C693.658 213.4 693.8 212.005 693.9 210.781C694.012 209.558 694.091 208.542 694.134 207.731C694.193 206.909 694.247 206.35 694.297 206.055ZM703.707 199.079C703.686 198.891 703.668 198.722 703.653 198.575C703.651 198.429 703.662 198.286 703.686 198.145C703.746 197.785 703.906 197.502 704.165 197.294C704.437 197.089 704.798 197.024 705.247 197.1C707.238 197.434 708.249 198.092 708.282 199.075C708.311 200.321 708.319 201.57 708.307 202.822C708.295 204.074 708.254 205.341 708.184 206.624C708.128 207.895 708.031 209.186 707.89 210.496C707.764 211.795 707.588 213.118 707.362 214.467C707.319 214.724 707.264 214.972 707.197 215.212C707.133 215.438 707.046 215.642 706.936 215.821C706.829 215.988 706.695 216.117 706.534 216.209C706.387 216.303 706.197 216.331 705.966 216.292L704.387 215.789C704.059 215.695 703.838 215.559 703.723 215.381C703.622 215.192 703.584 214.948 703.608 214.649C703.9 212.281 704.056 209.779 704.076 207.142C704.096 204.505 703.973 201.817 703.707 199.079ZM703.694 223.456C703.321 223.394 702.978 223.277 702.663 223.105C702.36 222.948 702.103 222.747 701.894 222.5C701.695 222.269 701.547 222.007 701.451 221.713C701.355 221.42 701.334 221.113 701.388 220.792C701.479 220.252 701.764 219.851 702.244 219.589C702.737 219.328 703.342 219.258 704.061 219.379C704.395 219.435 704.706 219.553 704.992 219.733C705.281 219.9 705.524 220.106 705.72 220.35C705.93 220.597 706.082 220.873 706.175 221.179C706.271 221.473 706.295 221.767 706.245 222.063C706.152 222.615 705.875 223.01 705.412 223.25C704.96 223.504 704.387 223.573 703.694 223.456Z" fill="white"/>
<g filter="url(#filter10_d_2073_523)">
<path d="M640.069 250.207C644.467 249.446 648.99 249.918 653.136 251.57C656.66 252.684 660.257 253.551 663.902 254.165C698.85 260.033 730.265 241.548 734.85 214.242C739.434 186.936 715.775 159.208 680.83 153.341C645.879 147.472 614.467 165.958 609.883 193.261C607.516 207.358 612.58 221.931 623.788 233.627C624.606 234.456 625.437 235.271 626.281 236.073C626.231 236.027 626.418 236.203 626.16 235.983L626.64 236.39L627.077 236.841C631.555 241.462 633.149 246.911 632.568 252.462C635.567 251.4 638.429 250.479 640.069 250.207ZM599.92 191.651C605.556 158.083 642.552 136.311 682.561 143.029C722.565 149.745 750.428 182.404 744.793 215.969C739.157 249.54 702.155 271.311 662.151 264.594C657.807 263.865 653.615 262.83 649.584 261.524L649.56 261.515C640.167 257.539 634.199 267.724 610.954 269.623C606.179 270.015 605.821 268.767 609.954 265.634C617.431 259.981 625.389 250.055 619.815 244.304C619.638 244.158 617.471 242.053 616.652 241.212C603.574 227.569 596.884 209.731 599.921 191.646" fill="white"/>
</g>
<g filter="url(#filter11_d_2073_523)">
<path d="M87.9568 214.275C85.6746 215.831 84.0932 218.22 83.5518 220.929C81.1147 219.78 78.3289 219.613 75.7722 220.463C73.2154 221.313 71.0839 223.114 69.8196 225.493C68.5554 227.873 68.2555 230.647 68.9822 233.242C69.7088 235.836 71.4062 238.051 73.7223 239.428C71.7823 241.386 70.6682 244.013 70.61 246.769C70.6008 248.816 71.1909 250.821 72.3076 252.536C73.4243 254.252 75.0187 255.603 76.8941 256.423C78.7696 257.244 80.8441 257.497 82.8619 257.152C84.8797 256.808 86.7524 255.88 88.2493 254.484C89.2219 256.399 90.7558 257.973 92.6462 258.994C93.1839 259.267 93.7415 259.5 94.3143 259.69C96.6559 260.476 99.2008 260.405 101.495 259.488C103.789 258.572 105.682 256.87 106.837 254.686C107.106 254.25 107.346 253.797 107.557 253.33C108.463 250.705 108.303 247.83 107.112 245.322C109.833 244.873 112.273 243.382 113.913 241.164C114.182 240.728 114.423 240.275 114.634 239.808C115.53 238.115 115.945 236.209 115.833 234.297C115.721 232.385 115.086 230.541 113.998 228.965C112.91 227.389 111.41 226.142 109.662 225.359C107.914 224.577 105.984 224.29 104.084 224.529C104.418 222.504 104.149 220.425 103.311 218.552C102.473 216.679 101.102 215.094 99.3695 213.994C97.637 212.893 95.6193 212.327 93.5674 212.365C91.5155 212.403 89.5201 213.044 87.8296 214.207L87.9568 214.275ZM73.3295 231.883C72.9259 230.454 73.0893 228.925 73.7858 227.614C74.4823 226.304 75.658 225.312 77.0676 224.847C78.1755 224.509 79.359 224.509 80.4672 224.846C81.5753 225.183 82.558 225.843 83.2898 226.74L84.2473 227.956L84.7332 230.007C83.9791 230.708 83.3426 231.526 82.8484 232.43C82.2252 233.605 81.8533 234.897 81.7561 236.224L78.392 235.958C77.2349 235.871 76.1315 235.434 75.2277 234.707C74.3238 233.979 73.6619 232.994 73.3295 231.883ZM80.9556 252.51C79.6633 252.43 78.437 251.912 77.4794 251.04C76.5218 250.169 75.8902 248.996 75.6891 247.717C75.488 246.438 75.7293 245.129 76.3733 244.006C77.0172 242.882 78.0252 242.012 79.2306 241.54L80.6935 240.985L82.7828 241.145C83.6391 242.961 85.0541 244.455 86.8208 245.41C87.1255 245.602 87.4443 245.771 87.7744 245.916L87.1551 247.082L86.3789 248.952C85.9453 250.027 85.1936 250.944 84.2243 251.58C83.255 252.216 82.1145 252.541 80.9556 252.51ZM101.271 245.37C102.266 246.226 102.937 247.4 103.168 248.692C103.4 249.985 103.18 251.318 102.544 252.466C101.908 253.615 100.895 254.51 99.6769 255C98.4584 255.489 97.1084 255.544 95.8543 255.155C95.5469 255.018 95.2495 254.86 94.9643 254.682C94.107 254.217 93.3865 253.535 92.8741 252.705C92.3617 251.875 92.0754 250.926 92.0435 249.951L91.8549 248.465L92.6676 246.424C95.0042 246.107 97.1423 244.941 98.6742 243.148L101.271 245.37ZM95.5627 239.185C95.1173 240.023 94.4334 240.711 93.5974 241.16C92.7614 241.61 91.8108 241.801 90.866 241.711C89.9211 241.62 89.0244 241.251 88.2892 240.651C87.5539 240.05 87.0132 239.245 86.7355 238.338C86.4577 237.43 86.4553 236.461 86.7286 235.552C87.0019 234.643 87.5386 233.835 88.2708 233.231C89.0031 232.627 89.898 232.254 90.8424 232.158C91.7868 232.063 92.7382 232.25 93.5765 232.695C94.7005 233.292 95.5412 234.312 95.9137 235.529C96.2862 236.746 96.1599 238.061 95.5627 239.185ZM108.939 230.478C110.116 231.383 110.89 232.715 111.094 234.186C111.299 235.657 110.918 237.149 110.032 238.341C109.346 239.286 108.387 239.999 107.284 240.384C106.181 240.77 104.986 240.809 103.86 240.496L102.431 240.117L100.718 238.637C101.12 236.343 100.675 233.982 99.4657 231.993L100.664 231.271L100.766 231.081L102.335 230.121C103.337 229.488 104.511 229.182 105.694 229.246C106.877 229.31 108.011 229.741 108.939 230.478ZM98.409 219.611C99.0298 220.476 99.3979 221.496 99.4721 222.557C99.5463 223.619 99.3237 224.68 98.8291 225.622L98.5589 226.131L97.6264 227.375L95.9131 228.502C93.8512 227.41 91.4622 227.107 89.1929 227.649L88.893 226.321L88.3732 224.333C88.0618 223.051 88.2058 221.701 88.7803 220.513C89.3549 219.326 90.3244 218.375 91.5229 217.824C92.7213 217.272 94.0741 217.155 95.3497 217.491C96.6253 217.828 97.7442 218.597 98.515 219.668L98.409 219.611Z" fill="white"/>
</g>
<g filter="url(#filter12_d_2073_523)">
<path d="M107.08 337.245C108.686 338.147 110.581 338.383 112.359 337.904C112.395 339.7 113.121 341.413 114.386 342.688C115.651 343.964 117.358 344.703 119.154 344.753C120.949 344.803 122.695 344.16 124.029 342.957C125.364 341.755 126.184 340.085 126.32 338.293C128.063 338.872 129.963 338.759 131.626 337.977C132.851 337.376 133.873 336.43 134.567 335.255C135.261 334.079 135.595 332.727 135.53 331.364C135.464 330.001 135 328.687 134.197 327.584C133.393 326.481 132.284 325.637 131.007 325.157C131.863 324.009 132.348 322.626 132.398 321.195C132.402 320.793 132.375 320.391 132.319 319.993C132.095 318.361 131.298 316.862 130.071 315.764C128.844 314.666 127.267 314.039 125.621 313.996C125.281 313.965 124.939 313.956 124.597 313.968C122.761 314.205 121.092 315.152 119.947 316.607C118.872 315.115 117.259 314.099 115.449 313.777C115.108 313.746 114.767 313.736 114.425 313.748C113.149 313.714 111.887 314.031 110.779 314.664C109.67 315.298 108.757 316.223 108.138 317.34C107.519 318.457 107.219 319.722 107.269 320.998C107.32 322.274 107.72 323.511 108.426 324.576C107.118 324.976 105.956 325.752 105.086 326.808C104.215 327.864 103.675 329.152 103.531 330.512C103.387 331.873 103.647 333.246 104.278 334.46C104.908 335.674 105.882 336.676 107.078 337.341L107.08 337.245ZM121.93 340.764C121.196 341.428 120.235 341.783 119.245 341.756C118.256 341.728 117.316 341.32 116.621 340.616C116.09 340.054 115.739 339.348 115.613 338.586C115.486 337.824 115.588 337.042 115.908 336.339L116.35 335.407L117.431 334.509C118.073 334.752 118.75 334.889 119.436 334.917C120.323 334.941 121.205 334.78 122.026 334.445L122.864 336.533C123.154 337.25 123.221 338.038 123.054 338.793C122.887 339.549 122.495 340.236 121.93 340.764ZM131.989 330.098C132.324 330.893 132.378 331.779 132.141 332.609C131.905 333.439 131.392 334.164 130.687 334.663C129.983 335.162 129.13 335.406 128.268 335.354C127.406 335.302 126.588 334.958 125.949 334.378L125.184 333.669L124.66 332.374C125.491 331.324 125.965 330.037 126.011 328.699C126.036 328.46 126.042 328.219 126.031 327.979L126.911 328.004L128.257 327.913C129.028 327.853 129.798 328.031 130.465 328.421C131.132 328.812 131.664 329.397 131.989 330.098ZM121.706 320.081C121.923 319.232 122.425 318.485 123.128 317.963C123.831 317.442 124.692 317.179 125.567 317.218C126.442 317.257 127.276 317.597 127.929 318.18C128.583 318.762 129.015 319.552 129.155 320.416C129.164 320.64 129.158 320.865 129.136 321.088C129.112 321.738 128.918 322.37 128.575 322.922C128.231 323.474 127.748 323.926 127.176 324.234L126.344 324.787L124.884 324.906C124.003 323.605 122.673 322.673 121.149 322.29L121.706 320.081ZM119.704 325.322C120.336 325.34 120.949 325.545 121.465 325.911C121.982 326.277 122.378 326.788 122.603 327.379C122.829 327.97 122.875 328.615 122.734 329.232C122.593 329.849 122.273 330.41 121.813 330.845C121.353 331.28 120.775 331.568 120.151 331.675C119.527 331.781 118.886 331.699 118.308 331.441C117.731 331.183 117.242 330.759 116.906 330.223C116.569 329.687 116.399 329.064 116.416 328.431C116.44 327.583 116.8 326.779 117.416 326.196C118.033 325.613 118.855 325.298 119.704 325.322ZM110.54 319.913C110.733 318.942 111.298 318.086 112.116 317.528C112.934 316.97 113.938 316.755 114.912 316.931C115.68 317.061 116.39 317.422 116.947 317.967C117.504 318.512 117.881 319.213 118.028 319.978L118.225 320.944L117.849 322.406C116.36 322.845 115.082 323.81 114.252 325.122L113.466 324.62L113.322 324.616L112.284 323.963C111.609 323.552 111.079 322.942 110.766 322.216C110.454 321.491 110.375 320.686 110.54 319.913ZM107.171 329.422C107.503 328.795 108.003 328.273 108.615 327.914C109.227 327.555 109.927 327.374 110.636 327.39L111.02 327.401L112.039 327.589L113.22 328.278C113.179 329.833 113.705 331.35 114.701 332.544L113.997 333.117L112.964 334.016C112.29 334.582 111.441 334.896 110.562 334.905C109.683 334.913 108.828 334.616 108.143 334.064C107.459 333.511 106.988 332.738 106.811 331.877C106.634 331.015 106.762 330.119 107.173 329.342L107.171 329.422Z" fill="white"/>
</g>
<g filter="url(#filter13_d_2073_523)">
<path d="M290.725 93.6844C289.758 95.2517 289.444 97.1354 289.85 98.9317C288.054 98.8939 286.312 99.5487 284.986 100.76C283.66 101.972 282.852 103.648 282.728 105.44C282.604 107.232 283.175 109.002 284.322 110.385C285.469 111.767 287.104 112.655 288.888 112.864C288.238 114.583 288.273 116.485 288.986 118.179C289.536 119.428 290.44 120.488 291.586 121.23C292.731 121.971 294.069 122.361 295.434 122.351C296.798 122.341 298.13 121.932 299.265 121.174C300.4 120.417 301.289 119.343 301.821 118.087C302.933 118.989 304.294 119.53 305.723 119.639C306.124 119.659 306.527 119.65 306.927 119.61C308.566 119.453 310.097 118.718 311.244 117.537C312.392 116.357 313.083 114.806 313.193 113.163C313.238 112.824 313.262 112.483 313.264 112.142C313.102 110.298 312.224 108.59 310.818 107.387C312.353 106.374 313.433 104.804 313.83 103.008C313.875 102.67 313.899 102.329 313.9 101.987C313.987 100.713 313.722 99.4399 313.135 98.3062C312.547 97.1725 311.66 96.2218 310.569 95.5576C309.479 94.8935 308.227 94.5414 306.95 94.5399C305.673 94.5383 304.421 94.8872 303.328 95.5486C302.982 94.225 302.254 93.0326 301.235 92.1196C300.216 91.2067 298.951 90.6136 297.597 90.4142C296.244 90.2148 294.862 90.4179 293.623 90.9982C292.384 91.5785 291.343 92.5103 290.629 93.6778L290.725 93.6844ZM286.6 108.377C285.966 107.617 285.651 106.641 285.719 105.654C285.787 104.667 286.234 103.744 286.966 103.078C287.548 102.572 288.269 102.25 289.035 102.154C289.801 102.059 290.579 102.193 291.268 102.541L292.181 103.021L293.034 104.139C292.765 104.77 292.6 105.441 292.544 106.125C292.484 107.01 292.608 107.898 292.909 108.732L290.789 109.484C290.061 109.745 289.27 109.779 288.522 109.581C287.775 109.383 287.104 108.963 286.6 108.377ZM296.844 118.866C296.036 119.168 295.148 119.185 294.328 118.914C293.509 118.644 292.806 118.102 292.336 117.377C291.866 116.653 291.658 115.79 291.745 114.932C291.832 114.073 292.209 113.269 292.815 112.654L293.555 111.92L294.871 111.449C295.885 112.323 297.152 112.848 298.487 112.95C298.725 112.984 298.965 113.001 299.205 112.999L299.145 113.877L299.18 115.226C299.208 115.999 298.999 116.761 298.582 117.412C298.164 118.062 297.558 118.569 296.844 118.866ZM307.275 109.002C308.113 109.253 308.84 109.785 309.332 110.509C309.824 111.233 310.052 112.105 309.977 112.977C309.901 113.849 309.528 114.669 308.919 115.298C308.31 115.927 307.503 116.327 306.634 116.43C306.409 116.431 306.185 116.415 305.963 116.384C305.315 116.334 304.691 116.114 304.154 115.748C303.616 115.382 303.184 114.882 302.9 114.297L302.382 113.443L302.323 111.98C303.659 111.152 304.644 109.862 305.09 108.354L307.275 109.002ZM302.12 106.786C302.076 107.418 301.846 108.022 301.459 108.522C301.072 109.023 300.546 109.398 299.946 109.599C299.346 109.8 298.7 109.819 298.089 109.653C297.478 109.488 296.931 109.144 296.515 108.667C296.099 108.19 295.835 107.6 295.754 106.973C295.674 106.345 295.781 105.707 296.063 105.141C296.345 104.574 296.789 104.104 297.338 103.79C297.887 103.475 298.517 103.33 299.148 103.374C299.995 103.432 300.783 103.825 301.341 104.465C301.898 105.105 302.178 105.94 302.12 106.786ZM307.9 97.8526C308.862 98.0844 309.695 98.685 310.219 99.525C310.743 100.365 310.916 101.377 310.701 102.343C310.539 103.105 310.149 103.8 309.582 104.334C309.015 104.868 308.298 105.216 307.528 105.332L306.555 105.489L305.11 105.052C304.732 103.547 303.82 102.23 302.543 101.347L303.077 100.582L303.087 100.439L303.782 99.4285C304.22 98.7711 304.852 98.2662 305.59 97.9839C306.328 97.7015 307.135 97.6556 307.9 97.8526ZM298.538 94.0954C299.151 94.4531 299.652 94.9742 299.985 95.6005C300.319 96.2267 300.471 96.9333 300.426 97.6413L300.399 98.0244L300.169 99.0347L299.432 100.187C297.881 100.082 296.344 100.546 295.109 101.492L294.566 100.765L293.71 99.6953C293.172 98.9993 292.893 98.1381 292.92 97.2591C292.948 96.3801 293.28 95.5379 293.86 94.8769C294.44 94.2158 295.232 93.7769 296.1 93.6354C296.968 93.4938 297.858 93.6584 298.618 94.1009L298.538 94.0954Z" fill="white"/>
</g>
<g filter="url(#filter14_d_2073_523)">
<path d="M674.172 423.703C671.959 425.357 670.482 427.811 670.058 430.541C667.574 429.498 664.783 429.451 662.266 430.411C659.748 431.37 657.696 433.262 656.535 435.693C655.375 438.125 655.195 440.91 656.033 443.47C656.87 446.031 658.662 448.171 661.035 449.447C659.181 451.486 658.181 454.159 658.242 456.915C658.321 458.96 658.997 460.938 660.187 462.604C661.376 464.269 663.027 465.551 664.936 466.289C666.845 467.028 668.929 467.192 670.93 466.761C672.931 466.329 674.762 465.322 676.197 463.862C677.252 465.734 678.852 467.24 680.785 468.179C681.334 468.429 681.901 468.637 682.481 468.802C684.854 469.487 687.394 469.306 689.646 468.291C691.898 467.277 693.717 465.495 694.776 463.263C695.026 462.816 695.247 462.353 695.438 461.877C696.229 459.216 695.945 456.35 694.647 453.896C697.347 453.33 699.72 451.735 701.263 449.449C701.513 449.001 701.734 448.538 701.925 448.063C702.748 446.333 703.08 444.411 702.886 442.506C702.691 440.6 701.978 438.785 700.823 437.257C699.667 435.73 698.115 434.548 696.335 433.842C694.555 433.136 692.615 432.932 690.726 433.253C690.973 431.215 690.615 429.15 689.696 427.315C688.778 425.48 687.34 423.955 685.562 422.93C683.784 421.906 681.744 421.427 679.695 421.554C677.647 421.68 675.681 422.406 674.042 423.641L674.172 423.703ZM660.317 441.925C659.853 440.516 659.95 438.981 660.589 437.641C661.229 436.302 662.36 435.261 663.749 434.735C664.841 434.35 666.023 434.298 667.145 434.587C668.267 434.876 669.277 435.493 670.047 436.359L671.056 437.531L671.63 439.56C670.906 440.293 670.306 441.138 669.851 442.061C669.279 443.263 668.963 444.57 668.923 445.899L665.551 445.779C664.391 445.741 663.27 445.353 662.335 444.665C661.401 443.977 660.697 443.022 660.317 441.925ZM668.825 462.205C667.531 462.181 666.283 461.715 665.289 460.886C664.295 460.057 663.613 458.913 663.357 457.644C663.101 456.374 663.286 455.056 663.881 453.906C664.476 452.756 665.445 451.843 666.629 451.319L668.067 450.702L670.161 450.771C671.095 452.549 672.573 453.981 674.379 454.858C674.692 455.037 675.018 455.193 675.354 455.323L674.785 456.514L674.09 458.416C673.704 459.509 672.992 460.458 672.051 461.135C671.11 461.812 669.985 462.185 668.825 462.205ZM688.814 454.196C689.846 455.008 690.566 456.152 690.853 457.433C691.14 458.714 690.978 460.056 690.392 461.231C689.806 462.406 688.833 463.343 687.637 463.885C686.44 464.427 685.094 464.54 683.824 464.205C683.511 464.082 683.207 463.937 682.915 463.771C682.038 463.343 681.289 462.693 680.741 461.886C680.194 461.079 679.867 460.143 679.793 459.17L679.54 457.694L680.264 455.619C682.585 455.202 684.671 453.945 686.124 452.088L688.814 454.196ZM682.845 448.263C682.436 449.119 681.782 449.836 680.966 450.321C680.15 450.806 679.209 451.038 678.261 450.988C677.313 450.938 676.401 450.609 675.641 450.04C674.881 449.472 674.306 448.691 673.989 447.797C673.672 446.902 673.628 445.933 673.862 445.013C674.096 444.093 674.597 443.263 675.303 442.628C676.008 441.993 676.886 441.582 677.826 441.446C678.765 441.31 679.724 441.456 680.581 441.864C681.729 442.413 682.613 443.395 683.038 444.595C683.462 445.795 683.393 447.114 682.845 448.263ZM695.833 438.987C697.048 439.841 697.879 441.138 698.146 442.599C698.414 444.059 698.097 445.567 697.265 446.796C696.619 447.77 695.692 448.523 694.606 448.956C693.521 449.388 692.329 449.478 691.191 449.215L689.747 448.898L687.972 447.492C688.275 445.184 687.728 442.844 686.434 440.909L687.601 440.136L687.694 439.941L689.22 438.915C690.194 438.24 691.353 437.884 692.538 437.896C693.723 437.909 694.875 438.29 695.833 438.987ZM684.845 428.584C685.502 429.421 685.914 430.424 686.034 431.482C686.154 432.539 685.977 433.609 685.523 434.572L685.275 435.091L684.397 436.374L682.734 437.575C680.627 436.573 678.227 436.373 675.983 437.012L675.627 435.698L675.022 433.734C674.655 432.467 674.741 431.112 675.264 429.901C675.787 428.689 676.714 427.698 677.888 427.095C679.061 426.493 680.408 426.317 681.697 426.598C682.986 426.879 684.137 427.6 684.953 428.636L684.845 428.584Z" fill="white"/>
</g>
<g filter="url(#filter15_d_2073_523)">
<path d="M556.455 498.35C555.488 499.918 555.174 501.801 555.58 503.598C553.784 503.56 552.043 504.215 550.717 505.426C549.391 506.638 548.582 508.314 548.458 510.106C548.335 511.898 548.906 513.668 550.052 515.051C551.199 516.433 552.834 517.321 554.618 517.53C553.969 519.249 554.004 521.151 554.716 522.845C555.267 524.094 556.17 525.154 557.316 525.896C558.462 526.637 559.8 527.027 561.164 527.017C562.529 527.007 563.861 526.598 564.996 525.84C566.131 525.083 567.019 524.009 567.551 522.753C568.664 523.655 570.025 524.196 571.453 524.305C571.855 524.325 572.257 524.316 572.658 524.276C574.297 524.119 575.827 523.384 576.975 522.203C578.123 521.023 578.813 519.472 578.924 517.829C578.969 517.49 578.992 517.149 578.994 516.808C578.833 514.964 577.954 513.256 576.548 512.053C578.083 511.04 579.164 509.47 579.56 507.674C579.606 507.336 579.629 506.995 579.631 506.653C579.717 505.379 579.452 504.106 578.865 502.972C578.278 501.839 577.39 500.888 576.3 500.224C575.209 499.56 573.958 499.207 572.681 499.206C571.404 499.204 570.151 499.553 569.059 500.215C568.713 498.891 567.984 497.699 566.965 496.786C565.946 495.873 564.681 495.28 563.328 495.08C561.974 494.881 560.592 495.084 559.353 495.664C558.114 496.244 557.073 497.176 556.36 498.344L556.455 498.35ZM552.33 513.043C551.697 512.283 551.381 511.307 551.449 510.32C551.517 509.333 551.964 508.41 552.696 507.744C553.279 507.238 553.999 506.916 554.766 506.82C555.532 506.725 556.309 506.859 556.999 507.207L557.912 507.687L558.764 508.805C558.496 509.436 558.33 510.107 558.275 510.791C558.214 511.676 558.339 512.564 558.64 513.398L556.519 514.15C555.791 514.411 555.001 514.445 554.253 514.247C553.505 514.049 552.835 513.629 552.33 513.043ZM562.575 523.532C561.766 523.834 560.879 523.851 560.059 523.58C559.239 523.31 558.536 522.768 558.067 522.043C557.597 521.319 557.388 520.456 557.475 519.598C557.562 518.739 557.94 517.936 558.545 517.32L559.286 516.586L560.601 516.115C561.616 516.989 562.883 517.514 564.218 517.616C564.455 517.65 564.696 517.667 564.936 517.665L564.875 518.543L564.91 519.892C564.938 520.665 564.73 521.427 564.312 522.078C563.895 522.728 563.288 523.235 562.575 523.532ZM573.005 513.668C573.844 513.919 574.57 514.451 575.062 515.175C575.555 515.899 575.782 516.771 575.707 517.643C575.632 518.515 575.258 519.335 574.649 519.964C574.04 520.593 573.233 520.993 572.364 521.096C572.14 521.097 571.916 521.081 571.694 521.05C571.045 521 570.422 520.78 569.884 520.414C569.347 520.048 568.915 519.548 568.631 518.963L568.112 518.109L568.053 516.646C569.39 515.818 570.375 514.528 570.821 513.02L573.005 513.668ZM567.85 511.452C567.807 512.084 567.577 512.688 567.19 513.188C566.803 513.689 566.276 514.064 565.676 514.265C565.076 514.466 564.43 514.485 563.82 514.319C563.209 514.154 562.661 513.81 562.246 513.333C561.83 512.856 561.565 512.266 561.485 511.639C561.404 511.011 561.512 510.373 561.794 509.807C562.076 509.24 562.519 508.77 563.068 508.456C563.617 508.141 564.247 507.996 564.879 508.04C565.725 508.098 566.514 508.491 567.071 509.131C567.628 509.771 567.909 510.606 567.85 511.452ZM573.63 502.519C574.593 502.75 575.426 503.351 575.95 504.191C576.473 505.031 576.646 506.043 576.431 507.009C576.27 507.771 575.879 508.466 575.312 509C574.745 509.534 574.029 509.882 573.258 509.998L572.285 510.155L570.84 509.718C570.462 508.213 569.55 506.896 568.274 506.013L568.808 505.248L568.818 505.105L569.513 504.094C569.951 503.437 570.582 502.932 571.32 502.65C572.058 502.368 572.865 502.322 573.63 502.519ZM564.268 498.761C564.881 499.119 565.382 499.64 565.716 500.266C566.049 500.893 566.202 501.599 566.156 502.307L566.13 502.69L565.9 503.701L565.163 504.853C563.611 504.748 562.074 505.212 560.839 506.158L560.296 505.431L559.44 504.361C558.902 503.665 558.623 502.804 558.651 501.925C558.678 501.046 559.01 500.204 559.59 499.543C560.17 498.882 560.962 498.443 561.83 498.301C562.698 498.16 563.588 498.324 564.348 498.767L564.268 498.761Z" fill="white"/>
</g>
<ellipse cx="208.22" cy="17.7209" rx="208.22" ry="17.7209" transform="matrix(1 0 -4.47013e-08 -1 183 727.441)" fill="black" fill-opacity="0.45"/>
<defs>
<filter id="filter0_d_2073_523" x="182.059" y="321" width="427.547" height="299.6" filterUnits="userSpaceOnUse" color-interpolation-filters="sRGB">
<feFlood flood-opacity="0" result="BackgroundImageFix"/>
<feColorMatrix in="SourceAlpha" type="matrix" values="0 0 0 0 0 0 0 0 0 0 0 0 0 0 0 0 0 0 127 0" result="hardAlpha"/>
<feOffset dy="4"/>
<feGaussianBlur stdDeviation="2"/>
<feComposite in2="hardAlpha" operator="out"/>
<feColorMatrix type="matrix" values="0 0 0 0 0 0 0 0 0 0 0 0 0 0 0 0 0 0 0.25 0"/>
<feBlend mode="normal" in2="BackgroundImageFix" result="effect1_dropShadow_2073_523"/>
<feBlend mode="normal" in="SourceGraphic" in2="effect1_dropShadow_2073_523" result="shape"/>
</filter>
<filter id="filter1_d_2073_523" x="300.906" y="145.535" width="254.109" height="213.105" filterUnits="userSpaceOnUse" color-interpolation-filters="sRGB">
<feFlood flood-opacity="0" result="BackgroundImageFix"/>
<feColorMatrix in="SourceAlpha" type="matrix" values="0 0 0 0 0 0 0 0 0 0 0 0 0 0 0 0 0 0 127 0" result="hardAlpha"/>
<feOffset dy="4"/>
<feGaussianBlur stdDeviation="2"/>
<feComposite in2="hardAlpha" operator="out"/>
<feColorMatrix type="matrix" values="0 0 0 0 0 0 0 0 0 0 0 0 0 0 0 0 0 0 0.25 0"/>
<feBlend mode="normal" in2="BackgroundImageFix" result="effect1_dropShadow_2073_523"/>
<feBlend mode="normal" in="SourceGraphic" in2="effect1_dropShadow_2073_523" result="shape"/>
</filter>
<filter id="filter2_d_2073_523" x="300.906" y="139.535" width="254.109" height="213.105" filterUnits="userSpaceOnUse" color-interpolation-filters="sRGB">
<feFlood flood-opacity="0" result="BackgroundImageFix"/>
<feColorMatrix in="SourceAlpha" type="matrix" values="0 0 0 0 0 0 0 0 0 0 0 0 0 0 0 0 0 0 127 0" result="hardAlpha"/>
<feOffset dy="-2"/>
<feGaussianBlur stdDeviation="2"/>
<feComposite in2="hardAlpha" operator="out"/>
<feColorMatrix type="matrix" values="0 0 0 0 0 0 0 0 0 0 0 0 0 0 0 0 0 0 0.1 0"/>
<feBlend mode="normal" in2="BackgroundImageFix" result="effect1_dropShadow_2073_523"/>
<feBlend mode="normal" in="SourceGraphic" in2="effect1_dropShadow_2073_523" result="shape"/>
</filter>
<filter id="filter3_d_2073_523" x="358.324" y="198.143" width="63.668" height="33.9473" filterUnits="userSpaceOnUse" color-interpolation-filters="sRGB">
<feFlood flood-opacity="0" result="BackgroundImageFix"/>
<feColorMatrix in="SourceAlpha" type="matrix" values="0 0 0 0 0 0 0 0 0 0 0 0 0 0 0 0 0 0 127 0" result="hardAlpha"/>
<feOffset dy="2"/>
<feGaussianBlur stdDeviation="2"/>
<feComposite in2="hardAlpha" operator="out"/>
<feColorMatrix type="matrix" values="0 0 0 0 0 0 0 0 0 0 0 0 0 0 0 0 0 0 0.25 0"/>
<feBlend mode="normal" in2="BackgroundImageFix" result="effect1_dropShadow_2073_523"/>
<feBlend mode="normal" in="SourceGraphic" in2="effect1_dropShadow_2073_523" result="shape"/>
</filter>
<filter id="filter4_d_2073_523" x="463.266" y="235.436" width="52.8477" height="49.1367" filterUnits="userSpaceOnUse" color-interpolation-filters="sRGB">
<feFlood flood-opacity="0" result="BackgroundImageFix"/>
<feColorMatrix in="SourceAlpha" type="matrix" values="0 0 0 0 0 0 0 0 0 0 0 0 0 0 0 0 0 0 127 0" result="hardAlpha"/>
<feOffset dy="2"/>
<feGaussianBlur stdDeviation="2"/>
<feComposite in2="hardAlpha" operator="out"/>
<feColorMatrix type="matrix" values="0 0 0 0 0 0 0 0 0 0 0 0 0 0 0 0 0 0 0.25 0"/>
<feBlend mode="normal" in2="BackgroundImageFix" result="effect1_dropShadow_2073_523"/>
<feBlend mode="normal" in="SourceGraphic" in2="effect1_dropShadow_2073_523" result="shape"/>
</filter>
<filter id="filter5_d_2073_523" x="210.77" y="180.363" width="66.4805" height="99.9961" filterUnits="userSpaceOnUse" color-interpolation-filters="sRGB">
<feFlood flood-opacity="0" result="BackgroundImageFix"/>
<feColorMatrix in="SourceAlpha" type="matrix" values="0 0 0 0 0 0 0 0 0 0 0 0 0 0 0 0 0 0 127 0" result="hardAlpha"/>
<feOffset dy="4"/>
<feGaussianBlur stdDeviation="2"/>
<feComposite in2="hardAlpha" operator="out"/>
<feColorMatrix type="matrix" values="0 0 0 0 0 0 0 0 0 0 0 0 0 0 0 0 0 0 0.25 0"/>
<feBlend mode="normal" in2="BackgroundImageFix" result="effect1_dropShadow_2073_523"/>
<feBlend mode="normal" in="SourceGraphic" in2="effect1_dropShadow_2073_523" result="shape"/>
</filter>
<filter id="filter6_d_2073_523" x="462.543" y="349.361" width="91.6211" height="74.4004" filterUnits="userSpaceOnUse" color-interpolation-filters="sRGB">
<feFlood flood-opacity="0" result="BackgroundImageFix"/>
<feColorMatrix in="SourceAlpha" type="matrix" values="0 0 0 0 0 0 0 0 0 0 0 0 0 0 0 0 0 0 127 0" result="hardAlpha"/>
<feOffset dy="4"/>
<feGaussianBlur stdDeviation="2"/>
<feComposite in2="hardAlpha" operator="out"/>
<feColorMatrix type="matrix" values="0 0 0 0 0 0 0 0 0 0 0 0 0 0 0 0 0 0 0.25 0"/>
<feBlend mode="normal" in2="BackgroundImageFix" result="effect1_dropShadow_2073_523"/>
<feBlend mode="normal" in="SourceGraphic" in2="effect1_dropShadow_2073_523" result="shape"/>
</filter>
<filter id="filter7_d_2073_523" x="242.152" y="310.953" width="204.543" height="152.793" filterUnits="userSpaceOnUse" color-interpolation-filters="sRGB">
<feFlood flood-opacity="0" result="BackgroundImageFix"/>
<feColorMatrix in="SourceAlpha" type="matrix" values="0 0 0 0 0 0 0 0 0 0 0 0 0 0 0 0 0 0 127 0" result="hardAlpha"/>
<feOffset dy="4"/>
<feGaussianBlur stdDeviation="2"/>
<feComposite in2="hardAlpha" operator="out"/>
<feColorMatrix type="matrix" values="0 0 0 0 0 0 0 0 0 0 0 0 0 0 0 0 0 0 0.25 0"/>
<feBlend mode="normal" in2="BackgroundImageFix" result="effect1_dropShadow_2073_523"/>
<feBlend mode="normal" in="SourceGraphic" in2="effect1_dropShadow_2073_523" result="shape"/>
</filter>
<filter id="filter8_d_2073_523" x="49.3086" y="492.104" width="146.609" height="50.8613" filterUnits="userSpaceOnUse" color-interpolation-filters="sRGB">
<feFlood flood-opacity="0" result="BackgroundImageFix"/>
<feColorMatrix in="SourceAlpha" type="matrix" values="0 0 0 0 0 0 0 0 0 0 0 0 0 0 0 0 0 0 127 0" result="hardAlpha"/>
<feOffset dy="4"/>
<feGaussianBlur stdDeviation="2"/>
<feComposite in2="hardAlpha" operator="out"/>
<feColorMatrix type="matrix" values="0 0 0 0 0 0 0 0 0 0 0 0 0 0 0 0 0 0 0.25 0"/>
<feBlend mode="normal" in2="BackgroundImageFix" result="effect1_dropShadow_2073_523"/>
<feBlend mode="normal" in="SourceGraphic" in2="effect1_dropShadow_2073_523" result="shape"/>
</filter>
<filter id="filter9_d_2073_523" x="0.8125" y="551.98" width="127.566" height="44.8262" filterUnits="userSpaceOnUse" color-interpolation-filters="sRGB">
<feFlood flood-opacity="0" result="BackgroundImageFix"/>
<feColorMatrix in="SourceAlpha" type="matrix" values="0 0 0 0 0 0 0 0 0 0 0 0 0 0 0 0 0 0 127 0" result="hardAlpha"/>
<feOffset dy="4"/>
<feGaussianBlur stdDeviation="2"/>
<feComposite in2="hardAlpha" operator="out"/>
<feColorMatrix type="matrix" values="0 0 0 0 0 0 0 0 0 0 0 0 0 0 0 0 0 0 0.25 0"/>
<feBlend mode="normal" in2="BackgroundImageFix" result="effect1_dropShadow_2073_523"/>
<feBlend mode="normal" in="SourceGraphic" in2="effect1_dropShadow_2073_523" result="shape"/>
</filter>
<filter id="filter10_d_2073_523" x="595.195" y="141.812" width="154.32" height="135.881" filterUnits="userSpaceOnUse" color-interpolation-filters="sRGB">
<feFlood flood-opacity="0" result="BackgroundImageFix"/>
<feColorMatrix in="SourceAlpha" type="matrix" values="0 0 0 0 0 0 0 0 0 0 0 0 0 0 0 0 0 0 127 0" result="hardAlpha"/>
<feOffset dy="4"/>
<feGaussianBlur stdDeviation="2"/>
<feComposite in2="hardAlpha" operator="out"/>
<feColorMatrix type="matrix" values="0 0 0 0 0 0 0 0 0 0 0 0 0 0 0 0 0 0 0.25 0"/>
<feBlend mode="normal" in2="BackgroundImageFix" result="effect1_dropShadow_2073_523"/>
<feBlend mode="normal" in="SourceGraphic" in2="effect1_dropShadow_2073_523" result="shape"/>
</filter>
<filter id="filter11_d_2073_523" x="64.5938" y="212.363" width="55.2578" height="55.8691" filterUnits="userSpaceOnUse" color-interpolation-filters="sRGB">
<feFlood flood-opacity="0" result="BackgroundImageFix"/>
<feColorMatrix in="SourceAlpha" type="matrix" values="0 0 0 0 0 0 0 0 0 0 0 0 0 0 0 0 0 0 127 0" result="hardAlpha"/>
<feOffset dy="4"/>
<feGaussianBlur stdDeviation="2"/>
<feComposite in2="hardAlpha" operator="out"/>
<feColorMatrix type="matrix" values="0 0 0 0 0 0 0 0 0 0 0 0 0 0 0 0 0 0 0.25 0"/>
<feBlend mode="normal" in2="BackgroundImageFix" result="effect1_dropShadow_2073_523"/>
<feBlend mode="normal" in="SourceGraphic" in2="effect1_dropShadow_2073_523" result="shape"/>
</filter>
<filter id="filter12_d_2073_523" x="99.4922" y="313.742" width="40.0469" height="39.0137" filterUnits="userSpaceOnUse" color-interpolation-filters="sRGB">
<feFlood flood-opacity="0" result="BackgroundImageFix"/>
<feColorMatrix in="SourceAlpha" type="matrix" values="0 0 0 0 0 0 0 0 0 0 0 0 0 0 0 0 0 0 127 0" result="hardAlpha"/>
<feOffset dy="4"/>
<feGaussianBlur stdDeviation="2"/>
<feComposite in2="hardAlpha" operator="out"/>
<feColorMatrix type="matrix" values="0 0 0 0 0 0 0 0 0 0 0 0 0 0 0 0 0 0 0.25 0"/>
<feBlend mode="normal" in2="BackgroundImageFix" result="effect1_dropShadow_2073_523"/>
<feBlend mode="normal" in="SourceGraphic" in2="effect1_dropShadow_2073_523" result="shape"/>
</filter>
<filter id="filter13_d_2073_523" x="278.711" y="90.3398" width="39.207" height="40.0117" filterUnits="userSpaceOnUse" color-interpolation-filters="sRGB">
<feFlood flood-opacity="0" result="BackgroundImageFix"/>
<feColorMatrix in="SourceAlpha" type="matrix" values="0 0 0 0 0 0 0 0 0 0 0 0 0 0 0 0 0 0 127 0" result="hardAlpha"/>
<feOffset dy="4"/>
<feGaussianBlur stdDeviation="2"/>
<feComposite in2="hardAlpha" operator="out"/>
<feColorMatrix type="matrix" values="0 0 0 0 0 0 0 0 0 0 0 0 0 0 0 0 0 0 0.25 0"/>
<feBlend mode="normal" in2="BackgroundImageFix" result="effect1_dropShadow_2073_523"/>
<feBlend mode="normal" in="SourceGraphic" in2="effect1_dropShadow_2073_523" result="shape"/>
</filter>
<filter id="filter14_d_2073_523" x="651.512" y="421.533" width="55.4297" height="55.6777" filterUnits="userSpaceOnUse" color-interpolation-filters="sRGB">
<feFlood flood-opacity="0" result="BackgroundImageFix"/>
<feColorMatrix in="SourceAlpha" type="matrix" values="0 0 0 0 0 0 0 0 0 0 0 0 0 0 0 0 0 0 127 0" result="hardAlpha"/>
<feOffset dy="4"/>
<feGaussianBlur stdDeviation="2"/>
<feComposite in2="hardAlpha" operator="out"/>
<feColorMatrix type="matrix" values="0 0 0 0 0 0 0 0 0 0 0 0 0 0 0 0 0 0 0.25 0"/>
<feBlend mode="normal" in2="BackgroundImageFix" result="effect1_dropShadow_2073_523"/>
<feBlend mode="normal" in="SourceGraphic" in2="effect1_dropShadow_2073_523" result="shape"/>
</filter>
<filter id="filter15_d_2073_523" x="544.441" y="495.006" width="39.207" height="40.0117" filterUnits="userSpaceOnUse" color-interpolation-filters="sRGB">
<feFlood flood-opacity="0" result="BackgroundImageFix"/>
<feColorMatrix in="SourceAlpha" type="matrix" values="0 0 0 0 0 0 0 0 0 0 0 0 0 0 0 0 0 0 127 0" result="hardAlpha"/>
<feOffset dy="4"/>
<feGaussianBlur stdDeviation="2"/>
<feComposite in2="hardAlpha" operator="out"/>
<feColorMatrix type="matrix" values="0 0 0 0 0 0 0 0 0 0 0 0 0 0 0 0 0 0 0.25 0"/>
<feBlend mode="normal" in2="BackgroundImageFix" result="effect1_dropShadow_2073_523"/>
<feBlend mode="normal" in="SourceGraphic" in2="effect1_dropShadow_2073_523" result="shape"/>
</filter>
<linearGradient id="paint0_linear_2073_523" x1="474.888" y1="100.003" x2="474.888" y2="164.139" gradientUnits="userSpaceOnUse">
<stop stop-color="white"/>
<stop offset="1" stop-color="#C4DDFC"/>
</linearGradient>
<linearGradient id="paint1_linear_2073_523" x1="451.209" y1="123.718" x2="451.209" y2="259.688" gradientUnits="userSpaceOnUse">
<stop/>
<stop offset="1" stop-color="#666666"/>
</linearGradient>
<linearGradient id="paint2_linear_2073_523" x1="473.154" y1="149.432" x2="394.591" y2="336.257" gradientUnits="userSpaceOnUse">
<stop stop-color="white" stop-opacity="0"/>
<stop offset="1" stop-color="#6AABFF" stop-opacity="0.45"/>
</linearGradient>
<linearGradient id="paint3_linear_2073_523" x1="419.456" y1="277.14" x2="394.595" y2="336.262" gradientUnits="userSpaceOnUse">
<stop stop-color="white" stop-opacity="0"/>
<stop offset="1" stop-color="#6A90F9"/>
</linearGradient>
<linearGradient id="paint4_linear_2073_523" x1="209.374" y1="193.826" x2="243.83" y2="275.273" gradientUnits="userSpaceOnUse">
<stop stop-color="white" stop-opacity="0"/>
<stop offset="1" stop-color="#6AABFF" stop-opacity="0.8"/>
</linearGradient>
<linearGradient id="paint5_linear_2073_523" x1="525.998" y1="340.143" x2="460.525" y2="399.591" gradientUnits="userSpaceOnUse">
<stop stop-color="white" stop-opacity="0"/>
<stop offset="1" stop-color="#6AABFF" stop-opacity="0.8"/>
</linearGradient>
<linearGradient id="paint6_linear_2073_523" x1="271.249" y1="448.801" x2="368.675" y2="342.325" gradientUnits="userSpaceOnUse">
<stop stop-color="white" stop-opacity="0"/>
<stop offset="1" stop-color="#6AABFF" stop-opacity="0.8"/>
</linearGradient>
</defs>
</svg>
