<svg width="650" height="607" viewBox="0 0 650 607" fill="none" xmlns="http://www.w3.org/2000/svg">
<g filter="url(#filter0_d_2377_20)">
<path d="M509.67 299.651C511.392 308.148 508.18 316.896 501.302 322.127L265.52 502.627C260.018 506.832 252.863 508.277 246.14 506.52C239.418 504.762 233.882 500.036 231.106 493.657L194.501 409.936L123.436 414.196C114.167 414.787 105.478 409.577 101.561 401.126C97.6444 392.674 99.3848 382.709 105.833 375.989L146.669 333.433C148.623 331.397 151.242 330.195 154.082 329.987L328.69 318.802C334.72 318.428 339.356 313.392 339.233 307.407C339.109 301.422 334.367 296.48 328.376 296.305L136.57 288.934L113.212 223.302C110.405 215.427 112.121 206.709 117.732 200.556C123.343 194.403 131.873 191.832 139.947 193.811L493.046 282.33C501.473 284.451 507.899 291.205 509.67 299.651Z" fill="white"/>
</g>
<ellipse cx="53.3015" cy="6.80536" rx="53.3015" ry="6.80536" transform="matrix(-0.996756 -0.0804879 -0.0804878 0.996756 405.148 336.178)" fill="black" fill-opacity="0.45"/>
<ellipse cx="424.267" cy="119.623" rx="47.5077" ry="31.2551" transform="rotate(40.8976 424.267 119.623)" fill="url(#paint0_linear_2377_20)"/>
<ellipse cx="384.284" cy="167.702" rx="118.769" ry="66.2607" transform="rotate(40.8976 384.284 167.702)" fill="url(#paint1_linear_2377_20)"/>
<g filter="url(#filter1_d_2377_20)">
<g filter="url(#filter2_d_2377_20)">
<path d="M411.064 322.825C375.127 351.591 311.017 331.211 267.869 277.306C224.722 223.401 218.876 156.384 254.813 127.619C290.749 98.8534 375.993 112.291 422.083 153.867C455.551 210.35 447.001 294.06 411.064 322.825Z" fill="white"/>
</g>
<path d="M411.064 322.825C375.127 351.591 311.017 331.211 267.869 277.306C224.722 223.401 218.876 156.384 254.813 127.619C290.749 98.8534 375.993 112.291 422.083 153.867C455.551 210.35 447.001 294.06 411.064 322.825Z" fill="url(#paint2_linear_2377_20)"/>
<path d="M333.775 317.439C322.403 326.542 292.896 308.576 267.871 277.312C242.845 246.047 231.777 213.322 243.149 204.219C254.521 195.116 291.998 212.488 316.672 238.249C337.97 269.499 345.147 308.336 333.775 317.439Z" fill="url(#paint3_linear_2377_20)"/>
</g>
<ellipse cx="338.662" cy="165.204" rx="3.7471" ry="3.7471" transform="rotate(51.3248 338.662 165.204)" fill="#E2E2E2"/>
<ellipse cx="343.95" cy="166.54" rx="2.99768" ry="2.54803" transform="rotate(51.3248 343.95 166.54)" fill="#E2E2E2"/>
<ellipse cx="351.966" cy="177.015" rx="2.99768" ry="2.54803" transform="rotate(51.3248 351.966 177.015)" fill="#E2E2E2"/>
<path d="M355.499 184.556C353.884 185.849 354.906 176.618 349.784 170.221C344.663 163.823 335.713 163.148 337.329 161.855C338.944 160.562 346.887 162.043 352.008 168.441C357.129 174.839 357.115 183.263 355.499 184.556Z" fill="#E2E2E2"/>
<path d="M349.278 183.004C348.09 183.955 350.094 177.308 346.557 172.889C343.02 168.47 336.804 169.375 337.992 168.424C339.179 167.473 347.466 164.91 351.003 169.33C354.541 173.749 350.466 182.054 349.278 183.004Z" fill="#E2E2E2"/>
<ellipse cx="352.526" cy="182.523" rx="3.7471" ry="3.7471" transform="rotate(51.3248 352.526 182.523)" fill="#E2E2E2"/>
<ellipse cx="384.936" cy="226.796" rx="3.7471" ry="3.7471" transform="rotate(51.3248 384.936 226.796)" fill="#E2E2E2"/>
<ellipse cx="390.224" cy="228.132" rx="2.99768" ry="2.54803" transform="rotate(51.3248 390.224 228.132)" fill="#E2E2E2"/>
<ellipse cx="398.239" cy="238.606" rx="2.99768" ry="2.54803" transform="rotate(51.3248 398.239 238.606)" fill="#E2E2E2"/>
<path d="M401.773 246.148C400.157 247.441 401.179 238.21 396.058 231.812C390.937 225.414 381.987 224.74 383.602 223.447C385.218 222.154 393.16 223.635 398.281 230.033C403.402 236.431 403.389 244.855 401.773 246.148Z" fill="#E2E2E2"/>
<path d="M395.548 244.596C394.36 245.547 396.364 238.9 392.826 234.481C389.289 230.061 383.073 230.967 384.261 230.016C385.449 229.065 393.736 226.502 397.273 230.921C400.81 235.341 396.735 243.645 395.548 244.596Z" fill="#E2E2E2"/>
<ellipse cx="398.787" cy="244.107" rx="3.7471" ry="3.7471" transform="rotate(51.3248 398.787 244.107)" fill="#E2E2E2"/>
<g filter="url(#filter3_d_2377_20)">
<path d="M282.948 182.339C283.572 177.648 285.291 173.189 288.649 169.928C288.998 169.589 289.432 169.351 289.898 169.242C290.365 169.133 290.846 169.157 291.285 169.313C291.725 169.468 292.105 169.748 292.381 170.119C292.658 170.491 292.82 170.939 292.848 171.412C293.767 186.729 303.861 198.999 309.29 205.43C312.697 209.466 312.473 214.628 309.941 218.147C308.658 219.965 306.752 221.254 304.618 221.745C297.631 223.311 292.215 215.958 289.277 210.885C284.503 202.638 281.632 192.183 282.946 182.34L282.948 182.339Z" fill="black"/>
</g>
<path d="M299.819 215.534C299.065 216.151 296.528 214.439 294.153 211.71C291.778 208.98 290.464 206.268 291.219 205.651C291.973 205.034 293.623 207.988 295.998 210.718C298.373 213.447 300.574 214.918 299.819 215.534Z" fill="white"/>
<ellipse cx="302.621" cy="217.107" rx="1.10378" ry="1.10378" transform="rotate(73.5538 302.621 217.107)" fill="white"/>
<g filter="url(#filter4_d_2377_20)">
<path d="M364.286 302.823C368.773 303.791 373.399 303.613 377.456 301.432C377.878 301.205 378.234 300.862 378.483 300.443C378.733 300.024 378.864 299.547 378.863 299.065C378.862 298.584 378.729 298.119 378.478 297.724C378.227 297.329 377.869 297.02 377.446 296.833C363.743 290.784 355.767 276.803 351.631 269.339C349.034 264.655 344.246 263.138 340.218 264.426C338.145 265.067 336.356 266.494 335.223 268.412C331.552 274.707 336.534 282.467 340.228 287.042C346.234 294.476 354.868 300.797 364.285 302.825L364.286 302.823Z" fill="black"/>
</g>
<path d="M340.217 275.958C339.376 276.449 340.094 279.425 341.821 282.604C343.549 285.782 345.631 287.961 346.473 287.469C347.315 286.978 345.123 284.399 343.396 281.221C341.668 278.042 341.059 275.466 340.217 275.958Z" fill="white"/>
<ellipse cx="1.10378" cy="1.10378" rx="1.10378" ry="1.10378" transform="matrix(-0.799747 -0.600337 -0.600337 0.799747 341.262 272.574)" fill="white"/>
<g filter="url(#filter5_d_2377_20)">
<path d="M161.373 159.539C147.108 143.806 126.282 139.449 114.857 149.808C103.432 160.166 105.735 181.318 120 197.052C134.265 212.785 162.837 223.096 176.073 217.324C183.989 204.437 175.639 175.273 161.373 159.539Z" fill="white"/>
<path d="M161.373 159.539C147.108 143.806 126.282 139.449 114.857 149.808C103.432 160.166 105.735 181.318 120 197.052C134.265 212.785 162.837 223.096 176.073 217.324C183.989 204.437 175.639 175.273 161.373 159.539Z" fill="url(#paint4_linear_2377_20)"/>
</g>
<g filter="url(#filter6_d_2377_20)">
<path d="M287.981 373.892C289.572 395.069 303.329 411.301 318.708 410.145C334.086 408.989 345.263 390.884 343.671 369.706C342.079 348.528 325.867 322.841 311.878 319.265C297.715 324.571 286.389 352.714 287.981 373.892Z" fill="white"/>
<path d="M287.981 373.892C289.572 395.069 303.329 411.301 318.708 410.145C334.086 408.989 345.263 390.884 343.671 369.706C342.079 348.528 325.867 322.841 311.878 319.265C297.715 324.571 286.389 352.714 287.981 373.892Z" fill="url(#paint5_linear_2377_20)"/>
</g>
<ellipse cx="67.9012" cy="25.5345" rx="67.9012" ry="25.5345" transform="matrix(-0.996756 -0.0804879 -0.0804878 0.996756 271.242 328.682)" fill="black" fill-opacity="0.45"/>
<ellipse cx="208.22" cy="17.7209" rx="208.22" ry="17.7209" transform="matrix(1 0 -4.47013e-08 -1 95.25 606.037)" fill="black" fill-opacity="0.45"/>
<g filter="url(#filter7_d_2377_20)">
<path d="M289.984 319.494C290.412 309.468 256.471 310.487 238.104 264.879C219.736 219.27 180.198 192.224 149.792 204.469C119.386 216.714 97.935 274.3 107.625 317.426C173.646 373.645 276.348 385.181 289.984 319.494Z" fill="white"/>
<path d="M289.984 319.494C290.412 309.468 256.471 310.487 238.104 264.879C219.736 219.27 180.198 192.224 149.792 204.469C119.386 216.714 97.935 274.3 107.625 317.426C173.646 373.645 276.348 385.181 289.984 319.494Z" fill="url(#paint6_linear_2377_20)"/>
</g>
<path d="M538.315 112.421C537.001 112.2 535.781 111.965 534.655 111.715C533.529 111.465 532.568 111.17 531.774 110.83C530.859 110.482 530.226 110.083 529.875 109.635C529.539 109.177 529.426 108.617 529.537 107.954C529.591 107.634 529.705 107.313 529.881 106.99C530.057 106.666 530.336 106.348 530.717 106.035C531.1 105.71 531.632 105.404 532.313 105.116C532.789 104.892 533.37 104.619 534.057 104.296C534.758 103.963 535.512 103.603 536.319 103.216C537.127 102.828 537.933 102.446 538.738 102.07C539.555 101.696 540.307 101.348 540.994 101.025C541.693 100.705 542.278 100.444 542.75 100.243C543.437 99.9936 543.879 99.788 544.077 99.6265C544.274 99.4649 544.387 99.3013 544.415 99.1357C544.448 98.9345 544.327 98.7864 544.051 98.6913C543.789 98.5865 543.427 98.4953 542.965 98.4178C542.314 98.3085 541.596 98.2061 540.808 98.1104C540.033 98.0168 539.244 97.933 538.441 97.859C537.652 97.7752 536.906 97.6925 536.202 97.6107C535.497 97.529 534.903 97.4474 534.418 97.3659C534.098 97.3123 533.815 97.2222 533.569 97.0956C533.334 96.9711 533.161 96.8081 533.048 96.6068C532.936 96.4054 532.903 96.1686 532.949 95.8964C533.002 95.5769 533.177 95.3325 533.473 95.1632C533.781 94.9959 534.196 94.8829 534.717 94.8244C535.249 94.7678 535.872 94.7567 536.584 94.7911C537.31 94.8156 538.127 94.8738 539.037 94.9657C539.481 95.0037 540.018 95.0635 540.649 95.1451C541.294 95.2169 541.963 95.2927 542.655 95.3724C543.348 95.4522 544.004 95.5319 544.623 95.6115C545.254 95.6932 545.777 95.7687 546.191 95.8383C547.363 96.035 548.231 96.3694 548.797 96.8416C549.362 97.3138 549.582 97.9286 549.455 98.686C549.365 99.2185 549.14 99.7282 548.778 100.215C548.418 100.69 547.745 101.149 546.758 101.592C545.939 101.977 545.02 102.413 544.002 102.899C542.983 103.385 541.959 103.87 540.928 104.354C539.898 104.839 538.947 105.281 538.077 105.683C537.22 106.074 536.535 106.385 536.022 106.615C535.576 106.808 535.26 106.986 535.075 107.15C534.889 107.313 534.78 107.49 534.748 107.679C534.715 107.88 534.814 108.049 535.047 108.185C535.291 108.324 535.73 108.464 536.363 108.607C537.01 108.74 537.931 108.907 539.126 109.108C540.381 109.318 541.479 109.478 542.422 109.588C543.379 109.688 544.242 109.802 545.011 109.931C545.721 110.051 546.229 110.252 546.534 110.534C546.84 110.816 546.957 111.171 546.885 111.597C546.816 112.011 546.574 112.329 546.159 112.552C545.745 112.774 545.168 112.909 544.431 112.955C543.703 113.015 542.824 112.996 541.794 112.896C540.776 112.798 539.616 112.64 538.315 112.421ZM557.626 115.663C556.313 115.443 555.093 115.208 553.967 114.958C552.84 114.708 551.88 114.413 551.085 114.072C550.17 113.724 549.538 113.326 549.187 112.878C548.85 112.419 548.737 111.859 548.849 111.196C548.902 110.877 549.017 110.555 549.193 110.232C549.369 109.909 549.648 109.59 550.029 109.277C550.412 108.952 550.944 108.646 551.625 108.359C552.101 108.135 552.682 107.861 553.369 107.538C554.07 107.206 554.824 106.846 555.631 106.458C556.438 106.07 557.245 105.688 558.05 105.313C558.867 104.939 559.619 104.591 560.306 104.268C561.005 103.947 561.59 103.686 562.062 103.486C562.749 103.236 563.191 103.03 563.388 102.869C563.586 102.707 563.698 102.544 563.726 102.378C563.76 102.177 563.639 102.029 563.363 101.934C563.101 101.829 562.739 101.738 562.277 101.66C561.626 101.551 560.907 101.448 560.12 101.353C559.345 101.259 558.556 101.175 557.753 101.101C556.964 101.018 556.218 100.935 555.513 100.853C554.809 100.771 554.214 100.69 553.729 100.608C553.41 100.555 553.127 100.465 552.88 100.338C552.646 100.213 552.472 100.05 552.36 99.8491C552.248 99.6478 552.215 99.411 552.26 99.1388C552.314 98.8193 552.489 98.5749 552.785 98.4055C553.093 98.2382 553.507 98.1253 554.028 98.0667C554.561 98.0102 555.183 97.9991 555.896 98.0335C556.621 98.058 557.439 98.1162 558.348 98.208C558.792 98.246 559.33 98.3059 559.961 98.3875C560.606 98.4593 561.275 98.5351 561.967 98.6148C562.659 98.6945 563.315 98.7742 563.935 98.8539C564.566 98.9355 565.089 99.0111 565.503 99.0807C566.674 99.2774 567.543 99.6118 568.109 100.084C568.674 100.556 568.893 101.171 568.766 101.928C568.677 102.461 568.451 102.971 568.09 103.457C567.73 103.932 567.057 104.391 566.07 104.834C565.251 105.22 564.332 105.656 563.313 106.142C562.295 106.628 561.27 107.113 560.24 107.597C559.21 108.081 558.259 108.524 557.389 108.925C556.532 109.317 555.847 109.627 555.334 109.858C554.888 110.05 554.572 110.229 554.386 110.392C554.201 110.556 554.092 110.732 554.06 110.921C554.026 111.123 554.126 111.291 554.358 111.428C554.603 111.566 555.042 111.707 555.675 111.85C556.322 111.983 557.243 112.149 558.438 112.35C559.693 112.561 560.791 112.721 561.734 112.83C562.691 112.93 563.554 113.045 564.323 113.174C565.033 113.293 565.541 113.494 565.846 113.776C566.152 114.059 566.269 114.413 566.197 114.839C566.128 115.253 565.885 115.572 565.471 115.794C565.056 116.017 564.48 116.151 563.742 116.197C563.014 116.258 562.135 116.238 561.106 116.138C560.088 116.04 558.928 115.882 557.626 115.663ZM576.938 118.906C575.624 118.685 574.405 118.45 573.278 118.2C572.152 117.95 571.192 117.655 570.397 117.315C569.482 116.966 568.849 116.568 568.499 116.12C568.162 115.662 568.049 115.101 568.16 114.439C568.214 114.119 568.329 113.798 568.505 113.474C568.681 113.151 568.959 112.833 569.341 112.52C569.724 112.195 570.256 111.888 570.937 111.601C571.412 111.377 571.994 111.103 572.681 110.781C573.381 110.448 574.135 110.088 574.943 109.7C575.75 109.313 576.556 108.931 577.362 108.555C578.179 108.181 578.931 107.833 579.618 107.51C580.317 107.189 580.902 106.929 581.374 106.728C582.06 106.478 582.503 106.273 582.7 106.111C582.898 105.95 583.01 105.786 583.038 105.62C583.072 105.419 582.951 105.271 582.675 105.176C582.412 105.071 582.05 104.98 581.589 104.903C580.938 104.793 580.219 104.691 579.432 104.595C578.657 104.502 577.868 104.418 577.065 104.344C576.276 104.26 575.529 104.177 574.825 104.095C574.121 104.014 573.526 103.932 573.041 103.851C572.721 103.797 572.439 103.707 572.192 103.58C571.957 103.456 571.784 103.293 571.672 103.091C571.56 102.89 571.526 102.653 571.572 102.381C571.626 102.062 571.801 101.817 572.097 101.648C572.405 101.481 572.819 101.368 573.34 101.309C573.873 101.253 574.495 101.241 575.207 101.276C575.933 101.3 576.751 101.359 577.66 101.45C578.104 101.488 578.642 101.548 579.273 101.63C579.918 101.702 580.586 101.777 581.279 101.857C581.971 101.937 582.627 102.017 583.246 102.096C583.878 102.178 584.4 102.253 584.814 102.323C585.986 102.52 586.855 102.854 587.42 103.326C587.986 103.799 588.205 104.413 588.078 105.171C587.989 105.703 587.763 106.213 587.401 106.7C587.042 107.175 586.369 107.634 585.382 108.076C584.563 108.462 583.644 108.898 582.625 109.384C581.607 109.87 580.582 110.355 579.552 110.839C578.521 111.323 577.571 111.766 576.7 112.167C575.844 112.559 575.159 112.87 574.646 113.1C574.2 113.293 573.884 113.471 573.698 113.635C573.512 113.798 573.404 113.974 573.372 114.164C573.338 114.365 573.438 114.534 573.67 114.67C573.915 114.809 574.353 114.949 574.987 115.092C575.633 115.225 576.555 115.392 577.75 115.592C579.004 115.803 580.103 115.963 581.046 116.073C582.002 116.173 582.865 116.287 583.635 116.416C584.345 116.535 584.852 116.736 585.158 117.019C585.463 117.301 585.58 117.655 585.509 118.081C585.439 118.496 585.197 118.814 584.783 119.036C584.368 119.259 583.792 119.393 583.054 119.44C582.326 119.5 581.447 119.48 580.417 119.38C579.4 119.283 578.24 119.124 576.938 118.906ZM596.25 122.148C594.936 121.928 593.716 121.692 592.59 121.442C591.464 121.192 590.504 120.897 589.709 120.557C588.794 120.209 588.161 119.811 587.811 119.362C587.474 118.904 587.361 118.344 587.472 117.681C587.526 117.362 587.641 117.04 587.817 116.717C587.993 116.393 588.271 116.075 588.652 115.762C589.035 115.437 589.567 115.131 590.248 114.844C590.724 114.619 591.305 114.346 591.992 114.023C592.693 113.69 593.447 113.33 594.254 112.943C595.062 112.555 595.868 112.173 596.673 111.797C597.491 111.424 598.243 111.075 598.93 110.753C599.628 110.432 600.214 110.171 600.685 109.97C601.372 109.721 601.814 109.515 602.012 109.354C602.209 109.192 602.322 109.028 602.35 108.863C602.383 108.662 602.262 108.513 601.986 108.418C601.724 108.314 601.362 108.222 600.901 108.145C600.25 108.036 599.531 107.933 598.744 107.838C597.969 107.744 597.179 107.66 596.377 107.586C595.588 107.502 594.841 107.42 594.137 107.338C593.433 107.256 592.838 107.174 592.353 107.093C592.033 107.039 591.75 106.949 591.504 106.823C591.269 106.698 591.096 106.535 590.984 106.334C590.871 106.132 590.838 105.896 590.884 105.624C590.937 105.304 591.112 105.06 591.408 104.89C591.716 104.723 592.131 104.61 592.652 104.551C593.184 104.495 593.807 104.484 594.519 104.518C595.245 104.543 596.063 104.601 596.972 104.693C597.416 104.731 597.953 104.791 598.584 104.872C599.23 104.944 599.898 105.02 600.591 105.1C601.283 105.179 601.939 105.259 602.558 105.339C603.189 105.42 603.712 105.496 604.126 105.565C605.298 105.762 606.166 106.097 606.732 106.569C607.298 107.041 607.517 107.656 607.39 108.413C607.3 108.946 607.075 109.455 606.713 109.942C606.354 110.417 605.68 110.876 604.693 111.319C603.874 111.704 602.955 112.14 601.937 112.626C600.918 113.112 599.894 113.597 598.863 114.082C597.833 114.566 596.883 115.008 596.012 115.41C595.156 115.801 594.471 116.112 593.957 116.342C593.511 116.535 593.195 116.713 593.01 116.877C592.824 117.04 592.715 117.217 592.684 117.406C592.65 117.607 592.749 117.776 592.982 117.913C593.226 118.051 593.665 118.192 594.298 118.334C594.945 118.467 595.866 118.634 597.062 118.835C598.316 119.045 599.415 119.206 600.358 119.315C601.314 119.415 602.177 119.529 602.946 119.659C603.656 119.778 604.164 119.979 604.47 120.261C604.775 120.544 604.892 120.898 604.821 121.324C604.751 121.738 604.509 122.056 604.094 122.279C603.68 122.501 603.104 122.636 602.366 122.682C601.638 122.742 600.759 122.723 599.729 122.623C598.711 122.525 597.552 122.367 596.25 122.148Z" fill="white"/>
<g filter="url(#filter8_d_2377_20)">
<path d="M537.986 152.806C542.272 152.064 546.68 152.524 550.721 154.134C554.156 155.22 557.662 156.065 561.214 156.663C595.276 162.382 625.894 144.366 630.363 117.753C634.831 91.1394 611.772 64.1139 577.713 58.3956C543.649 52.6764 513.032 70.6927 508.564 97.3035C506.258 111.043 511.194 125.246 522.117 136.646C522.914 137.454 523.724 138.248 524.547 139.03C524.498 138.985 524.68 139.156 524.429 138.943L524.897 139.339L525.323 139.779C529.687 144.283 531.241 149.594 530.675 155.004C533.597 153.969 536.387 153.071 537.986 152.806ZM498.854 95.735C504.347 63.0182 540.405 41.7984 579.4 48.3455C618.39 54.8917 645.546 86.7221 640.054 119.436C634.56 152.156 598.497 173.375 559.507 166.828C555.274 166.118 551.188 165.108 547.259 163.836L547.236 163.827C538.081 159.951 532.264 169.879 509.609 171.729C504.955 172.111 504.606 170.895 508.634 167.842C515.922 162.332 523.678 152.657 518.245 147.052C518.072 146.911 515.961 144.859 515.163 144.039C502.416 130.742 495.896 113.356 498.855 95.7295" fill="white"/>
</g>
<g filter="url(#filter9_d_2377_20)">
<path d="M28.6641 161.707C26.4398 163.224 24.8985 165.552 24.3708 168.192C21.9956 167.072 19.2804 166.909 16.7885 167.738C14.2966 168.566 12.2191 170.322 10.9869 172.641C9.75473 174.96 9.46244 177.664 10.1707 180.193C10.8789 182.721 12.5332 184.88 14.7906 186.222C12.8998 188.13 11.8139 190.691 11.7572 193.377C11.7483 195.372 12.3234 197.326 13.4118 198.998C14.5001 200.67 16.0541 201.987 17.882 202.786C19.7099 203.586 21.7318 203.833 23.6984 203.497C25.665 203.161 27.4903 202.257 28.9492 200.896C29.8971 202.763 31.3922 204.296 33.2346 205.292C33.7587 205.558 34.3022 205.785 34.8604 205.97C37.1426 206.737 39.623 206.667 41.8587 205.774C44.0944 204.88 45.9398 203.222 47.0653 201.093C47.3274 200.668 47.562 200.227 47.7676 199.771C48.6501 197.213 48.4941 194.411 47.3332 191.966C49.9857 191.529 52.3634 190.075 53.9621 187.914C54.2242 187.489 54.4588 187.047 54.6644 186.592C55.5384 184.943 55.9428 183.085 55.8336 181.222C55.7245 179.358 55.1059 177.56 54.0452 176.024C52.9846 174.488 51.5227 173.273 49.8188 172.51C48.1149 171.748 46.2345 171.468 44.3824 171.701C44.7079 169.727 44.4459 167.701 43.6289 165.876C42.8119 164.05 41.476 162.505 39.7874 161.433C38.0989 160.36 36.1323 159.808 34.1325 159.845C32.1326 159.883 30.1878 160.507 28.5402 161.641L28.6641 161.707ZM14.4078 178.868C14.0144 177.476 14.1737 175.985 14.8525 174.708C15.5313 173.43 16.6772 172.464 18.0511 172.011C19.1309 171.681 20.2843 171.681 21.3644 172.01C22.4445 172.338 23.4022 172.981 24.1155 173.856L25.0487 175.041L25.5223 177.04C24.7873 177.724 24.167 178.521 23.6852 179.401C23.0779 180.547 22.7154 181.806 22.6206 183.099L19.3418 182.84C18.2141 182.755 17.1387 182.33 16.2578 181.62C15.3768 180.911 14.7318 179.951 14.4078 178.868ZM21.8405 198.973C20.5809 198.895 19.3857 198.389 18.4524 197.54C17.5191 196.69 16.9035 195.548 16.7075 194.301C16.5115 193.055 16.7467 191.778 17.3744 190.684C18.002 189.589 18.9844 188.741 20.1592 188.28L21.585 187.74L23.6214 187.895C24.4559 189.665 25.8351 191.122 27.557 192.052C27.854 192.24 28.1646 192.405 28.4864 192.546L27.8828 193.682L27.1262 195.504C26.7037 196.552 25.971 197.446 25.0263 198.066C24.0816 198.686 22.97 199.002 21.8405 198.973ZM41.6404 192.014C42.6108 192.848 43.2641 193.991 43.4901 195.251C43.7161 196.511 43.501 197.81 42.8812 198.93C42.2613 200.05 41.2745 200.922 40.087 201.399C38.8994 201.876 37.5837 201.93 36.3613 201.55C36.0618 201.417 35.7719 201.263 35.4939 201.089C34.6584 200.636 33.9561 199.971 33.4567 199.163C32.9573 198.354 32.6783 197.428 32.6472 196.478L32.4634 195.03L33.2555 193.04C35.5328 192.732 37.6167 191.595 39.1098 189.848L41.6404 192.014ZM36.0772 185.985C35.6431 186.802 34.9765 187.472 34.1617 187.91C33.3469 188.348 32.4204 188.535 31.4995 188.447C30.5786 188.358 29.7046 187.999 28.9881 187.414C28.2715 186.829 27.7445 186.044 27.4738 185.159C27.203 184.275 27.2007 183.33 27.4671 182.444C27.7334 181.558 28.2565 180.771 28.9702 180.182C29.6839 179.594 30.5561 179.23 31.4765 179.137C32.397 179.044 33.3243 179.226 34.1413 179.66C35.2368 180.242 36.0562 181.236 36.4193 182.422C36.7823 183.608 36.6593 184.89 36.0772 185.985ZM49.1143 177.499C50.2613 178.381 51.0157 179.679 51.215 181.113C51.4143 182.546 51.0427 184.001 50.18 185.163C49.5106 186.084 48.5759 186.779 47.5008 187.154C46.4258 187.53 45.2617 187.568 44.1644 187.263L42.7716 186.894L41.1019 185.451C41.4938 183.216 41.0599 180.914 39.8812 178.976L41.0495 178.272L41.1483 178.086L42.678 177.151C43.6544 176.534 44.7984 176.236 45.9516 176.299C47.1048 176.361 48.2101 176.78 49.1143 177.499ZM38.8513 166.908C39.4564 167.75 39.8152 168.744 39.8875 169.779C39.9598 170.814 39.7428 171.848 39.2607 172.766L38.9974 173.262L38.0885 174.474L36.4187 175.573C34.4091 174.509 32.0807 174.213 29.8688 174.741L29.5766 173.447L29.07 171.51C28.7665 170.26 28.9068 168.944 29.4668 167.787C30.0268 166.63 30.9717 165.703 32.1398 165.166C33.3078 164.628 34.6263 164.514 35.8696 164.842C37.1128 165.169 38.2034 165.919 38.9546 166.963L38.8513 166.908Z" fill="white"/>
</g>
<g filter="url(#filter10_d_2377_20)">
<path d="M47.3043 281.556C48.8692 282.435 50.7163 282.666 52.4493 282.199C52.4842 283.949 53.1916 285.619 54.4246 286.861C55.6576 288.104 57.3216 288.825 59.0716 288.874C60.8216 288.922 62.5232 288.296 63.8236 287.123C65.1239 285.951 65.9232 284.324 66.0556 282.578C67.7552 283.142 69.6065 283.032 71.2271 282.27C72.4212 281.684 73.4178 280.762 74.0939 279.616C74.77 278.471 75.0961 277.153 75.032 275.824C74.9679 274.496 74.5164 273.215 73.7331 272.14C72.9498 271.065 71.869 270.243 70.624 269.775C71.4582 268.655 71.9311 267.308 71.9795 265.913C71.9835 265.521 71.9579 265.129 71.903 264.741C71.6846 263.151 70.9082 261.69 69.7123 260.62C68.5164 259.549 66.9789 258.939 65.3744 258.897C65.0429 258.867 64.7097 258.857 64.377 258.869C62.5876 259.1 60.9603 260.024 59.8443 261.441C58.7972 259.987 57.2246 258.997 55.4602 258.683C55.1286 258.652 54.7955 258.643 54.4627 258.655C53.2187 258.622 51.9894 258.931 50.9089 259.548C49.8284 260.166 48.938 261.068 48.3349 262.156C47.7317 263.245 47.439 264.478 47.4885 265.721C47.538 266.965 47.9279 268.171 48.6157 269.208C47.3406 269.598 46.2085 270.355 45.3602 271.384C44.5119 272.413 43.985 273.668 43.8449 274.994C43.7049 276.32 43.9579 277.658 44.5726 278.842C45.1872 280.025 46.1363 281.002 47.3017 281.65L47.3043 281.556ZM61.7771 284.986C61.0622 285.633 60.1249 285.979 59.1609 285.952C58.1968 285.926 57.2803 285.527 56.6026 284.841C56.0859 284.294 55.7438 283.605 55.62 282.863C55.4963 282.121 55.5964 281.358 55.9077 280.673L56.3386 279.765L57.3925 278.889C58.0183 279.126 58.6782 279.26 59.3467 279.287C60.2108 279.31 61.0704 279.154 61.8708 278.827L62.6875 280.862C62.9707 281.561 63.0353 282.329 62.8728 283.065C62.7102 283.801 62.3282 284.471 61.7771 284.986ZM71.5816 274.59C71.9082 275.365 71.9604 276.229 71.7297 277.038C71.4989 277.847 70.999 278.553 70.3126 279.039C69.6262 279.526 68.7943 279.764 67.9545 279.713C67.1148 279.663 66.3173 279.327 65.6941 278.762L64.949 278.071L64.4383 276.808C65.2482 275.786 65.7095 274.53 65.7548 273.226C65.7789 272.994 65.7854 272.759 65.7744 272.525L66.6316 272.549L67.9443 272.461C68.6953 272.403 69.4461 272.575 70.0962 272.956C70.7463 273.337 71.2646 273.907 71.5816 274.59ZM61.5592 264.827C61.77 264 62.2594 263.271 62.9447 262.763C63.6301 262.255 64.4697 261.998 65.3221 262.037C66.1745 262.075 66.9876 262.406 67.6244 262.974C68.2613 263.542 68.6831 264.312 68.8187 265.154C68.8279 265.373 68.8218 265.591 68.8004 265.809C68.7771 266.442 68.5885 267.058 68.2534 267.596C67.9183 268.134 67.4482 268.575 66.89 268.875L66.0795 269.414L64.6568 269.53C63.7976 268.262 62.5015 267.354 61.0157 266.98L61.5592 264.827ZM59.6074 269.936C60.224 269.953 60.8215 270.152 61.3246 270.509C61.8276 270.866 62.2136 271.364 62.4337 271.94C62.6537 272.516 62.698 273.145 62.5608 273.746C62.4237 274.347 62.1113 274.894 61.6632 275.318C61.2151 275.742 60.6514 276.023 60.0434 276.127C59.4354 276.23 58.8104 276.151 58.2474 275.899C57.6844 275.647 57.2087 275.234 56.8804 274.712C56.5522 274.19 56.3862 273.582 56.4034 272.966C56.4264 272.139 56.777 271.355 57.3778 270.787C57.9787 270.219 58.7807 269.912 59.6074 269.936ZM50.6765 264.664C50.8638 263.718 51.4154 262.882 52.2124 262.339C53.0094 261.795 53.9882 261.586 54.9378 261.757C55.6862 261.884 56.3781 262.236 56.9208 262.767C57.4635 263.298 57.8311 263.982 57.9745 264.727L58.1666 265.668L57.7994 267.093C56.3485 267.521 55.1027 268.462 54.294 269.741L53.5278 269.251L53.3875 269.247L52.3758 268.611C51.7181 268.211 51.2012 267.616 50.8967 266.908C50.5923 266.201 50.5153 265.417 50.6765 264.664ZM47.3921 273.931C47.7159 273.32 48.2034 272.811 48.7999 272.462C49.3964 272.112 50.0784 271.935 50.7697 271.951L51.1437 271.961L52.1369 272.145L53.288 272.817C53.2479 274.332 53.7612 275.81 54.7318 276.975L54.0456 277.533L53.0385 278.409C52.3822 278.961 51.5547 279.267 50.6976 279.275C49.8405 279.284 49.0072 278.994 48.3402 278.456C47.6732 277.917 47.2142 277.164 47.0416 276.324C46.869 275.484 46.9937 274.611 47.3943 273.853L47.3921 273.931Z" fill="white"/>
</g>
<g filter="url(#filter11_d_2377_20)">
<path d="M188.291 32.0283C187.349 33.5558 187.042 35.3918 187.438 37.1426C185.688 37.1057 183.99 37.7439 182.698 38.9248C181.406 40.1058 180.617 41.7389 180.497 43.4854C180.376 45.2319 180.933 46.9578 182.05 48.3052C183.168 49.6525 184.762 50.5179 186.501 50.7218C185.867 52.3969 185.902 54.2511 186.596 55.9016C187.132 57.1188 188.013 58.1524 189.13 58.8749C190.247 59.5975 191.55 59.9774 192.88 59.9679C194.21 59.9583 195.509 59.5597 196.615 58.8212C197.721 58.0826 198.587 57.0365 199.106 55.8118C200.19 56.6912 201.516 57.219 202.908 57.3246C203.3 57.3447 203.692 57.3352 204.082 57.2962C205.68 57.1433 207.172 56.4275 208.29 55.2765C209.409 54.1256 210.082 52.6144 210.189 51.013C210.234 50.683 210.257 50.3505 210.258 50.0175C210.101 48.2202 209.245 46.5563 207.874 45.3831C209.371 44.3965 210.424 42.8659 210.81 41.1159C210.854 40.7859 210.877 40.4533 210.879 40.1204C210.963 38.8788 210.705 37.6379 210.132 36.5329C209.56 35.428 208.695 34.5013 207.632 33.854C206.57 33.2067 205.349 32.8636 204.105 32.8621C202.86 32.8605 201.639 33.2006 200.575 33.8452C200.237 32.5552 199.528 31.393 198.535 30.5032C197.541 29.6134 196.308 29.0354 194.989 28.8411C193.67 28.6467 192.323 28.8447 191.115 29.4102C189.908 29.9758 188.893 30.884 188.198 32.0219L188.291 32.0283ZM184.271 46.3481C183.653 45.6073 183.345 44.6566 183.412 43.6945C183.478 42.7323 183.914 41.8329 184.627 41.1839C185.195 40.6901 185.897 40.3766 186.644 40.2834C187.391 40.1902 188.149 40.3216 188.82 40.6607L189.71 41.1285L190.542 42.2174C190.28 42.833 190.118 43.4868 190.064 44.1537C190.005 45.0161 190.127 45.8814 190.42 46.6945L188.353 47.427C187.644 47.6813 186.873 47.7144 186.144 47.5217C185.415 47.3291 184.762 46.9199 184.271 46.3481ZM194.255 56.571C193.467 56.8655 192.602 56.8822 191.803 56.6185C191.004 56.3547 190.319 55.8263 189.861 55.1205C189.404 54.4147 189.2 53.5738 189.285 52.7368C189.37 51.8997 189.738 51.1167 190.328 50.5172L191.05 49.8012L192.332 49.3427C193.32 50.1939 194.556 50.7063 195.856 50.805C196.088 50.8387 196.322 50.8548 196.556 50.8534L196.497 51.7089L196.532 53.0241C196.559 53.7768 196.355 54.52 195.949 55.1539C195.542 55.7878 194.951 56.2823 194.255 56.571ZM204.421 46.9577C205.238 47.2022 205.947 47.721 206.426 48.4267C206.906 49.1324 207.128 49.9818 207.054 50.8318C206.981 51.6819 206.617 52.4808 206.024 53.0938C205.43 53.7069 204.643 54.0967 203.796 54.1976C203.578 54.1978 203.359 54.1828 203.143 54.1525C202.511 54.1032 201.903 53.8895 201.379 53.5326C200.856 53.1756 200.434 52.6879 200.158 52.1178L199.652 51.2859L199.595 49.8597C200.897 49.0532 201.858 47.7954 202.292 46.3262L204.421 46.9577ZM199.397 44.7979C199.354 45.4132 199.13 46.0021 198.753 46.4901C198.376 46.9781 197.863 47.3433 197.278 47.5395C196.693 47.7357 196.064 47.7541 195.468 47.5924C194.873 47.4307 194.339 47.0962 193.934 46.6311C193.529 46.166 193.271 45.5912 193.193 44.9794C193.115 44.3677 193.219 43.7464 193.494 43.1942C193.769 42.642 194.201 42.1837 194.736 41.8772C195.271 41.5707 195.885 41.4297 196.501 41.4722C197.326 41.5292 198.094 41.9115 198.638 42.5352C199.181 43.1589 199.454 43.9728 199.397 44.7979ZM205.03 36.0908C205.968 36.3168 206.78 36.9021 207.291 37.7208C207.801 38.5395 207.97 39.526 207.76 40.4678C207.603 41.2104 207.222 41.8872 206.67 42.4077C206.117 42.9281 205.419 43.2674 204.668 43.3801L203.72 43.5334L202.311 43.108C201.943 41.6408 201.054 40.3574 199.81 39.497L200.33 38.7514L200.34 38.6114L201.017 37.6267C201.444 36.986 202.06 36.4939 202.779 36.2187C203.498 35.9435 204.285 35.8988 205.03 36.0908ZM195.906 32.4289C196.503 32.7775 196.991 33.2854 197.316 33.8958C197.641 34.5061 197.79 35.1948 197.746 35.8849L197.72 36.2582L197.496 37.243L196.778 38.3655C195.265 38.2633 193.767 38.7155 192.564 39.6376L192.035 38.929L191.2 37.8867C190.676 37.2085 190.404 36.3691 190.431 35.5124C190.457 34.6556 190.781 33.8348 191.346 33.1905C191.912 32.5462 192.683 32.1185 193.529 31.9805C194.375 31.8425 195.243 32.003 195.984 32.4343L195.906 32.4289Z" fill="white"/>
</g>
<g filter="url(#filter12_d_2377_20)">
<path d="M519.029 398.428C516.872 400.04 515.432 402.432 515.019 405.092C512.598 404.076 509.878 404.031 507.424 404.966C504.97 405.901 502.97 407.744 501.839 410.114C500.708 412.484 500.533 415.198 501.349 417.694C502.166 420.19 503.912 422.276 506.225 423.519C504.418 425.506 503.444 428.112 503.503 430.797C503.58 432.791 504.239 434.719 505.398 436.342C506.557 437.966 508.167 439.215 510.027 439.934C511.888 440.654 513.919 440.814 515.869 440.394C517.819 439.973 519.604 438.991 521.003 437.569C522.03 439.393 523.59 440.861 525.474 441.776C526.009 442.02 526.562 442.223 527.127 442.383C529.44 443.051 531.915 442.875 534.111 441.886C536.306 440.897 538.078 439.16 539.111 436.985C539.354 436.549 539.569 436.098 539.755 435.634C540.527 433.04 540.25 430.247 538.985 427.855C541.616 427.304 543.929 425.749 545.433 423.521C545.676 423.085 545.892 422.634 546.078 422.17C546.88 420.484 547.204 418.611 547.014 416.754C546.825 414.897 546.129 413.127 545.004 411.639C543.878 410.15 542.365 408.998 540.63 408.31C538.894 407.622 537.004 407.423 535.163 407.735C535.403 405.75 535.054 403.737 534.159 401.948C533.264 400.16 531.863 398.673 530.13 397.675C528.397 396.677 526.408 396.21 524.412 396.333C522.416 396.456 520.499 397.164 518.902 398.368L519.029 398.428ZM505.525 416.188C505.072 414.814 505.167 413.318 505.79 412.013C506.414 410.707 507.517 409.693 508.87 409.181C509.934 408.805 511.087 408.755 512.18 409.036C513.273 409.318 514.258 409.919 515.008 410.763L515.992 411.906L516.551 413.883C515.846 414.597 515.261 415.421 514.817 416.321C514.26 417.492 513.952 418.765 513.913 420.062L510.626 419.944C509.496 419.908 508.403 419.529 507.492 418.858C506.582 418.188 505.896 417.257 505.525 416.188ZM513.818 435.954C512.556 435.93 511.34 435.477 510.371 434.668C509.402 433.86 508.738 432.745 508.488 431.508C508.239 430.271 508.419 428.986 508.999 427.865C509.578 426.744 510.523 425.855 511.677 425.344L513.078 424.743L515.12 424.81C516.03 426.542 517.47 427.938 519.231 428.793C519.535 428.968 519.853 429.119 520.18 429.246L519.626 430.407L518.949 432.261C518.572 433.326 517.879 434.251 516.962 434.911C516.044 435.571 514.948 435.934 513.818 435.954ZM533.299 428.148C534.305 428.94 535.007 430.054 535.287 431.303C535.567 432.551 535.408 433.859 534.837 435.004C534.266 436.15 533.318 437.063 532.152 437.591C530.986 438.119 529.674 438.229 528.436 437.903C528.131 437.783 527.835 437.641 527.55 437.48C526.696 437.063 525.965 436.429 525.431 435.643C524.898 434.856 524.579 433.944 524.507 432.996L524.261 431.557L524.966 429.535C527.228 429.128 529.261 427.903 530.678 426.093L533.299 428.148ZM527.481 422.365C527.083 423.2 526.446 423.898 525.651 424.371C524.856 424.844 523.938 425.07 523.014 425.021C522.09 424.973 521.202 424.651 520.461 424.098C519.719 423.544 519.159 422.783 518.85 421.911C518.542 421.038 518.499 420.094 518.727 419.198C518.955 418.301 519.443 417.492 520.131 416.873C520.819 416.255 521.674 415.854 522.59 415.721C523.506 415.588 524.44 415.73 525.275 416.129C526.394 416.663 527.256 417.62 527.67 418.79C528.084 419.959 528.016 421.245 527.481 422.365ZM540.141 413.324C541.325 414.157 542.134 415.421 542.395 416.844C542.656 418.268 542.348 419.737 541.536 420.935C540.907 421.884 540.003 422.619 538.945 423.04C537.887 423.462 536.726 423.55 535.616 423.293L534.209 422.984L532.479 421.614C532.774 419.364 532.241 417.084 530.98 415.198L532.117 414.445L532.207 414.255L533.695 413.254C534.644 412.596 535.774 412.249 536.929 412.262C538.084 412.274 539.206 412.645 540.141 413.324ZM529.431 403.185C530.072 404.001 530.473 404.979 530.59 406.009C530.707 407.04 530.534 408.083 530.092 409.021L529.851 409.528L528.995 410.778L527.374 411.948C525.32 410.971 522.981 410.776 520.794 411.399L520.447 410.119L519.857 408.205C519.5 406.97 519.583 405.649 520.093 404.468C520.602 403.288 521.507 402.321 522.65 401.734C523.794 401.147 525.107 400.976 526.363 401.25C527.619 401.524 528.741 402.226 529.536 403.236L529.431 403.185Z" fill="white"/>
</g>
<g filter="url(#filter13_d_2377_20)">
<path d="M396.51 435.179C395.567 436.706 395.261 438.542 395.657 440.293C393.906 440.256 392.209 440.894 390.917 442.075C389.624 443.256 388.836 444.889 388.716 446.636C388.595 448.382 389.151 450.108 390.269 451.456C391.387 452.803 392.981 453.668 394.719 453.872C394.086 455.547 394.12 457.402 394.815 459.052C395.351 460.269 396.232 461.303 397.349 462.025C398.465 462.748 399.769 463.128 401.099 463.118C402.429 463.109 403.727 462.71 404.834 461.972C405.94 461.233 406.806 460.187 407.324 458.962C408.408 459.842 409.735 460.369 411.127 460.475C411.519 460.495 411.911 460.486 412.301 460.447C413.899 460.294 415.39 459.578 416.509 458.427C417.628 457.276 418.301 455.765 418.408 454.163C418.452 453.833 418.475 453.501 418.477 453.168C418.32 451.371 417.464 449.707 416.093 448.533C417.589 447.547 418.642 446.016 419.029 444.266C419.073 443.936 419.096 443.604 419.098 443.271C419.182 442.029 418.924 440.788 418.351 439.683C417.779 438.578 416.914 437.652 415.851 437.004C414.788 436.357 413.568 436.014 412.324 436.012C411.079 436.011 409.858 436.351 408.794 436.996C408.456 435.706 407.747 434.543 406.753 433.654C405.76 432.764 404.527 432.186 403.208 431.991C401.889 431.797 400.542 431.995 399.334 432.561C398.126 433.126 397.112 434.034 396.417 435.172L396.51 435.179ZM392.489 449.499C391.872 448.758 391.564 447.807 391.631 446.845C391.697 445.883 392.132 444.983 392.846 444.334C393.414 443.84 394.116 443.527 394.863 443.434C395.61 443.341 396.367 443.472 397.039 443.811L397.929 444.279L398.76 445.368C398.498 445.983 398.337 446.637 398.283 447.304C398.224 448.167 398.345 449.032 398.639 449.845L396.572 450.577C395.862 450.832 395.092 450.865 394.363 450.672C393.634 450.479 392.981 450.07 392.489 449.499ZM402.474 459.721C401.686 460.016 400.821 460.033 400.022 459.769C399.223 459.505 398.538 458.977 398.08 458.271C397.622 457.565 397.419 456.724 397.504 455.887C397.589 455.05 397.957 454.267 398.547 453.668L399.268 452.952L400.55 452.493C401.539 453.344 402.774 453.857 404.075 453.955C404.307 453.989 404.541 454.005 404.775 454.004L404.716 454.859L404.75 456.174C404.778 456.927 404.574 457.67 404.167 458.304C403.76 458.938 403.17 459.433 402.474 459.721ZM412.64 450.108C413.457 450.353 414.165 450.871 414.645 451.577C415.125 452.283 415.347 453.132 415.273 453.982C415.2 454.832 414.836 455.631 414.242 456.244C413.649 456.857 412.862 457.247 412.015 457.348C411.796 457.348 411.578 457.333 411.362 457.303C410.73 457.254 410.122 457.04 409.598 456.683C409.074 456.326 408.653 455.838 408.376 455.268L407.871 454.436L407.813 453.01C409.116 452.204 410.076 450.946 410.511 449.477L412.64 450.108ZM407.616 447.948C407.573 448.564 407.349 449.152 406.972 449.64C406.595 450.128 406.082 450.494 405.497 450.69C404.912 450.886 404.282 450.905 403.687 450.743C403.092 450.581 402.558 450.247 402.153 449.781C401.748 449.316 401.49 448.742 401.412 448.13C401.333 447.518 401.438 446.897 401.713 446.345C401.987 445.792 402.42 445.334 402.955 445.028C403.49 444.721 404.104 444.58 404.719 444.623C405.545 444.68 406.313 445.062 406.856 445.686C407.4 446.309 407.673 447.123 407.616 447.948ZM413.249 439.241C414.187 439.467 414.999 440.053 415.51 440.871C416.02 441.69 416.189 442.676 415.979 443.618C415.822 444.361 415.441 445.038 414.889 445.558C414.336 446.079 413.637 446.418 412.887 446.53L411.938 446.684L410.53 446.258C410.162 444.791 409.273 443.508 408.028 442.647L408.549 441.902L408.558 441.762L409.236 440.777C409.663 440.136 410.279 439.644 410.998 439.369C411.717 439.094 412.504 439.049 413.249 439.241ZM404.125 435.579C404.722 435.928 405.21 436.436 405.535 437.046C405.86 437.656 406.009 438.345 405.965 439.035L405.939 439.409L405.715 440.393L404.996 441.516C403.484 441.414 401.986 441.866 400.783 442.788L400.253 442.079L399.419 441.037C398.895 440.359 398.623 439.519 398.649 438.663C398.676 437.806 399 436.985 399.565 436.341C400.131 435.697 400.902 435.269 401.748 435.131C402.594 434.993 403.462 435.153 404.202 435.585L404.125 435.579Z" fill="white"/>
</g>
<defs>
<filter id="filter0_d_2377_20" x="95.4844" y="193.154" width="418.645" height="322.098" filterUnits="userSpaceOnUse" color-interpolation-filters="sRGB">
<feFlood flood-opacity="0" result="BackgroundImageFix"/>
<feColorMatrix in="SourceAlpha" type="matrix" values="0 0 0 0 0 0 0 0 0 0 0 0 0 0 0 0 0 0 127 0" result="hardAlpha"/>
<feOffset dy="4"/>
<feGaussianBlur stdDeviation="2"/>
<feComposite in2="hardAlpha" operator="out"/>
<feColorMatrix type="matrix" values="0 0 0 0 0 0 0 0 0 0 0 0 0 0 0 0 0 0 0.25 0"/>
<feBlend mode="normal" in2="BackgroundImageFix" result="effect1_dropShadow_2377_20"/>
<feBlend mode="normal" in="SourceGraphic" in2="effect1_dropShadow_2377_20" result="shape"/>
</filter>
<filter id="filter1_d_2377_20" x="227.262" y="112.305" width="219.852" height="231.57" filterUnits="userSpaceOnUse" color-interpolation-filters="sRGB">
<feFlood flood-opacity="0" result="BackgroundImageFix"/>
<feColorMatrix in="SourceAlpha" type="matrix" values="0 0 0 0 0 0 0 0 0 0 0 0 0 0 0 0 0 0 127 0" result="hardAlpha"/>
<feOffset dy="4"/>
<feGaussianBlur stdDeviation="2"/>
<feComposite in2="hardAlpha" operator="out"/>
<feColorMatrix type="matrix" values="0 0 0 0 0 0 0 0 0 0 0 0 0 0 0 0 0 0 0.25 0"/>
<feBlend mode="normal" in2="BackgroundImageFix" result="effect1_dropShadow_2377_20"/>
<feBlend mode="normal" in="SourceGraphic" in2="effect1_dropShadow_2377_20" result="shape"/>
</filter>
<filter id="filter2_d_2377_20" x="227.262" y="106.305" width="219.852" height="231.57" filterUnits="userSpaceOnUse" color-interpolation-filters="sRGB">
<feFlood flood-opacity="0" result="BackgroundImageFix"/>
<feColorMatrix in="SourceAlpha" type="matrix" values="0 0 0 0 0 0 0 0 0 0 0 0 0 0 0 0 0 0 127 0" result="hardAlpha"/>
<feOffset dy="-2"/>
<feGaussianBlur stdDeviation="2"/>
<feComposite in2="hardAlpha" operator="out"/>
<feColorMatrix type="matrix" values="0 0 0 0 0 0 0 0 0 0 0 0 0 0 0 0 0 0 0.1 0"/>
<feBlend mode="normal" in2="BackgroundImageFix" result="effect1_dropShadow_2377_20"/>
<feBlend mode="normal" in="SourceGraphic" in2="effect1_dropShadow_2377_20" result="shape"/>
</filter>
<filter id="filter3_d_2377_20" x="278.625" y="167.176" width="37.2227" height="60.7832" filterUnits="userSpaceOnUse" color-interpolation-filters="sRGB">
<feFlood flood-opacity="0" result="BackgroundImageFix"/>
<feColorMatrix in="SourceAlpha" type="matrix" values="0 0 0 0 0 0 0 0 0 0 0 0 0 0 0 0 0 0 127 0" result="hardAlpha"/>
<feOffset dy="2"/>
<feGaussianBlur stdDeviation="2"/>
<feComposite in2="hardAlpha" operator="out"/>
<feColorMatrix type="matrix" values="0 0 0 0 0 0 0 0 0 0 0 0 0 0 0 0 0 0 0.25 0"/>
<feBlend mode="normal" in2="BackgroundImageFix" result="effect1_dropShadow_2377_20"/>
<feBlend mode="normal" in="SourceGraphic" in2="effect1_dropShadow_2377_20" result="shape"/>
</filter>
<filter id="filter4_d_2377_20" x="329.938" y="261.986" width="52.9258" height="47.3965" filterUnits="userSpaceOnUse" color-interpolation-filters="sRGB">
<feFlood flood-opacity="0" result="BackgroundImageFix"/>
<feColorMatrix in="SourceAlpha" type="matrix" values="0 0 0 0 0 0 0 0 0 0 0 0 0 0 0 0 0 0 127 0" result="hardAlpha"/>
<feOffset dy="2"/>
<feGaussianBlur stdDeviation="2"/>
<feComposite in2="hardAlpha" operator="out"/>
<feColorMatrix type="matrix" values="0 0 0 0 0 0 0 0 0 0 0 0 0 0 0 0 0 0 0.25 0"/>
<feBlend mode="normal" in2="BackgroundImageFix" result="effect1_dropShadow_2377_20"/>
<feBlend mode="normal" in="SourceGraphic" in2="effect1_dropShadow_2377_20" result="shape"/>
</filter>
<filter id="filter5_d_2377_20" x="103.594" y="144.184" width="79.5391" height="82.7617" filterUnits="userSpaceOnUse" color-interpolation-filters="sRGB">
<feFlood flood-opacity="0" result="BackgroundImageFix"/>
<feColorMatrix in="SourceAlpha" type="matrix" values="0 0 0 0 0 0 0 0 0 0 0 0 0 0 0 0 0 0 127 0" result="hardAlpha"/>
<feOffset dy="4"/>
<feGaussianBlur stdDeviation="2"/>
<feComposite in2="hardAlpha" operator="out"/>
<feColorMatrix type="matrix" values="0 0 0 0 0 0 0 0 0 0 0 0 0 0 0 0 0 0 0.25 0"/>
<feBlend mode="normal" in2="BackgroundImageFix" result="effect1_dropShadow_2377_20"/>
<feBlend mode="normal" in="SourceGraphic" in2="effect1_dropShadow_2377_20" result="shape"/>
</filter>
<filter id="filter6_d_2377_20" x="283.832" y="319.266" width="63.9883" height="98.9375" filterUnits="userSpaceOnUse" color-interpolation-filters="sRGB">
<feFlood flood-opacity="0" result="BackgroundImageFix"/>
<feColorMatrix in="SourceAlpha" type="matrix" values="0 0 0 0 0 0 0 0 0 0 0 0 0 0 0 0 0 0 127 0" result="hardAlpha"/>
<feOffset dy="4"/>
<feGaussianBlur stdDeviation="2"/>
<feComposite in2="hardAlpha" operator="out"/>
<feColorMatrix type="matrix" values="0 0 0 0 0 0 0 0 0 0 0 0 0 0 0 0 0 0 0.25 0"/>
<feBlend mode="normal" in2="BackgroundImageFix" result="effect1_dropShadow_2377_20"/>
<feBlend mode="normal" in="SourceGraphic" in2="effect1_dropShadow_2377_20" result="shape"/>
</filter>
<filter id="filter7_d_2377_20" x="101.273" y="201.523" width="192.715" height="170.793" filterUnits="userSpaceOnUse" color-interpolation-filters="sRGB">
<feFlood flood-opacity="0" result="BackgroundImageFix"/>
<feColorMatrix in="SourceAlpha" type="matrix" values="0 0 0 0 0 0 0 0 0 0 0 0 0 0 0 0 0 0 127 0" result="hardAlpha"/>
<feOffset dy="4"/>
<feGaussianBlur stdDeviation="2"/>
<feComposite in2="hardAlpha" operator="out"/>
<feColorMatrix type="matrix" values="0 0 0 0 0 0 0 0 0 0 0 0 0 0 0 0 0 0 0.25 0"/>
<feBlend mode="normal" in2="BackgroundImageFix" result="effect1_dropShadow_2377_20"/>
<feBlend mode="normal" in="SourceGraphic" in2="effect1_dropShadow_2377_20" result="shape"/>
</filter>
<filter id="filter8_d_2377_20" x="494.148" y="47.1602" width="150.609" height="132.637" filterUnits="userSpaceOnUse" color-interpolation-filters="sRGB">
<feFlood flood-opacity="0" result="BackgroundImageFix"/>
<feColorMatrix in="SourceAlpha" type="matrix" values="0 0 0 0 0 0 0 0 0 0 0 0 0 0 0 0 0 0 127 0" result="hardAlpha"/>
<feOffset dy="4"/>
<feGaussianBlur stdDeviation="2"/>
<feComposite in2="hardAlpha" operator="out"/>
<feColorMatrix type="matrix" values="0 0 0 0 0 0 0 0 0 0 0 0 0 0 0 0 0 0 0.25 0"/>
<feBlend mode="normal" in2="BackgroundImageFix" result="effect1_dropShadow_2377_20"/>
<feBlend mode="normal" in="SourceGraphic" in2="effect1_dropShadow_2377_20" result="shape"/>
</filter>
<filter id="filter9_d_2377_20" x="5.79297" y="159.844" width="54.0586" height="54.6543" filterUnits="userSpaceOnUse" color-interpolation-filters="sRGB">
<feFlood flood-opacity="0" result="BackgroundImageFix"/>
<feColorMatrix in="SourceAlpha" type="matrix" values="0 0 0 0 0 0 0 0 0 0 0 0 0 0 0 0 0 0 127 0" result="hardAlpha"/>
<feOffset dy="4"/>
<feGaussianBlur stdDeviation="2"/>
<feComposite in2="hardAlpha" operator="out"/>
<feColorMatrix type="matrix" values="0 0 0 0 0 0 0 0 0 0 0 0 0 0 0 0 0 0 0.25 0"/>
<feBlend mode="normal" in2="BackgroundImageFix" result="effect1_dropShadow_2377_20"/>
<feBlend mode="normal" in="SourceGraphic" in2="effect1_dropShadow_2377_20" result="shape"/>
</filter>
<filter id="filter10_d_2377_20" x="39.8086" y="258.65" width="39.2305" height="38.2266" filterUnits="userSpaceOnUse" color-interpolation-filters="sRGB">
<feFlood flood-opacity="0" result="BackgroundImageFix"/>
<feColorMatrix in="SourceAlpha" type="matrix" values="0 0 0 0 0 0 0 0 0 0 0 0 0 0 0 0 0 0 127 0" result="hardAlpha"/>
<feOffset dy="4"/>
<feGaussianBlur stdDeviation="2"/>
<feComposite in2="hardAlpha" operator="out"/>
<feColorMatrix type="matrix" values="0 0 0 0 0 0 0 0 0 0 0 0 0 0 0 0 0 0 0.25 0"/>
<feBlend mode="normal" in2="BackgroundImageFix" result="effect1_dropShadow_2377_20"/>
<feBlend mode="normal" in="SourceGraphic" in2="effect1_dropShadow_2377_20" result="shape"/>
</filter>
<filter id="filter11_d_2377_20" x="176.48" y="28.7676" width="38.4141" height="39.2012" filterUnits="userSpaceOnUse" color-interpolation-filters="sRGB">
<feFlood flood-opacity="0" result="BackgroundImageFix"/>
<feColorMatrix in="SourceAlpha" type="matrix" values="0 0 0 0 0 0 0 0 0 0 0 0 0 0 0 0 0 0 127 0" result="hardAlpha"/>
<feOffset dy="4"/>
<feGaussianBlur stdDeviation="2"/>
<feComposite in2="hardAlpha" operator="out"/>
<feColorMatrix type="matrix" values="0 0 0 0 0 0 0 0 0 0 0 0 0 0 0 0 0 0 0.25 0"/>
<feBlend mode="normal" in2="BackgroundImageFix" result="effect1_dropShadow_2377_20"/>
<feBlend mode="normal" in="SourceGraphic" in2="effect1_dropShadow_2377_20" result="shape"/>
</filter>
<filter id="filter12_d_2377_20" x="496.844" y="396.314" width="54.2227" height="54.4668" filterUnits="userSpaceOnUse" color-interpolation-filters="sRGB">
<feFlood flood-opacity="0" result="BackgroundImageFix"/>
<feColorMatrix in="SourceAlpha" type="matrix" values="0 0 0 0 0 0 0 0 0 0 0 0 0 0 0 0 0 0 127 0" result="hardAlpha"/>
<feOffset dy="4"/>
<feGaussianBlur stdDeviation="2"/>
<feComposite in2="hardAlpha" operator="out"/>
<feColorMatrix type="matrix" values="0 0 0 0 0 0 0 0 0 0 0 0 0 0 0 0 0 0 0.25 0"/>
<feBlend mode="normal" in2="BackgroundImageFix" result="effect1_dropShadow_2377_20"/>
<feBlend mode="normal" in="SourceGraphic" in2="effect1_dropShadow_2377_20" result="shape"/>
</filter>
<filter id="filter13_d_2377_20" x="384.699" y="431.918" width="38.4141" height="39.2012" filterUnits="userSpaceOnUse" color-interpolation-filters="sRGB">
<feFlood flood-opacity="0" result="BackgroundImageFix"/>
<feColorMatrix in="SourceAlpha" type="matrix" values="0 0 0 0 0 0 0 0 0 0 0 0 0 0 0 0 0 0 127 0" result="hardAlpha"/>
<feOffset dy="4"/>
<feGaussianBlur stdDeviation="2"/>
<feComposite in2="hardAlpha" operator="out"/>
<feColorMatrix type="matrix" values="0 0 0 0 0 0 0 0 0 0 0 0 0 0 0 0 0 0 0.25 0"/>
<feBlend mode="normal" in2="BackgroundImageFix" result="effect1_dropShadow_2377_20"/>
<feBlend mode="normal" in="SourceGraphic" in2="effect1_dropShadow_2377_20" result="shape"/>
</filter>
<linearGradient id="paint0_linear_2377_20" x1="424.267" y1="88.3683" x2="424.267" y2="150.878" gradientUnits="userSpaceOnUse">
<stop stop-color="white"/>
<stop offset="1" stop-color="#C4DDFC"/>
</linearGradient>
<linearGradient id="paint1_linear_2377_20" x1="384.284" y1="101.441" x2="384.284" y2="233.963" gradientUnits="userSpaceOnUse">
<stop/>
<stop offset="1" stop-color="#666666"/>
</linearGradient>
<linearGradient id="paint2_linear_2377_20" x1="422.083" y1="153.867" x2="267.869" y2="277.306" gradientUnits="userSpaceOnUse">
<stop stop-color="white" stop-opacity="0"/>
<stop offset="1" stop-color="#6AABFF" stop-opacity="0.45"/>
</linearGradient>
<linearGradient id="paint3_linear_2377_20" x1="316.672" y1="238.249" x2="267.871" y2="277.312" gradientUnits="userSpaceOnUse">
<stop stop-color="white" stop-opacity="0"/>
<stop offset="1" stop-color="#6A90F9"/>
</linearGradient>
<linearGradient id="paint4_linear_2377_20" x1="98.9834" y1="173.872" x2="168.181" y2="225.261" gradientUnits="userSpaceOnUse">
<stop stop-color="white" stop-opacity="0"/>
<stop offset="1" stop-color="#6AABFF" stop-opacity="0.8"/>
</linearGradient>
<linearGradient id="paint5_linear_2377_20" x1="346.016" y1="400.907" x2="322.981" y2="317.849" gradientUnits="userSpaceOnUse">
<stop stop-color="white" stop-opacity="0"/>
<stop offset="1" stop-color="#6AABFF" stop-opacity="0.8"/>
</linearGradient>
<linearGradient id="paint6_linear_2377_20" x1="107.625" y1="317.426" x2="238.104" y2="264.879" gradientUnits="userSpaceOnUse">
<stop stop-color="white" stop-opacity="0"/>
<stop offset="1" stop-color="#6AABFF" stop-opacity="0.8"/>
</linearGradient>
</defs>
</svg>
