<svg width="850" height="565" viewBox="0 0 741 565" fill="none" xmlns="http://www.w3.org/2000/svg">
<path d="M358 565C544.12 565 695 554.255 695 541C695 527.745 544.12 517 358 517C171.88 517 21 527.745 21 541C21 554.255 171.88 565 358 565Z" fill="#EDE4DD"/>
<g filter="url(#filter0_d_2073_1114)">
<path d="M615.051 291.89C606.908 286.899 600.117 280.673 604.794 278.31C609.476 275.944 620.959 286.879 625.276 298.322L627.675 301.864C624.384 293.579 624.786 282.417 628.985 280.941C633.157 279.475 632.215 286.881 630.226 293.502C628.712 298.542 628.876 302.188 629.142 304.028L640.474 320.755C635.299 307.621 635.953 290.003 642.596 287.668C649.217 285.342 647.721 297.093 644.565 307.599C642.18 315.537 642.419 321.3 642.836 324.24L645.096 327.576C644.579 328.058 644.059 328.538 643.537 329.014L630.055 309.115C628.193 308.321 625.455 307.48 621.768 307.154C614.882 306.547 607.655 304.676 610.563 301.344C613.087 298.453 621.255 300.855 627.607 305.501L622.945 298.62C621.139 296.736 618.566 294.044 615.051 291.89Z" fill="#FCB13A"/>
</g>
<path d="M621.344 329.679C613.201 324.688 606.41 318.462 611.087 316.099C615.769 313.733 627.252 324.668 631.569 336.111L633.968 339.653C630.677 331.368 631.079 320.206 635.278 318.73C639.45 317.264 638.507 324.67 636.519 331.291C635.005 336.331 635.169 339.977 635.435 341.817L646.767 358.544C641.592 345.41 642.246 327.792 648.889 325.457C655.51 323.131 654.014 334.882 650.858 345.388C648.473 353.326 648.712 359.089 649.129 362.03L651.389 365.365C650.872 365.847 650.352 366.327 649.83 366.803L636.348 346.904C634.486 346.11 631.748 345.269 628.061 344.943C621.175 344.336 613.948 342.465 616.856 339.134C619.38 336.242 627.548 338.644 633.9 343.29L629.238 336.409C627.432 334.525 624.859 331.833 621.344 329.679Z" fill="#F99900"/>
<g filter="url(#filter1_d_2073_1114)">
<path d="M736.984 293.827C736.77 294.097 736.55 294.348 736.324 294.572C729.833 301.004 718.579 276.377 728.979 251.731C739.377 227.085 730.81 194.528 716.865 193.26C702.92 191.99 715.044 213.651 697.069 210.326C679.094 207.003 676.324 159.119 653.128 161.76C632.826 164.069 645.838 199.535 655.923 214.479C665.438 228.584 662.613 242.928 651.931 239.793C641.251 236.661 630.574 251.489 646.476 274.515C662.377 297.542 683.914 320.461 673.55 323.104C663.185 325.753 641.624 303.116 632.438 329.906C628.331 341.878 654.42 383.316 712.321 386.594L736.986 359.879L736.984 293.827Z" fill="#FCB13A"/>
<path d="M730.196 359.878C705.754 295.002 664.668 195.608 664.17 194.399C663.853 193.638 664.214 192.759 664.977 192.444C665.742 192.127 666.617 192.493 666.932 193.258C667.434 194.475 708.971 294.956 733.392 359.88L730.196 359.878Z" fill="#ED7C00"/>
<path d="M693.765 264.865C693.521 264.843 693.276 264.76 693.06 264.611C692.378 264.144 692.2 263.214 692.667 262.531C692.796 262.343 705.582 243.482 709.376 229.88C709.598 229.083 710.425 228.619 711.219 228.841C712.014 229.063 712.481 229.888 712.259 230.684C708.33 244.762 695.675 263.428 695.14 264.217C694.821 264.683 694.288 264.912 693.765 264.865Z" fill="#ED7C00"/>
<path d="M699.277 280.815C699.246 280.813 699.216 280.809 699.188 280.804C698.271 280.665 676.588 277.318 661.891 269.272C661.167 268.876 660.9 267.966 661.298 267.241C661.696 266.516 662.604 266.25 663.329 266.647C677.553 274.435 699.416 277.812 699.636 277.847C700.454 277.97 701.015 278.733 700.892 279.551C700.771 280.334 700.058 280.885 699.277 280.815Z" fill="#ED7C00"/>
<path d="M736.994 326.826C730.687 334.401 723.942 340.236 723.827 340.333C723.199 340.872 723.128 341.817 723.665 342.443C723.93 342.75 724.291 342.925 724.665 342.96C725.054 342.994 725.456 342.879 725.775 342.604C726.195 342.245 731.426 337.721 736.994 331.448V326.826Z" fill="#ED7C00"/>
<path d="M705.995 355.856C697.471 355.081 688.087 353.448 680.368 350.161C679.607 349.838 679.254 348.959 679.577 348.198C679.9 347.437 680.78 347.084 681.539 347.407C699.96 355.246 729.449 353.262 729.744 353.242C730.566 353.183 731.285 353.805 731.343 354.629C731.402 355.454 730.782 356.169 729.956 356.228C729.221 356.282 718.541 356.999 705.995 355.856Z" fill="#ED7C00"/>
</g>
<g filter="url(#filter2_d_2073_1114)">
<path d="M670.428 66.8827C665.257 46.024 656.517 27.2262 648.27 35.6531C640.014 44.0876 655.665 76.1496 677.275 93.1858L683.241 100.739C667.708 88.0482 643.493 81.3249 637.474 89.3282C631.494 97.2811 648.02 100.293 663.573 100.526C675.411 100.704 683.121 103.534 686.887 105.356L715.061 141.03C690.408 121.004 652.174 110.432 642.652 123.095C633.163 135.714 659.384 140.492 684.063 140.863C702.711 141.144 714.91 145.572 720.933 148.465L726.551 155.578C727.938 154.797 729.318 154.009 730.695 153.212L697.176 110.77C696.739 106.237 696.796 99.7933 698.603 91.6644C701.981 76.4815 702.88 59.7081 693.757 63.6814C685.841 67.1304 685.441 86.2815 691.089 103.065L679.497 88.3877C676.686 83.2337 672.658 75.8855 670.428 66.8827Z" fill="#FCB13A"/>
</g>
<g filter="url(#filter3_d_2073_1114)">
<path d="M98.9567 291.888C107.1 286.897 113.891 280.671 109.214 278.308C104.532 275.942 93.0486 286.877 88.7318 298.32L86.3325 301.862C89.6241 293.577 89.2219 282.415 85.023 280.939C80.8506 279.473 81.7933 286.879 83.7821 293.5C85.2963 298.54 85.1322 302.186 84.8658 304.026L73.5334 320.753C78.7086 307.619 78.0551 290.001 71.4116 287.666C64.7912 285.34 66.2869 297.091 69.4428 307.597C71.8275 315.535 71.589 321.298 71.1717 324.239L68.9122 327.574C69.4292 328.056 69.9486 328.536 70.4712 329.012L83.9531 309.113C85.8149 308.319 88.5529 307.478 92.2396 307.152C99.1257 306.545 106.353 304.674 103.445 301.343C100.921 298.451 92.7532 300.853 86.4006 305.499L91.063 298.618C92.8692 296.734 95.4418 294.042 98.9567 291.888Z" fill="#FCB13A"/>
</g>
<path d="M92.6559 329.679C100.799 324.688 107.59 318.462 102.913 316.099C98.2309 313.733 86.7478 324.668 82.431 336.111L80.0317 339.653C83.3233 331.368 82.9211 320.206 78.7222 318.73C74.5499 317.264 75.4925 324.67 77.4813 331.291C78.9955 336.331 78.8314 339.977 78.565 341.817L67.2327 358.544C72.4078 345.41 71.7543 327.792 65.1108 325.457C58.4904 323.131 59.9862 334.882 63.1421 345.388C65.5268 353.326 65.2882 359.089 64.8709 362.03L62.6115 365.365C63.1285 365.847 63.6478 366.327 64.1704 366.803L77.6524 346.904C79.5141 346.11 82.2521 345.269 85.9388 344.943C92.825 344.336 100.052 342.465 97.1442 339.134C94.6202 336.242 86.4524 338.644 80.0998 343.29L84.7622 336.409C86.5684 334.525 89.141 331.833 92.6559 329.679Z" fill="#FCB13A"/>
<g filter="url(#filter4_d_2073_1114)">
<path d="M-22.9883 293.827C-22.7743 294.097 -22.5542 294.348 -22.3281 294.572C-15.8371 301.004 -4.58333 276.377 -14.9831 251.731C-25.3808 227.085 -16.8143 194.528 -2.86922 193.26C11.0758 191.99 -1.0481 213.651 16.9268 210.326C34.9017 207.003 37.6718 159.119 60.8678 161.76C81.1706 164.069 68.1583 199.535 58.0735 214.479C48.5581 228.584 51.3826 242.928 62.065 239.793C72.7454 236.661 83.4217 251.489 67.5203 274.515C51.6188 297.542 30.0825 320.461 40.4458 323.104C50.8113 325.753 72.3719 303.116 81.5582 329.906C85.6648 341.878 59.5756 383.316 1.67549 386.594L-22.9903 359.879L-22.9883 293.827Z" fill="#FCB13A"/>
<path d="M-16.2039 359.878C8.23782 295.002 49.3239 195.608 49.8226 194.399C50.1396 193.638 49.7782 192.759 49.015 192.444C48.2498 192.127 47.3756 192.493 47.0607 193.258C46.5579 194.475 5.02159 294.956 -19.3999 359.88L-16.2039 359.878Z" fill="#ED7C00"/>
<path d="M20.2312 264.865C20.4755 264.843 20.7198 264.76 20.9358 264.611C21.6182 264.144 21.7959 263.214 21.3295 262.531C21.2003 262.343 8.41414 243.482 4.62049 229.88C4.3984 229.083 3.57062 228.619 2.77716 228.841C1.98168 229.063 1.5153 229.888 1.73739 230.684C5.66631 244.762 18.3212 263.428 18.8563 264.217C19.1753 264.683 19.7083 264.912 20.2312 264.865Z" fill="#ED7C00"/>
<path d="M14.7154 280.815C14.7457 280.813 14.776 280.809 14.8043 280.804C15.7209 280.665 37.4046 277.318 52.1008 269.272C52.8256 268.876 53.0921 267.966 52.6943 267.241C52.2966 266.516 51.3881 266.25 50.6632 266.647C36.4396 274.435 14.5761 277.812 14.356 277.847C13.5384 277.97 12.9771 278.733 13.1002 279.551C13.2214 280.334 13.9341 280.885 14.7154 280.815Z" fill="#ED7C00"/>
<path d="M7.99724 355.856C16.5213 355.081 25.9055 353.448 33.6241 350.161C34.3852 349.838 34.7385 348.959 34.4155 348.198C34.0925 347.437 33.2122 347.084 32.4531 347.407C14.0319 355.246 -15.4572 353.262 -15.7519 353.242C-16.5737 353.183 -17.2924 353.805 -17.351 354.629C-17.4095 355.454 -16.7897 356.169 -15.9639 356.228C-15.229 356.282 -4.54867 356.999 7.99724 355.856Z" fill="#ED7C00"/>
</g>
<g filter="url(#filter5_d_2073_1114)">
<path d="M185.22 368.806C204.497 396.592 253.911 395.677 295.591 366.762C337.27 337.846 355.431 291.881 336.154 264.095C316.877 236.308 254.036 227.907 212.869 247.524C177.465 280.283 165.943 341.02 185.22 368.806Z" fill="white"/>
<path d="M336.159 264.09C355.435 291.877 337.274 337.842 295.595 366.757C253.916 395.673 204.501 396.588 185.224 368.802C165.948 341.015 180.083 279.211 212.873 247.519C255.956 225.829 316.882 236.304 336.159 264.09Z" fill="url(#paint0_linear_2073_1114)"/>
</g>
<g filter="url(#filter6_d_2073_1114)">
<ellipse cx="58.1716" cy="38.2708" rx="58.1716" ry="38.2708" transform="matrix(-0.960358 0.27877 0.27877 0.960358 423.336 94.4727)" fill="url(#paint1_linear_2073_1114)"/>
</g>
<g filter="url(#filter7_d_2073_1114)">
<ellipse cx="145.429" cy="81.134" rx="145.429" ry="81.134" transform="matrix(-0.960358 0.27877 0.27877 0.960358 515.047 102.922)" fill="url(#paint2_linear_2073_1114)"/>
</g>
<g filter="url(#filter8_d_2073_1114)">
<path d="M259.595 350.098C236.786 362.588 225.649 386.14 234.719 402.703C243.789 419.266 269.632 422.567 292.44 410.076C315.249 397.585 335.688 366.511 332.597 349.103C319.514 335.996 282.403 337.607 259.595 350.098Z" fill="white"/>
<path d="M259.595 350.098C236.786 362.588 225.649 386.14 234.719 402.703C243.789 419.266 269.632 422.567 292.44 410.076C315.249 397.585 335.688 366.511 332.597 349.103C319.514 335.996 282.403 337.607 259.595 350.098Z" fill="url(#paint3_linear_2073_1114)"/>
</g>
<g filter="url(#filter9_d_2073_1114)">
<path d="M594.284 350.098C617.093 362.588 628.23 386.14 619.16 402.703C610.09 419.266 584.247 422.567 561.439 410.076C538.63 397.585 518.191 366.511 521.282 349.103C534.365 335.996 571.476 337.607 594.284 350.098Z" fill="white"/>
<path d="M594.284 350.098C617.093 362.588 628.23 386.14 619.16 402.703C610.09 419.266 584.247 422.567 561.439 410.076C538.63 397.585 518.191 366.511 521.282 349.103C534.365 335.996 571.476 337.607 594.284 350.098Z" fill="url(#paint4_linear_2073_1114)"/>
</g>
<g filter="url(#filter10_d_2073_1114)">
<path d="M275.65 303.271C275.65 359.635 344.188 405.326 428.733 405.326C513.279 405.326 581.816 359.635 581.816 303.271C581.816 246.907 503.744 175.702 428.733 163.455C349.13 174.681 275.65 246.907 275.65 303.271Z" fill="white"/>
</g>
<g filter="url(#filter11_d_2073_1114)">
<path d="M275.65 303.271C275.65 359.635 344.188 405.326 428.733 405.326C513.279 405.326 581.816 359.635 581.816 303.271C581.816 246.907 503.744 175.702 428.733 163.455C349.13 174.681 275.65 246.907 275.65 303.271Z" fill="url(#paint5_linear_2073_1114)" shape-rendering="crispEdges"/>
</g>
<path d="M348.056 372.359C348.056 390.195 387.808 404.655 436.845 404.655C485.881 404.655 525.633 390.195 525.633 372.359C525.633 354.522 480.351 331.989 436.845 328.113C390.675 331.666 348.056 354.522 348.056 372.359Z" fill="url(#paint6_linear_2073_1114)"/>
<ellipse cx="5.7986" cy="5.7986" rx="5.7986" ry="5.7986" transform="matrix(-1 0 0 1 518.023 247.639)" fill="#E2E2E2"/>
<ellipse cx="4.63888" cy="3.94305" rx="4.63888" ry="3.94305" transform="matrix(-1 0 0 1 510.133 244.393)" fill="#E2E2E2"/>
<ellipse cx="4.63888" cy="3.94305" rx="4.63888" ry="3.94305" transform="matrix(-1 0 0 1 489.727 244.855)" fill="#E2E2E2"/>
<path d="M472.561 251.813C472.561 255.015 482.725 244.854 495.407 244.854C508.089 244.854 517.559 255.015 517.559 251.813C517.559 248.61 508.089 240.447 495.407 240.447C482.725 240.447 472.561 248.61 472.561 251.813Z" fill="#E2E2E2"/>
<path d="M480.451 257.84C480.451 260.194 486.544 251.345 495.304 251.345C504.063 251.345 508.98 259.73 508.98 257.376C508.98 255.021 504.063 242.531 495.304 242.531C486.544 242.531 480.451 255.485 480.451 257.84Z" fill="#E2E2E2"/>
<ellipse cx="5.7986" cy="5.7986" rx="5.7986" ry="5.7986" transform="matrix(-1 0 0 1 483.699 247.639)" fill="#E2E2E2"/>
<ellipse cx="5.7986" cy="5.7986" rx="5.7986" ry="5.7986" transform="matrix(-1 0 0 1 423.121 247.639)" fill="#E2E2E2"/>
<ellipse cx="4.63888" cy="3.94305" rx="4.63888" ry="3.94305" transform="matrix(-1 0 0 1 415.23 244.393)" fill="#E2E2E2"/>
<ellipse cx="4.63888" cy="3.94305" rx="4.63888" ry="3.94305" transform="matrix(-1 0 0 1 394.824 244.855)" fill="#E2E2E2"/>
<path d="M377.659 251.813C377.659 255.015 387.823 244.854 400.505 244.854C413.187 244.854 422.656 255.015 422.656 251.813C422.656 248.61 413.187 240.447 400.505 240.447C387.823 240.447 377.659 248.61 377.659 251.813Z" fill="#E2E2E2"/>
<path d="M385.549 257.84C385.549 260.194 391.642 251.345 400.401 251.345C409.161 251.345 414.078 259.73 414.078 257.376C414.078 255.021 409.161 242.531 400.401 242.531C391.642 242.531 385.549 255.485 385.549 257.84Z" fill="#E2E2E2"/>
<ellipse cx="5.7986" cy="5.7986" rx="5.7986" ry="5.7986" transform="matrix(-1 0 0 1 388.797 247.639)" fill="#E2E2E2"/>
<g filter="url(#filter12_d_2073_1114)">
<ellipse cx="22.9625" cy="33.2956" rx="22.9625" ry="33.2956" transform="matrix(-1 0 0 1 521.082 280.248)" fill="white"/>
</g>
<ellipse cx="19.9008" cy="32.1474" rx="19.9008" ry="32.1474" transform="matrix(-1 0 0 1 514.961 283.307)" fill="black"/>
<ellipse cx="4.59249" cy="4.59249" rx="4.59249" ry="4.59249" transform="matrix(-1 0 0 1 505.773 295.557)" fill="white"/>
<g filter="url(#filter13_d_2073_1114)">
<ellipse cx="22.9625" cy="33.2956" rx="22.9625" ry="33.2956" transform="matrix(-1 0 0 1 416.988 280.248)" fill="white"/>
</g>
<ellipse cx="19.9008" cy="32.1474" rx="19.9008" ry="32.1474" transform="matrix(-1 0 0 1 416.988 283.307)" fill="black"/>
<path d="M398.612 300.149C398.612 302.685 400.668 304.742 403.204 304.742C405.741 304.742 407.797 302.685 407.797 300.149C407.797 297.613 405.741 295.557 403.204 295.557C400.668 295.557 398.612 297.613 398.612 300.149Z" fill="white"/>
<g filter="url(#filter14_d_2073_1114)">
<path d="M214.659 214.906C205.349 205.436 181.073 213.767 175.743 229.847" stroke="white" stroke-width="4" stroke-linecap="round"/>
</g>
<g filter="url(#filter15_d_2073_1114)">
<path d="M207.736 224.216C196.171 219.127 175.918 236.8 175.746 254.033" stroke="white" stroke-width="4" stroke-linecap="round"/>
</g>
<g filter="url(#filter16_d_2073_1114)">
<path d="M144.511 295.484L144.535 295.545M137.308 277.082C140.07 276.011 142.39 274.04 143.893 271.487C145.397 268.935 145.997 265.95 145.595 263.015C145.193 260.08 143.814 257.365 141.68 255.311C139.546 253.256 136.782 251.98 133.834 251.69C130.904 251.395 127.961 252.1 125.483 253.691C123.005 255.281 121.139 257.663 120.186 260.449" stroke="white" stroke-width="6" stroke-linecap="round" stroke-linejoin="round" shape-rendering="crispEdges"/>
</g>
<g filter="url(#filter17_d_2073_1114)">
<path d="M305.949 77.8174L305.967 77.8483M300.487 68.5251C301.882 67.7105 302.962 66.4493 303.553 64.9451C304.143 63.441 304.21 61.7817 303.741 60.2353C303.272 58.6888 302.296 57.3455 300.97 56.4222C299.644 55.4989 298.045 55.0496 296.432 55.1467C294.829 55.2398 293.304 55.8726 292.106 56.9422C290.909 58.0118 290.108 59.4552 289.834 61.0377" stroke="white" stroke-width="4" stroke-linecap="round" stroke-linejoin="round" shape-rendering="crispEdges"/>
</g>
<g filter="url(#filter18_d_2073_1114)">
<path d="M142.207 197.325L142.196 197.359M145.43 187.039C146.971 187.527 148.631 187.482 150.142 186.91C151.654 186.339 152.928 185.274 153.76 183.889C154.592 182.504 154.933 180.878 154.728 179.276C154.522 177.673 153.783 176.186 152.628 175.055C151.483 173.929 149.991 173.224 148.394 173.053C146.797 172.883 145.19 173.258 143.833 174.117" stroke="white" stroke-width="4" stroke-linecap="round" stroke-linejoin="round" shape-rendering="crispEdges"/>
</g>
<g filter="url(#filter19_d_2073_1114)">
<path d="M568.597 150.624L568.621 150.685M561.394 132.223C564.156 131.151 566.476 129.18 567.979 126.628C569.483 124.075 570.082 121.09 569.681 118.155C569.279 115.22 567.9 112.506 565.766 110.451C563.632 108.397 560.868 107.121 557.919 106.831C554.99 106.536 552.047 107.241 549.569 108.831C547.091 110.421 545.225 112.803 544.272 115.589" stroke="white" stroke-width="6" stroke-linecap="round" stroke-linejoin="round" shape-rendering="crispEdges"/>
</g>
<g filter="url(#filter20_d_2073_1114)">
<path d="M537.246 86.4926L537.235 86.5269M540.47 76.2074C542.01 76.6954 543.67 76.6498 545.181 76.0782C546.693 75.5065 547.967 74.4421 548.799 73.0569C549.631 71.6716 549.972 70.0464 549.767 68.4436C549.561 66.8408 548.822 65.3541 547.667 64.2234C546.522 63.0973 545.03 62.3916 543.433 62.2213C541.836 62.051 540.229 62.426 538.872 63.2853" stroke="white" stroke-width="4" stroke-linecap="round" stroke-linejoin="round" shape-rendering="crispEdges"/>
</g>
<g filter="url(#filter21_d_2073_1114)">
<path d="M339.763 54.9135L339.739 54.9747M347.016 36.5321C349.769 37.6278 352.81 37.7638 355.649 36.9181C358.488 36.0724 360.96 34.2945 362.664 31.8713C364.368 29.4482 365.206 26.5213 365.042 23.5634C364.878 20.6055 363.722 17.7892 361.76 15.5692C359.816 13.3587 357.18 11.8713 354.283 11.3489C351.385 10.8266 348.396 11.2999 345.802 12.6921" stroke="white" stroke-width="6" stroke-linecap="round" stroke-linejoin="round" shape-rendering="crispEdges"/>
</g>
<g filter="url(#filter22_d_2073_1114)">
<path d="M574.552 222.091L574.566 222.124M570.442 212.126C571.938 211.515 573.184 210.417 573.978 209.01C574.773 207.603 575.071 205.969 574.823 204.373C574.575 202.776 573.796 201.309 572.612 200.21C571.428 199.11 569.907 198.442 568.297 198.313C566.696 198.181 565.098 198.594 563.763 199.486C562.427 200.378 561.432 201.695 560.94 203.224" stroke="white" stroke-width="4" stroke-linecap="round" stroke-linejoin="round" shape-rendering="crispEdges"/>
</g>
<path d="M139.612 87.3355C139.744 86.9899 139.97 86.7586 140.291 86.6415C140.613 86.5142 141.107 86.5162 141.771 86.6476C142.129 86.7184 142.386 86.8649 142.544 87.0873C142.712 87.3116 142.764 87.5873 142.699 87.9143C142.689 87.9654 142.675 88.0104 142.656 88.0492C142.638 88.0881 142.624 88.1331 142.614 88.1842C142.37 88.8261 142.141 89.4977 141.928 90.1988C141.715 90.9 141.536 91.6184 141.391 92.3542C141.203 93.3045 141.106 94.2199 141.102 95.1004C141.11 95.9727 141.266 96.7681 141.57 97.4866C141.886 98.1968 142.38 98.8097 143.054 99.3251C143.739 99.8324 144.664 100.201 145.829 100.432C146.483 100.561 147.084 100.558 147.631 100.422C148.178 100.286 148.656 100.046 149.064 99.7018C149.484 99.3495 149.831 98.9086 150.106 98.3789C150.391 97.8512 150.598 97.2604 150.727 96.6064C150.857 95.9524 150.912 95.2945 150.895 94.6327C150.887 93.9728 150.827 93.3131 150.713 92.6535C150.611 91.9857 150.467 91.32 150.28 90.6564C150.103 89.9949 149.906 89.3242 149.69 88.6444C149.602 88.3402 149.58 88.0757 149.624 87.8509C149.703 87.4524 149.979 87.1566 150.453 86.9636L151.163 86.6741C151.475 86.5447 151.754 86.5043 151.999 86.5528C152.377 86.6276 152.649 86.9202 152.813 87.4306C153.066 88.192 153.302 88.9607 153.52 89.7365C153.74 90.5022 153.91 91.2791 154.03 92.0674C154.161 92.8577 154.225 93.6615 154.222 94.4786C154.232 95.2876 154.155 96.1059 153.991 96.9336C153.763 98.0883 153.361 99.1025 152.784 99.976C152.218 100.851 151.515 101.562 150.674 102.107C149.836 102.642 148.885 102.995 147.821 103.167C146.765 103.351 145.634 103.324 144.428 103.085C143.12 102.826 142.001 102.366 141.07 101.704C140.147 101.054 139.417 100.262 138.88 99.3277C138.345 98.3829 138.007 97.3285 137.865 96.1643C137.726 94.99 137.784 93.759 138.038 92.4715C138.216 91.5722 138.445 90.6831 138.725 89.8041C139.018 88.9169 139.313 88.094 139.612 87.3355ZM156.299 104.43C156.496 103.057 156.627 101.782 156.689 100.605C156.765 99.4202 156.8 98.3813 156.796 97.4886C156.803 96.5979 156.792 95.8737 156.764 95.316C156.747 94.7604 156.751 94.4162 156.777 94.2833C156.816 94.0892 156.925 93.9143 157.104 93.7587C157.294 93.605 157.514 93.4841 157.765 93.3957C158.018 93.2971 158.281 93.2322 158.552 93.201C158.834 93.1718 159.083 93.1784 159.297 93.2209C159.471 93.2553 159.613 93.3152 159.723 93.4008C159.844 93.4884 159.916 93.6088 159.939 93.762C159.955 93.9458 159.965 94.1388 159.968 94.341C159.982 94.5351 159.989 94.77 159.987 95.0458C159.974 95.436 160.018 95.6412 160.12 95.6615C160.233 95.6837 160.394 95.5404 160.604 95.2314C160.901 94.8018 161.198 94.457 161.493 94.1969C161.789 93.9369 162.087 93.7462 162.387 93.6251C162.699 93.4957 163.005 93.4236 163.306 93.4087C163.616 93.3958 163.93 93.4207 164.247 93.4833C165.207 93.6734 165.945 94.2122 166.459 95.0997C166.984 95.9894 167.294 97.1869 167.389 98.6923C167.408 98.8659 167.433 98.9823 167.463 99.0414C167.496 99.0904 167.538 99.1199 167.589 99.13C167.64 99.1402 167.695 99.1298 167.755 99.0991C167.826 99.0601 167.901 98.9741 167.981 98.8412C168.358 98.2255 168.755 97.7201 169.173 97.3249C169.593 96.9196 170.005 96.6082 170.409 96.3908C170.825 96.1652 171.23 96.0224 171.624 95.9623C172.019 95.9023 172.384 95.9056 172.722 95.9723C173.345 96.0956 173.861 96.4367 174.271 96.9956C174.693 97.5463 175.004 98.3353 175.205 99.3624C175.417 100.381 175.523 101.645 175.522 103.152C175.533 104.652 175.44 106.412 175.242 108.433C175.133 108.985 174.888 109.334 174.509 109.482C174.127 109.64 173.645 109.662 173.062 109.547C172.684 109.472 172.404 109.331 172.222 109.125C172.04 108.919 171.959 108.681 171.981 108.409C172.13 106.962 172.231 105.671 172.286 104.535C172.353 103.391 172.369 102.422 172.335 101.63C172.303 100.827 172.214 100.204 172.068 99.7612C171.932 99.3202 171.731 99.0734 171.465 99.0209C171.333 98.9946 171.145 99.0583 170.902 99.212C170.669 99.3678 170.389 99.684 170.061 100.161C169.735 100.627 169.361 101.286 168.938 102.136C168.517 102.977 168.056 104.07 167.556 105.415C167.418 105.791 167.171 106.05 166.813 106.192C166.466 106.336 166.068 106.363 165.618 106.274C165.097 106.171 164.751 106.017 164.579 105.813C164.417 105.612 164.364 105.314 164.421 104.922C164.513 104.24 164.574 103.556 164.603 102.872C164.645 102.179 164.653 101.517 164.63 100.886C164.608 100.245 164.561 99.6512 164.488 99.1059C164.417 98.5503 164.323 98.0643 164.203 97.6478C164.086 97.2211 163.946 96.8802 163.784 96.6252C163.622 96.3702 163.444 96.2235 163.25 96.1851C162.995 96.1345 162.709 96.2638 162.393 96.573C162.087 96.8841 161.773 97.3475 161.449 97.9631C161.136 98.5807 160.832 99.3382 160.537 100.236C160.243 101.133 159.984 102.149 159.759 103.283C159.721 103.477 159.688 103.672 159.659 103.869C159.633 104.055 159.6 104.25 159.56 104.454C159.499 104.761 159.398 105.001 159.258 105.175C159.127 105.351 158.959 105.477 158.753 105.553C158.557 105.631 158.337 105.667 158.094 105.661C157.851 105.656 157.592 105.626 157.316 105.571C157.06 105.521 156.86 105.46 156.715 105.389C156.568 105.328 156.46 105.253 156.393 105.166C156.325 105.078 156.288 104.97 156.282 104.841C156.273 104.722 156.279 104.586 156.299 104.43ZM178.586 108.839C178.783 107.466 178.913 106.191 178.976 105.014C179.051 103.829 179.087 102.79 179.083 101.898C179.089 101.007 179.079 100.283 179.051 99.7252C179.034 99.1696 179.038 98.8253 179.064 98.6925C179.103 98.4983 179.212 98.3234 179.391 98.1678C179.581 98.0142 179.801 97.8932 180.052 97.8048C180.305 97.7063 180.568 97.6414 180.839 97.6102C181.121 97.581 181.369 97.5876 181.584 97.6301C181.758 97.6644 181.9 97.7244 182.01 97.81C182.131 97.8976 182.203 98.0179 182.226 98.1711C182.242 98.3549 182.252 98.548 182.254 98.7502C182.269 98.9442 182.276 99.1792 182.274 99.455C182.261 99.8452 182.305 100.05 182.407 100.071C182.52 100.093 182.681 99.9495 182.89 99.6406C183.188 99.211 183.484 98.8661 183.78 98.6061C184.076 98.346 184.374 98.1554 184.674 98.0342C184.986 97.9049 185.292 97.8328 185.592 97.8178C185.903 97.8049 186.217 97.8298 186.533 97.8925C187.494 98.0825 188.232 98.6213 188.746 99.5089C189.271 100.399 189.581 101.596 189.676 103.101C189.695 103.275 189.719 103.391 189.75 103.451C189.783 103.5 189.825 103.529 189.876 103.539C189.927 103.549 189.982 103.539 190.041 103.508C190.113 103.469 190.188 103.383 190.268 103.25C190.644 102.635 191.042 102.129 191.46 101.734C191.88 101.329 192.292 101.017 192.696 100.8C193.112 100.574 193.517 100.432 193.911 100.371C194.305 100.311 194.671 100.315 195.008 100.381C195.632 100.505 196.148 100.846 196.558 101.405C196.98 101.955 197.291 102.744 197.491 103.772C197.704 104.791 197.81 106.054 197.809 107.561C197.82 109.061 197.727 110.821 197.529 112.842C197.419 113.394 197.175 113.744 196.795 113.891C196.414 114.049 195.932 114.071 195.349 113.956C194.971 113.881 194.691 113.741 194.509 113.535C194.326 113.329 194.246 113.09 194.268 112.818C194.416 111.371 194.518 110.08 194.573 108.944C194.64 107.8 194.656 106.832 194.622 106.039C194.589 105.236 194.5 104.613 194.354 104.17C194.219 103.729 194.018 103.483 193.752 103.43C193.619 103.404 193.432 103.467 193.189 103.621C192.956 103.777 192.676 104.093 192.348 104.57C192.022 105.036 191.648 105.695 191.224 106.546C190.803 107.386 190.343 108.479 189.843 109.824C189.705 110.2 189.457 110.459 189.1 110.601C188.753 110.745 188.355 110.772 187.905 110.683C187.384 110.58 187.037 110.427 186.865 110.223C186.704 110.021 186.651 109.724 186.707 109.331C186.8 108.649 186.861 107.965 186.89 107.281C186.931 106.588 186.94 105.926 186.916 105.295C186.895 104.654 186.848 104.06 186.775 103.515C186.704 102.959 186.609 102.473 186.49 102.057C186.373 101.63 186.233 101.289 186.071 101.034C185.909 100.779 185.731 100.633 185.537 100.594C185.281 100.544 184.996 100.673 184.68 100.982C184.374 101.293 184.059 101.757 183.736 102.372C183.422 102.99 183.119 103.747 182.824 104.645C182.53 105.542 182.271 106.558 182.046 107.692C182.008 107.886 181.974 108.082 181.946 108.278C181.92 108.464 181.887 108.659 181.846 108.863C181.786 109.17 181.685 109.41 181.544 109.584C181.414 109.76 181.246 109.886 181.04 109.962C180.844 110.04 180.624 110.076 180.381 110.071C180.138 110.065 179.878 110.035 179.603 109.98C179.347 109.93 179.147 109.869 179.002 109.798C178.854 109.737 178.747 109.662 178.679 109.575C178.612 109.487 178.575 109.379 178.568 109.25C178.56 109.132 178.566 108.995 178.586 108.839ZM203.571 112.811C203.275 112.752 203.003 112.651 202.756 112.506C202.518 112.364 202.318 112.197 202.154 112.005C201.992 111.803 201.876 111.584 201.806 111.347C201.747 111.112 201.741 110.872 201.79 110.627C201.874 110.198 202.112 109.883 202.502 109.684C202.902 109.488 203.383 109.445 203.945 109.556C204.21 109.608 204.456 109.71 204.681 109.861C204.918 110.003 205.112 110.174 205.264 110.374C205.426 110.576 205.542 110.796 205.612 111.032C205.682 111.269 205.693 111.505 205.647 111.74C205.558 112.19 205.325 112.51 204.947 112.701C204.582 112.883 204.123 112.92 203.571 112.811ZM213.443 114.764C213.146 114.705 212.874 114.604 212.627 114.459C212.39 114.317 212.189 114.149 212.025 113.958C211.863 113.756 211.747 113.536 211.678 113.3C211.618 113.065 211.612 112.825 211.661 112.58C211.746 112.15 211.983 111.836 212.373 111.637C212.773 111.44 213.254 111.398 213.816 111.509C214.081 111.561 214.327 111.663 214.552 111.814C214.789 111.956 214.984 112.127 215.135 112.327C215.297 112.529 215.413 112.748 215.483 112.985C215.553 113.222 215.564 113.458 215.518 113.693C215.429 114.143 215.196 114.463 214.818 114.654C214.453 114.836 213.994 114.873 213.443 114.764Z" fill="white"/>
<g filter="url(#filter23_d_2073_1114)">
<path d="M194.174 143.354C190.206 141.392 185.732 140.282 181.247 140.145C177.526 139.818 173.812 139.29 170.132 138.564C134.858 131.585 110.616 108.141 114.811 86.9349C119.006 65.7289 150.352 53.2844 185.623 60.2624C220.9 67.2415 245.14 90.6851 240.945 111.889C238.779 122.837 229.355 131.743 214.959 136.598C213.916 136.934 212.865 137.257 211.805 137.566C211.868 137.548 211.634 137.615 211.949 137.54L211.362 137.679L210.802 137.865C205.067 139.767 201.83 143.194 200.64 147.392C198.106 145.662 195.658 144.077 194.174 143.354ZM250.981 113.924C256.139 87.855 227.591 60.2437 187.208 52.2544C146.83 44.2662 109.914 58.9241 104.757 84.9911C99.5989 111.062 128.152 138.675 168.53 146.663C172.915 147.531 177.25 148.128 181.516 148.479L181.542 148.479C191.776 148.621 194.285 157.898 215.924 166.733C220.368 168.549 221.103 167.762 218.134 164.171C212.758 157.685 208.264 147.956 215.404 145.589C215.619 145.542 218.353 144.716 219.401 144.371C236.198 138.709 248.204 127.965 250.982 113.92" fill="white"/>
</g>
<g filter="url(#filter24_d_2073_1114)">
<path d="M43.5761 66.8827C48.7464 46.024 57.4865 27.2262 65.7337 35.6531C73.9896 44.0876 58.339 76.1496 36.7284 93.1858L30.7634 100.739C46.2958 88.0482 70.5104 81.3249 76.5295 89.3282C82.5096 97.2811 65.9839 100.293 50.4313 100.526C38.5931 100.704 30.8828 103.534 27.117 105.356L-1.05715 141.03C23.5963 121.004 61.8295 110.432 71.3516 123.095C80.8411 135.714 54.6197 140.492 29.9411 140.863C11.2929 141.144 -0.906245 145.572 -6.9291 148.465L-12.5471 155.578C-13.934 154.797 -15.3146 154.009 -16.6914 153.212L16.8278 110.77C17.2654 106.237 17.2076 99.7933 15.4007 91.6644C12.0234 76.4815 11.1244 59.7081 20.2467 63.6814C28.1631 67.1304 28.563 86.2815 22.9148 103.065L34.5066 88.3877C37.3181 83.2337 41.3455 75.8855 43.5761 66.8827Z" fill="#FCB13A"/>
</g>
<g filter="url(#filter25_d_2073_1114)">
<rect x="414.926" y="2.5" width="72.6789" height="72.679" rx="36.3395" stroke="white" stroke-width="5" shape-rendering="crispEdges"/>
</g>
<g filter="url(#filter26_d_2073_1114)">
<path d="M454.415 20.9941C452.188 20.9941 450.052 21.8789 448.477 23.4538C446.903 25.0287 446.018 27.1646 446.018 29.3919C446.018 31.6191 446.903 33.7551 448.477 35.33C450.052 36.9048 452.188 37.7896 454.415 37.7896C456.643 37.7896 458.779 36.9048 460.354 35.33C461.928 33.7551 462.813 31.6191 462.813 29.3919C462.813 27.1646 461.928 25.0287 460.354 23.4538C458.779 21.8789 456.643 20.9941 454.415 20.9941ZM454.415 24.9831C454.994 24.9831 455.568 25.0971 456.103 25.3187C456.638 25.5402 457.124 25.865 457.533 26.2744C457.942 26.6838 458.267 27.1698 458.489 27.7047C458.71 28.2396 458.824 28.8129 458.824 29.3919C458.824 29.9708 458.71 30.5441 458.489 31.079C458.267 31.6139 457.942 32.1 457.533 32.5094C457.124 32.9188 456.638 33.2435 456.103 33.4651C455.568 33.6866 454.994 33.8007 454.415 33.8007C453.836 33.8007 453.263 33.6866 452.728 33.4651C452.193 33.2435 451.707 32.9188 451.298 32.5094C450.889 32.1 450.564 31.6139 450.342 31.079C450.121 30.5441 450.007 29.9708 450.007 29.3919C450.007 28.2226 450.471 27.1012 451.298 26.2744C452.125 25.4476 453.246 24.9831 454.415 24.9831ZM431.322 27.2924V33.5907H425.023V37.7896H431.322V44.0879H435.521V37.7896H441.819V33.5907H435.521V27.2924H431.322ZM454.415 39.889C448.81 39.889 437.62 42.6813 437.62 48.2867V54.585H471.211V48.2867C471.211 42.6813 460.021 39.889 454.415 39.889ZM454.415 43.8779C460.651 43.8779 467.222 46.9431 467.222 48.2867V50.5961H441.609V48.2867C441.609 46.9431 448.117 43.8779 454.415 43.8779Z" fill="white"/>
</g>
<path d="M144.443 540.43C144.443 544.209 122.879 547.272 96.2779 547.272C69.6771 547.272 48.1133 544.209 48.1133 540.43C48.1133 536.651 69.6771 533.588 96.2779 533.588C122.877 533.586 144.443 536.651 144.443 540.43Z" fill="#EDE4DD"/>
<path d="M115.141 539.609H76.8159C71.6043 539.609 66.9841 536.253 65.3749 531.296L49.1216 481.268C48.4566 479.22 49.8835 477.095 52.0298 476.929C81.6223 474.635 110.924 474.633 139.935 476.923C142.077 477.092 143.502 479.219 142.837 481.262L126.582 531.296C124.973 536.251 120.353 539.609 115.141 539.609Z" fill="#F99900"/>
<path d="M139.434 480.56C139.434 481.89 120.096 482.97 96.2403 482.97C72.3848 482.97 53.0469 481.892 53.0469 480.56C53.0469 479.23 72.3848 478.15 96.2403 478.15C120.096 478.15 139.434 479.23 139.434 480.56Z" fill="#373543"/>
<path d="M100.863 480.873L96.6484 480.245C104.377 428.369 107.754 372.224 106.977 308.601L111.238 308.549C112.02 372.403 108.627 428.77 100.863 480.873Z" fill="#3043BC"/>
<path d="M102.087 435.963C101.695 418.529 78.8792 405.698 78.6484 405.57L80.7095 401.84C81.739 402.408 105.901 415.974 106.349 435.868L102.087 435.963Z" fill="#3043BC"/>
<path d="M107.639 421.444L103.457 420.616C109.861 388.299 132.435 374.59 133.393 374.021L135.568 377.686C135.349 377.816 113.655 391.07 107.639 421.444Z" fill="#3043BC"/>
<path d="M31.0709 403.035C26.0745 410.591 31.6894 426.926 31.6894 426.926L44.9898 453.982L69.0605 441.358C69.0605 441.358 65.9409 420.452 68.38 420.939C70.819 421.425 74.5455 439.282 74.5455 439.282L86.1785 431.783C86.1785 431.783 77.2133 408.441 82.1496 410.696C87.0859 412.949 92.3983 427.634 92.3983 427.634C92.3983 427.634 95.6245 427.331 99.8299 417.391C104.027 407.454 101.402 388.868 88.5982 386.313C75.7999 383.76 68.3004 391.453 68.3004 391.453C64.2696 373.536 49.833 377.309 41.909 378.895C33.9849 380.487 30.6967 393.774 30.6967 393.774C30.6967 393.774 51.3608 390.291 50.0831 395.108C48.8054 399.92 31.0709 403.035 31.0709 403.035ZM81.5233 391.651C81.5233 391.651 88.3248 390.288 89.6529 394.541C90.981 398.795 81.6901 400.391 78.4871 398.477C75.2803 396.569 76.9186 392.907 81.5233 391.651ZM44.0068 410.411C47.6518 406.812 52.1402 408.127 52.1402 408.127C52.1402 408.127 52.877 412.012 49.4763 415.915C46.0794 419.824 39.6309 419.75 39.6309 419.75C39.6309 419.75 40.3579 414.002 44.0068 410.411Z" fill="#375BC9"/>
<path d="M34.1791 302.753C26.955 310.146 29.7314 329.659 29.7314 329.659L38.8149 362.842L68.5063 353.875C68.5063 353.875 69.5106 329.775 72.1377 330.845C74.7648 331.915 75.1003 352.727 75.1003 352.727L89.7502 346.827C89.7502 346.827 84.7247 318.741 89.7715 322.328C94.8202 325.915 97.6141 343.514 97.6141 343.514C97.6141 343.514 101.296 343.868 108.146 333.635C114.988 323.404 116.047 302.009 102.248 296.39C88.455 290.773 78.3963 297.782 78.3963 297.782C77.7351 276.837 60.7432 277.96 51.524 278.031C42.301 278.109 35.7573 292.293 35.7573 292.293C35.7573 292.293 59.6632 292.836 57.1951 297.959C54.7231 303.079 34.1791 302.753 34.1791 302.753ZM93.1683 300.851C93.1683 300.851 101.083 300.787 101.657 305.84C102.228 310.893 91.4738 310.681 88.296 307.849C85.1144 305.02 87.7396 301.27 93.1683 300.851ZM47.0898 313.803C51.9486 310.555 56.6949 312.994 56.6949 312.994C56.6949 312.994 56.6852 317.506 52.0339 321.149C47.3865 324.798 40.174 323.328 40.174 323.328C40.174 323.328 42.2272 317.043 47.0898 313.803Z" fill="#375BC9"/>
<path d="M158.086 364.982C157.121 359.976 178.533 364.943 178.533 364.943C178.533 364.943 176.114 351.145 167.922 348.979C159.732 346.819 144.875 341.978 139.254 360.003C139.254 360.003 131.984 351.633 118.356 353.368C104.722 355.104 100.526 373.912 104.159 384.347C107.799 394.788 111.162 395.317 111.162 395.317C111.162 395.317 117.877 380.681 123.232 378.717C128.587 376.753 117.367 399.982 117.367 399.982L128.992 408.437C128.992 408.437 134.289 390.453 136.885 390.123C139.481 389.791 134.586 410.934 134.586 410.934L158.864 425.472L174.921 398.743C174.921 398.743 182.081 382.443 177.424 374.384C177.424 374.384 159.058 369.988 158.086 364.982ZM128.026 366.487C124.517 368.222 114.891 365.957 116.614 361.704C118.338 357.45 125.368 359.307 125.368 359.307C130.101 360.907 131.538 364.757 128.026 366.487ZM167.146 390.869C167.146 390.869 160.374 390.505 157.113 386.28C153.846 382.061 154.922 378.143 154.922 378.143C154.922 378.143 159.732 377.106 163.278 381.03C166.828 384.95 167.146 390.869 167.146 390.869Z" fill="#375BC9"/>
<path d="M671.352 541.944C671.352 544.967 654.101 547.418 632.821 547.418C611.54 547.418 594.289 544.967 594.289 541.944C594.289 538.921 611.54 536.471 632.821 536.471C654.1 536.469 671.352 538.921 671.352 541.944Z" fill="#EDE4DD"/>
<path d="M647.912 541.288H617.252C613.083 541.288 609.386 538.603 608.099 534.637L595.096 494.614C594.564 492.976 595.706 491.276 597.423 491.143C621.097 489.308 644.538 489.307 667.747 491.138C669.461 491.273 670.601 492.975 670.069 494.61L657.065 534.637C655.777 538.601 652.081 541.288 647.912 541.288Z" fill="#F99900"/>
<path d="M667.348 494.049C667.348 495.113 651.877 495.977 632.793 495.977C613.709 495.977 598.238 495.115 598.238 494.049C598.238 492.985 613.709 492.121 632.793 492.121C651.877 492.121 667.348 492.985 667.348 494.049Z" fill="#373543"/>
<path d="M636.489 494.301L633.117 493.798C639.3 452.298 642.002 407.382 641.38 356.483L644.789 356.441C645.414 407.524 642.7 452.619 636.489 494.301Z" fill="#3043BC"/>
<path d="M637.47 458.373C637.156 444.426 618.903 434.161 618.719 434.058L620.368 431.074C621.191 431.529 640.521 442.382 640.879 458.297L637.47 458.373Z" fill="#3043BC"/>
<path d="M641.912 446.758L638.566 446.096C643.69 420.242 661.749 409.275 662.515 408.82L664.255 411.752C664.08 411.856 646.725 422.459 641.912 446.758Z" fill="#3043BC"/>
<path d="M580.657 432.029C576.66 438.073 581.151 451.141 581.151 451.141L591.792 472.786L611.048 462.687C611.048 462.687 608.553 445.962 610.504 446.351C612.455 446.741 615.436 461.026 615.436 461.026L624.743 455.026C624.743 455.026 617.571 436.353 621.52 438.157C625.469 439.959 629.719 451.707 629.719 451.707C629.719 451.707 632.3 451.465 635.664 443.513C639.022 435.564 636.922 420.695 626.679 418.651C616.44 416.608 610.44 422.763 610.44 422.763C607.216 408.429 595.666 411.448 589.327 412.716C582.988 413.99 580.357 424.619 580.357 424.619C580.357 424.619 596.889 421.834 595.866 425.686C594.844 429.536 580.657 432.029 580.657 432.029ZM621.019 422.921C621.019 422.921 626.46 421.83 627.522 425.234C628.585 428.637 621.152 429.913 618.59 428.382C616.024 426.856 617.335 423.926 621.019 422.921ZM591.005 437.929C593.921 435.05 597.512 436.102 597.512 436.102C597.512 436.102 598.102 439.21 595.381 442.333C592.664 445.459 587.505 445.401 587.505 445.401C587.505 445.401 588.086 440.802 591.005 437.929Z" fill="#375BC9"/>
<path d="M583.146 351.803C577.366 357.717 579.587 373.327 579.587 373.327L586.854 399.874L610.607 392.7C610.607 392.7 611.411 373.42 613.513 374.276C615.614 375.132 615.883 391.782 615.883 391.782L627.602 387.062C627.602 387.062 623.582 364.593 627.62 367.462C631.658 370.332 633.894 384.411 633.894 384.411C633.894 384.411 636.839 384.695 642.319 376.508C647.793 368.323 648.64 351.207 637.601 346.712C626.566 342.219 618.519 347.826 618.519 347.826C617.99 331.07 604.397 331.968 597.022 332.025C589.643 332.087 584.408 343.435 584.408 343.435C584.408 343.435 603.533 343.869 601.558 347.967C599.581 352.063 583.146 351.803 583.146 351.803ZM630.337 350.281C630.337 350.281 636.668 350.23 637.128 354.272C637.585 358.314 628.981 358.145 626.439 355.879C623.894 353.616 625.994 350.616 630.337 350.281ZM593.474 360.642C597.361 358.044 601.158 359.996 601.158 359.996C601.158 359.996 601.151 363.605 597.429 366.519C593.712 369.438 587.942 368.263 587.942 368.263C587.942 368.263 589.584 363.234 593.474 360.642Z" fill="#375BC9"/>
<path d="M682.271 401.586C681.498 397.581 698.628 401.555 698.628 401.555C698.628 401.555 696.692 390.516 690.139 388.783C683.587 387.055 671.702 383.182 667.205 397.603C667.205 397.603 661.388 390.907 650.486 392.295C639.579 393.683 636.222 408.73 639.129 417.078C642.04 425.43 644.731 425.854 644.731 425.854C644.731 425.854 650.103 414.145 654.387 412.573C658.671 411.002 649.695 429.586 649.695 429.586L658.995 436.35C658.995 436.35 663.233 421.962 665.31 421.698C667.386 421.433 663.47 438.348 663.47 438.348L682.893 449.978L695.738 428.594C695.738 428.594 701.467 415.555 697.741 409.107C697.741 409.107 683.048 405.591 682.271 401.586ZM658.223 402.789C655.415 404.178 647.714 402.366 649.093 398.963C650.472 395.56 656.096 397.046 656.096 397.046C659.882 398.325 661.032 401.406 658.223 402.789ZM689.519 422.296C689.519 422.296 684.101 422.004 681.492 418.624C678.878 415.249 679.739 412.114 679.739 412.114C679.739 412.114 683.587 411.285 686.424 414.424C689.264 417.56 689.519 422.296 689.519 422.296Z" fill="#375BC9"/>
<ellipse cx="391.5" cy="542.5" rx="214.5" ry="9.5" fill="black" fill-opacity="0.45"/>
<defs>
<filter id="filter0_d_2073_1114" x="599.262" y="277.984" width="51.9883" height="59.0293" filterUnits="userSpaceOnUse" color-interpolation-filters="sRGB">
<feFlood flood-opacity="0" result="BackgroundImageFix"/>
<feColorMatrix in="SourceAlpha" type="matrix" values="0 0 0 0 0 0 0 0 0 0 0 0 0 0 0 0 0 0 127 0" result="hardAlpha"/>
<feOffset dy="4"/>
<feGaussianBlur stdDeviation="2"/>
<feComposite in2="hardAlpha" operator="out"/>
<feColorMatrix type="matrix" values="0 0 0 0 0 0 0 0 0 0 0 0 0 0 0 0 0 0 0.25 0"/>
<feBlend mode="normal" in2="BackgroundImageFix" result="effect1_dropShadow_2073_1114"/>
<feBlend mode="normal" in="SourceGraphic" in2="effect1_dropShadow_2073_1114" result="shape"/>
</filter>
<filter id="filter1_d_2073_1114" x="628.02" y="161.654" width="112.977" height="232.939" filterUnits="userSpaceOnUse" color-interpolation-filters="sRGB">
<feFlood flood-opacity="0" result="BackgroundImageFix"/>
<feColorMatrix in="SourceAlpha" type="matrix" values="0 0 0 0 0 0 0 0 0 0 0 0 0 0 0 0 0 0 127 0" result="hardAlpha"/>
<feOffset dy="4"/>
<feGaussianBlur stdDeviation="2"/>
<feComposite in2="hardAlpha" operator="out"/>
<feColorMatrix type="matrix" values="0 0 0 0 0 0 0 0 0 0 0 0 0 0 0 0 0 0 0.25 0"/>
<feBlend mode="normal" in2="BackgroundImageFix" result="effect1_dropShadow_2073_1114"/>
<feBlend mode="normal" in="SourceGraphic" in2="effect1_dropShadow_2073_1114" result="shape"/>
</filter>
<filter id="filter2_d_2073_1114" x="632.223" y="33.5918" width="102.473" height="129.986" filterUnits="userSpaceOnUse" color-interpolation-filters="sRGB">
<feFlood flood-opacity="0" result="BackgroundImageFix"/>
<feColorMatrix in="SourceAlpha" type="matrix" values="0 0 0 0 0 0 0 0 0 0 0 0 0 0 0 0 0 0 127 0" result="hardAlpha"/>
<feOffset dy="4"/>
<feGaussianBlur stdDeviation="2"/>
<feComposite in2="hardAlpha" operator="out"/>
<feColorMatrix type="matrix" values="0 0 0 0 0 0 0 0 0 0 0 0 0 0 0 0 0 0 0.25 0"/>
<feBlend mode="normal" in2="BackgroundImageFix" result="effect1_dropShadow_2073_1114"/>
<feBlend mode="normal" in="SourceGraphic" in2="effect1_dropShadow_2073_1114" result="shape"/>
</filter>
<filter id="filter3_d_2073_1114" x="62.7578" y="277.982" width="51.9883" height="59.0293" filterUnits="userSpaceOnUse" color-interpolation-filters="sRGB">
<feFlood flood-opacity="0" result="BackgroundImageFix"/>
<feColorMatrix in="SourceAlpha" type="matrix" values="0 0 0 0 0 0 0 0 0 0 0 0 0 0 0 0 0 0 127 0" result="hardAlpha"/>
<feOffset dy="4"/>
<feGaussianBlur stdDeviation="2"/>
<feComposite in2="hardAlpha" operator="out"/>
<feColorMatrix type="matrix" values="0 0 0 0 0 0 0 0 0 0 0 0 0 0 0 0 0 0 0.25 0"/>
<feBlend mode="normal" in2="BackgroundImageFix" result="effect1_dropShadow_2073_1114"/>
<feBlend mode="normal" in="SourceGraphic" in2="effect1_dropShadow_2073_1114" result="shape"/>
</filter>
<filter id="filter4_d_2073_1114" x="-27.0117" y="161.654" width="112.988" height="232.939" filterUnits="userSpaceOnUse" color-interpolation-filters="sRGB">
<feFlood flood-opacity="0" result="BackgroundImageFix"/>
<feColorMatrix in="SourceAlpha" type="matrix" values="0 0 0 0 0 0 0 0 0 0 0 0 0 0 0 0 0 0 127 0" result="hardAlpha"/>
<feOffset dy="4"/>
<feGaussianBlur stdDeviation="2"/>
<feComposite in2="hardAlpha" operator="out"/>
<feColorMatrix type="matrix" values="0 0 0 0 0 0 0 0 0 0 0 0 0 0 0 0 0 0 0.25 0"/>
<feBlend mode="normal" in2="BackgroundImageFix" result="effect1_dropShadow_2073_1114"/>
<feBlend mode="normal" in="SourceGraphic" in2="effect1_dropShadow_2073_1114" result="shape"/>
</filter>
<filter id="filter5_d_2073_1114" x="171.945" y="235.9" width="175.914" height="161.16" filterUnits="userSpaceOnUse" color-interpolation-filters="sRGB">
<feFlood flood-opacity="0" result="BackgroundImageFix"/>
<feColorMatrix in="SourceAlpha" type="matrix" values="0 0 0 0 0 0 0 0 0 0 0 0 0 0 0 0 0 0 127 0" result="hardAlpha"/>
<feOffset dy="4"/>
<feGaussianBlur stdDeviation="2"/>
<feComposite in2="hardAlpha" operator="out"/>
<feColorMatrix type="matrix" values="0 0 0 0 0 0 0 0 0 0 0 0 0 0 0 0 0 0 0.25 0"/>
<feBlend mode="normal" in2="BackgroundImageFix" result="effect1_dropShadow_2073_1114"/>
<feBlend mode="normal" in="SourceGraphic" in2="effect1_dropShadow_2073_1114" result="shape"/>
</filter>
<filter id="filter6_d_2073_1114" x="317.254" y="107.26" width="121.77" height="88.3652" filterUnits="userSpaceOnUse" color-interpolation-filters="sRGB">
<feFlood flood-opacity="0" result="BackgroundImageFix"/>
<feColorMatrix in="SourceAlpha" type="matrix" values="0 0 0 0 0 0 0 0 0 0 0 0 0 0 0 0 0 0 127 0" result="hardAlpha"/>
<feOffset dy="4"/>
<feGaussianBlur stdDeviation="2"/>
<feComposite in2="hardAlpha" operator="out"/>
<feColorMatrix type="matrix" values="0 0 0 0 0 0 0 0 0 0 0 0 0 0 0 0 0 0 0.25 0"/>
<feBlend mode="normal" in2="BackgroundImageFix" result="effect1_dropShadow_2073_1114"/>
<feBlend mode="normal" in="SourceGraphic" in2="effect1_dropShadow_2073_1114" result="shape"/>
</filter>
<filter id="filter7_d_2073_1114" x="252.496" y="133.529" width="291.008" height="183.703" filterUnits="userSpaceOnUse" color-interpolation-filters="sRGB">
<feFlood flood-opacity="0" result="BackgroundImageFix"/>
<feColorMatrix in="SourceAlpha" type="matrix" values="0 0 0 0 0 0 0 0 0 0 0 0 0 0 0 0 0 0 127 0" result="hardAlpha"/>
<feOffset dy="4"/>
<feGaussianBlur stdDeviation="2"/>
<feComposite in2="hardAlpha" operator="out"/>
<feColorMatrix type="matrix" values="0 0 0 0 0 0 0 0 0 0 0 0 0 0 0 0 0 0 0.25 0"/>
<feBlend mode="normal" in2="BackgroundImageFix" result="effect1_dropShadow_2073_1114"/>
<feBlend mode="normal" in="SourceGraphic" in2="effect1_dropShadow_2073_1114" result="shape"/>
</filter>
<filter id="filter8_d_2073_1114" x="227.562" y="339.977" width="109.344" height="85.6738" filterUnits="userSpaceOnUse" color-interpolation-filters="sRGB">
<feFlood flood-opacity="0" result="BackgroundImageFix"/>
<feColorMatrix in="SourceAlpha" type="matrix" values="0 0 0 0 0 0 0 0 0 0 0 0 0 0 0 0 0 0 127 0" result="hardAlpha"/>
<feOffset dy="4"/>
<feGaussianBlur stdDeviation="2"/>
<feComposite in2="hardAlpha" operator="out"/>
<feColorMatrix type="matrix" values="0 0 0 0 0 0 0 0 0 0 0 0 0 0 0 0 0 0 0.25 0"/>
<feBlend mode="normal" in2="BackgroundImageFix" result="effect1_dropShadow_2073_1114"/>
<feBlend mode="normal" in="SourceGraphic" in2="effect1_dropShadow_2073_1114" result="shape"/>
</filter>
<filter id="filter9_d_2073_1114" x="516.973" y="339.977" width="109.344" height="85.6738" filterUnits="userSpaceOnUse" color-interpolation-filters="sRGB">
<feFlood flood-opacity="0" result="BackgroundImageFix"/>
<feColorMatrix in="SourceAlpha" type="matrix" values="0 0 0 0 0 0 0 0 0 0 0 0 0 0 0 0 0 0 127 0" result="hardAlpha"/>
<feOffset dy="4"/>
<feGaussianBlur stdDeviation="2"/>
<feComposite in2="hardAlpha" operator="out"/>
<feColorMatrix type="matrix" values="0 0 0 0 0 0 0 0 0 0 0 0 0 0 0 0 0 0 0.25 0"/>
<feBlend mode="normal" in2="BackgroundImageFix" result="effect1_dropShadow_2073_1114"/>
<feBlend mode="normal" in="SourceGraphic" in2="effect1_dropShadow_2073_1114" result="shape"/>
</filter>
<filter id="filter10_d_2073_1114" x="271.648" y="157.455" width="314.168" height="249.871" filterUnits="userSpaceOnUse" color-interpolation-filters="sRGB">
<feFlood flood-opacity="0" result="BackgroundImageFix"/>
<feColorMatrix in="SourceAlpha" type="matrix" values="0 0 0 0 0 0 0 0 0 0 0 0 0 0 0 0 0 0 127 0" result="hardAlpha"/>
<feOffset dy="-2"/>
<feGaussianBlur stdDeviation="2"/>
<feComposite in2="hardAlpha" operator="out"/>
<feColorMatrix type="matrix" values="0 0 0 0 0 0 0 0 0 0 0 0 0 0 0 0 0 0 0.1 0"/>
<feBlend mode="normal" in2="BackgroundImageFix" result="effect1_dropShadow_2073_1114"/>
<feBlend mode="normal" in="SourceGraphic" in2="effect1_dropShadow_2073_1114" result="shape"/>
</filter>
<filter id="filter11_d_2073_1114" x="271.648" y="163.455" width="314.168" height="249.871" filterUnits="userSpaceOnUse" color-interpolation-filters="sRGB">
<feFlood flood-opacity="0" result="BackgroundImageFix"/>
<feColorMatrix in="SourceAlpha" type="matrix" values="0 0 0 0 0 0 0 0 0 0 0 0 0 0 0 0 0 0 127 0" result="hardAlpha"/>
<feOffset dy="4"/>
<feGaussianBlur stdDeviation="2"/>
<feComposite in2="hardAlpha" operator="out"/>
<feColorMatrix type="matrix" values="0 0 0 0 0 0 0 0 0 0 0 0 0 0 0 0 0 0 0.25 0"/>
<feBlend mode="normal" in2="BackgroundImageFix" result="effect1_dropShadow_2073_1114"/>
<feBlend mode="normal" in="SourceGraphic" in2="effect1_dropShadow_2073_1114" result="shape"/>
</filter>
<filter id="filter12_d_2073_1114" x="469.156" y="275.248" width="53.9258" height="74.5918" filterUnits="userSpaceOnUse" color-interpolation-filters="sRGB">
<feFlood flood-opacity="0" result="BackgroundImageFix"/>
<feColorMatrix in="SourceAlpha" type="matrix" values="0 0 0 0 0 0 0 0 0 0 0 0 0 0 0 0 0 0 127 0" result="hardAlpha"/>
<feOffset dx="-2" dy="-1"/>
<feGaussianBlur stdDeviation="2"/>
<feComposite in2="hardAlpha" operator="out"/>
<feColorMatrix type="matrix" values="0 0 0 0 0 0 0 0 0 0 0 0 0 0 0 0 0 0 0.1 0"/>
<feBlend mode="normal" in2="BackgroundImageFix" result="effect1_dropShadow_2073_1114"/>
<feBlend mode="normal" in="SourceGraphic" in2="effect1_dropShadow_2073_1114" result="shape"/>
</filter>
<filter id="filter13_d_2073_1114" x="369.062" y="275.248" width="53.9258" height="74.5918" filterUnits="userSpaceOnUse" color-interpolation-filters="sRGB">
<feFlood flood-opacity="0" result="BackgroundImageFix"/>
<feColorMatrix in="SourceAlpha" type="matrix" values="0 0 0 0 0 0 0 0 0 0 0 0 0 0 0 0 0 0 127 0" result="hardAlpha"/>
<feOffset dx="2" dy="-1"/>
<feGaussianBlur stdDeviation="2"/>
<feComposite in2="hardAlpha" operator="out"/>
<feColorMatrix type="matrix" values="0 0 0 0 0.144017 0 0 0 0 0.0620289 0 0 0 0 0.608617 0 0 0 0.1 0"/>
<feBlend mode="normal" in2="BackgroundImageFix" result="effect1_dropShadow_2073_1114"/>
<feBlend mode="normal" in="SourceGraphic" in2="effect1_dropShadow_2073_1114" result="shape"/>
</filter>
<filter id="filter14_d_2073_1114" x="169.797" y="208.861" width="50.8086" height="31.0391" filterUnits="userSpaceOnUse" color-interpolation-filters="sRGB">
<feFlood flood-opacity="0" result="BackgroundImageFix"/>
<feColorMatrix in="SourceAlpha" type="matrix" values="0 0 0 0 0 0 0 0 0 0 0 0 0 0 0 0 0 0 127 0" result="hardAlpha"/>
<feOffset dy="4"/>
<feGaussianBlur stdDeviation="2"/>
<feComposite in2="hardAlpha" operator="out"/>
<feColorMatrix type="matrix" values="0 0 0 0 0 0 0 0 0 0 0 0 0 0 0 0 0 0 0.25 0"/>
<feBlend mode="normal" in2="BackgroundImageFix" result="effect1_dropShadow_2073_1114"/>
<feBlend mode="normal" in="SourceGraphic" in2="effect1_dropShadow_2073_1114" result="shape"/>
</filter>
<filter id="filter15_d_2073_1114" x="169.895" y="221.188" width="43.6914" height="42.9844" filterUnits="userSpaceOnUse" color-interpolation-filters="sRGB">
<feFlood flood-opacity="0" result="BackgroundImageFix"/>
<feColorMatrix in="SourceAlpha" type="matrix" values="0 0 0 0 0 0 0 0 0 0 0 0 0 0 0 0 0 0 127 0" result="hardAlpha"/>
<feOffset dy="4"/>
<feGaussianBlur stdDeviation="2"/>
<feComposite in2="hardAlpha" operator="out"/>
<feColorMatrix type="matrix" values="0 0 0 0 0 0 0 0 0 0 0 0 0 0 0 0 0 0 0.25 0"/>
<feBlend mode="normal" in2="BackgroundImageFix" result="effect1_dropShadow_2073_1114"/>
<feBlend mode="normal" in="SourceGraphic" in2="effect1_dropShadow_2073_1114" result="shape"/>
</filter>
<filter id="filter16_d_2073_1114" x="113.188" y="248.625" width="39.5273" height="57.9199" filterUnits="userSpaceOnUse" color-interpolation-filters="sRGB">
<feFlood flood-opacity="0" result="BackgroundImageFix"/>
<feColorMatrix in="SourceAlpha" type="matrix" values="0 0 0 0 0 0 0 0 0 0 0 0 0 0 0 0 0 0 127 0" result="hardAlpha"/>
<feOffset dy="4"/>
<feGaussianBlur stdDeviation="2"/>
<feComposite in2="hardAlpha" operator="out"/>
<feColorMatrix type="matrix" values="0 0 0 0 0 0 0 0 0 0 0 0 0 0 0 0 0 0 0.25 0"/>
<feBlend mode="normal" in2="BackgroundImageFix" result="effect1_dropShadow_2073_1114"/>
<feBlend mode="normal" in="SourceGraphic" in2="effect1_dropShadow_2073_1114" result="shape"/>
</filter>
<filter id="filter17_d_2073_1114" x="283.836" y="53.1328" width="28.1328" height="34.7168" filterUnits="userSpaceOnUse" color-interpolation-filters="sRGB">
<feFlood flood-opacity="0" result="BackgroundImageFix"/>
<feColorMatrix in="SourceAlpha" type="matrix" values="0 0 0 0 0 0 0 0 0 0 0 0 0 0 0 0 0 0 127 0" result="hardAlpha"/>
<feOffset dy="4"/>
<feGaussianBlur stdDeviation="2"/>
<feComposite in2="hardAlpha" operator="out"/>
<feColorMatrix type="matrix" values="0 0 0 0 0 0 0 0 0 0 0 0 0 0 0 0 0 0 0.25 0"/>
<feBlend mode="normal" in2="BackgroundImageFix" result="effect1_dropShadow_2073_1114"/>
<feBlend mode="normal" in="SourceGraphic" in2="effect1_dropShadow_2073_1114" result="shape"/>
</filter>
<filter id="filter18_d_2073_1114" x="136.195" y="171.014" width="24.5898" height="36.3457" filterUnits="userSpaceOnUse" color-interpolation-filters="sRGB">
<feFlood flood-opacity="0" result="BackgroundImageFix"/>
<feColorMatrix in="SourceAlpha" type="matrix" values="0 0 0 0 0 0 0 0 0 0 0 0 0 0 0 0 0 0 127 0" result="hardAlpha"/>
<feOffset dy="4"/>
<feGaussianBlur stdDeviation="2"/>
<feComposite in2="hardAlpha" operator="out"/>
<feColorMatrix type="matrix" values="0 0 0 0 0 0 0 0 0 0 0 0 0 0 0 0 0 0 0.25 0"/>
<feBlend mode="normal" in2="BackgroundImageFix" result="effect1_dropShadow_2073_1114"/>
<feBlend mode="normal" in="SourceGraphic" in2="effect1_dropShadow_2073_1114" result="shape"/>
</filter>
<filter id="filter19_d_2073_1114" x="537.273" y="103.766" width="39.5273" height="57.9199" filterUnits="userSpaceOnUse" color-interpolation-filters="sRGB">
<feFlood flood-opacity="0" result="BackgroundImageFix"/>
<feColorMatrix in="SourceAlpha" type="matrix" values="0 0 0 0 0 0 0 0 0 0 0 0 0 0 0 0 0 0 127 0" result="hardAlpha"/>
<feOffset dy="4"/>
<feGaussianBlur stdDeviation="2"/>
<feComposite in2="hardAlpha" operator="out"/>
<feColorMatrix type="matrix" values="0 0 0 0 0 0 0 0 0 0 0 0 0 0 0 0 0 0 0.25 0"/>
<feBlend mode="normal" in2="BackgroundImageFix" result="effect1_dropShadow_2073_1114"/>
<feBlend mode="normal" in="SourceGraphic" in2="effect1_dropShadow_2073_1114" result="shape"/>
</filter>
<filter id="filter20_d_2073_1114" x="531.234" y="60.1816" width="24.5898" height="36.3457" filterUnits="userSpaceOnUse" color-interpolation-filters="sRGB">
<feFlood flood-opacity="0" result="BackgroundImageFix"/>
<feColorMatrix in="SourceAlpha" type="matrix" values="0 0 0 0 0 0 0 0 0 0 0 0 0 0 0 0 0 0 127 0" result="hardAlpha"/>
<feOffset dy="4"/>
<feGaussianBlur stdDeviation="2"/>
<feComposite in2="hardAlpha" operator="out"/>
<feColorMatrix type="matrix" values="0 0 0 0 0 0 0 0 0 0 0 0 0 0 0 0 0 0 0.25 0"/>
<feBlend mode="normal" in2="BackgroundImageFix" result="effect1_dropShadow_2073_1114"/>
<feBlend mode="normal" in="SourceGraphic" in2="effect1_dropShadow_2073_1114" result="shape"/>
</filter>
<filter id="filter21_d_2073_1114" x="332.738" y="8.14258" width="39.3242" height="57.832" filterUnits="userSpaceOnUse" color-interpolation-filters="sRGB">
<feFlood flood-opacity="0" result="BackgroundImageFix"/>
<feColorMatrix in="SourceAlpha" type="matrix" values="0 0 0 0 0 0 0 0 0 0 0 0 0 0 0 0 0 0 127 0" result="hardAlpha"/>
<feOffset dy="4"/>
<feGaussianBlur stdDeviation="2"/>
<feComposite in2="hardAlpha" operator="out"/>
<feColorMatrix type="matrix" values="0 0 0 0 0 0 0 0 0 0 0 0 0 0 0 0 0 0 0.25 0"/>
<feBlend mode="normal" in2="BackgroundImageFix" result="effect1_dropShadow_2073_1114"/>
<feBlend mode="normal" in="SourceGraphic" in2="effect1_dropShadow_2073_1114" result="shape"/>
</filter>
<filter id="filter22_d_2073_1114" x="554.941" y="196.289" width="25.9648" height="35.8359" filterUnits="userSpaceOnUse" color-interpolation-filters="sRGB">
<feFlood flood-opacity="0" result="BackgroundImageFix"/>
<feColorMatrix in="SourceAlpha" type="matrix" values="0 0 0 0 0 0 0 0 0 0 0 0 0 0 0 0 0 0 127 0" result="hardAlpha"/>
<feOffset dy="4"/>
<feGaussianBlur stdDeviation="2"/>
<feComposite in2="hardAlpha" operator="out"/>
<feColorMatrix type="matrix" values="0 0 0 0 0 0 0 0 0 0 0 0 0 0 0 0 0 0 0.25 0"/>
<feBlend mode="normal" in2="BackgroundImageFix" result="effect1_dropShadow_2073_1114"/>
<feBlend mode="normal" in="SourceGraphic" in2="effect1_dropShadow_2073_1114" result="shape"/>
</filter>
<filter id="filter23_d_2073_1114" x="100.156" y="50.0742" width="155.426" height="125.6" filterUnits="userSpaceOnUse" color-interpolation-filters="sRGB">
<feFlood flood-opacity="0" result="BackgroundImageFix"/>
<feColorMatrix in="SourceAlpha" type="matrix" values="0 0 0 0 0 0 0 0 0 0 0 0 0 0 0 0 0 0 127 0" result="hardAlpha"/>
<feOffset dy="4"/>
<feGaussianBlur stdDeviation="2"/>
<feComposite in2="hardAlpha" operator="out"/>
<feColorMatrix type="matrix" values="0 0 0 0 0 0 0 0 0 0 0 0 0 0 0 0 0 0 0.25 0"/>
<feBlend mode="normal" in2="BackgroundImageFix" result="effect1_dropShadow_2073_1114"/>
<feBlend mode="normal" in="SourceGraphic" in2="effect1_dropShadow_2073_1114" result="shape"/>
</filter>
<filter id="filter24_d_2073_1114" x="-20.6914" y="33.5918" width="102.473" height="129.986" filterUnits="userSpaceOnUse" color-interpolation-filters="sRGB">
<feFlood flood-opacity="0" result="BackgroundImageFix"/>
<feColorMatrix in="SourceAlpha" type="matrix" values="0 0 0 0 0 0 0 0 0 0 0 0 0 0 0 0 0 0 127 0" result="hardAlpha"/>
<feOffset dy="4"/>
<feGaussianBlur stdDeviation="2"/>
<feComposite in2="hardAlpha" operator="out"/>
<feColorMatrix type="matrix" values="0 0 0 0 0 0 0 0 0 0 0 0 0 0 0 0 0 0 0.25 0"/>
<feBlend mode="normal" in2="BackgroundImageFix" result="effect1_dropShadow_2073_1114"/>
<feBlend mode="normal" in="SourceGraphic" in2="effect1_dropShadow_2073_1114" result="shape"/>
</filter>
<filter id="filter25_d_2073_1114" x="408.426" y="0" width="85.6797" height="85.6797" filterUnits="userSpaceOnUse" color-interpolation-filters="sRGB">
<feFlood flood-opacity="0" result="BackgroundImageFix"/>
<feColorMatrix in="SourceAlpha" type="matrix" values="0 0 0 0 0 0 0 0 0 0 0 0 0 0 0 0 0 0 127 0" result="hardAlpha"/>
<feOffset dy="4"/>
<feGaussianBlur stdDeviation="2"/>
<feComposite in2="hardAlpha" operator="out"/>
<feColorMatrix type="matrix" values="0 0 0 0 0 0 0 0 0 0 0 0 0 0 0 0 0 0 0.25 0"/>
<feBlend mode="normal" in2="BackgroundImageFix" result="effect1_dropShadow_2073_1114"/>
<feBlend mode="normal" in="SourceGraphic" in2="effect1_dropShadow_2073_1114" result="shape"/>
</filter>
<filter id="filter26_d_2073_1114" x="421.023" y="20.9941" width="54.1875" height="41.5918" filterUnits="userSpaceOnUse" color-interpolation-filters="sRGB">
<feFlood flood-opacity="0" result="BackgroundImageFix"/>
<feColorMatrix in="SourceAlpha" type="matrix" values="0 0 0 0 0 0 0 0 0 0 0 0 0 0 0 0 0 0 127 0" result="hardAlpha"/>
<feOffset dy="4"/>
<feGaussianBlur stdDeviation="2"/>
<feComposite in2="hardAlpha" operator="out"/>
<feColorMatrix type="matrix" values="0 0 0 0 0 0 0 0 0 0 0 0 0 0 0 0 0 0 0.25 0"/>
<feBlend mode="normal" in2="BackgroundImageFix" result="effect1_dropShadow_2073_1114"/>
<feBlend mode="normal" in="SourceGraphic" in2="effect1_dropShadow_2073_1114" result="shape"/>
</filter>
<linearGradient id="paint0_linear_2073_1114" x1="212.873" y1="247.519" x2="295.595" y2="366.757" gradientUnits="userSpaceOnUse">
<stop stop-color="white" stop-opacity="0"/>
<stop offset="1" stop-color="#6AABFF" stop-opacity="0.8"/>
</linearGradient>
<linearGradient id="paint1_linear_2073_1114" x1="58.1716" y1="0" x2="58.1716" y2="76.5415" gradientUnits="userSpaceOnUse">
<stop stop-color="white"/>
<stop offset="1" stop-color="#C4DDFC"/>
</linearGradient>
<linearGradient id="paint2_linear_2073_1114" x1="145.429" y1="0" x2="145.429" y2="162.268" gradientUnits="userSpaceOnUse">
<stop/>
<stop offset="1" stop-color="#666666"/>
</linearGradient>
<linearGradient id="paint3_linear_2073_1114" x1="258.837" y1="428.478" x2="339.793" y2="360.767" gradientUnits="userSpaceOnUse">
<stop stop-color="white" stop-opacity="0"/>
<stop offset="1" stop-color="#6AABFF" stop-opacity="0.8"/>
</linearGradient>
<linearGradient id="paint4_linear_2073_1114" x1="595.042" y1="428.478" x2="514.086" y2="360.767" gradientUnits="userSpaceOnUse">
<stop stop-color="white" stop-opacity="0"/>
<stop offset="1" stop-color="#6AABFF" stop-opacity="0.8"/>
</linearGradient>
<linearGradient id="paint5_linear_2073_1114" x1="428.733" y1="163.455" x2="428.733" y2="405.326" gradientUnits="userSpaceOnUse">
<stop stop-color="white" stop-opacity="0"/>
<stop offset="1" stop-color="#6AABFF" stop-opacity="0.45"/>
</linearGradient>
<linearGradient id="paint6_linear_2073_1114" x1="436.845" y1="328.113" x2="436.845" y2="404.655" gradientUnits="userSpaceOnUse">
<stop stop-color="white" stop-opacity="0"/>
<stop offset="1" stop-color="#6A90F9"/>
</linearGradient>
</defs>
</svg>
