<svg width="204" height="54" viewBox="0 0 204 54" fill="none" xmlns="http://www.w3.org/2000/svg">
<path d="M0 14.1682H8.26436V31.1269L22.6183 14.1682H32.4594L16.3656 33.1909L33.5468 53.162H23.7057L8.26436 35.255V53.162H0V14.1682Z" fill="#4A66FF"/>
<path d="M44.2982 53.9988C41.1084 53.9988 38.4986 53.1806 36.4688 51.5443C34.4752 49.8707 33.4784 47.6021 33.4784 44.7385C33.4784 41.7632 34.439 39.4575 36.3601 37.8211C38.2812 36.1475 40.9997 35.3108 44.5157 35.3108C46.0743 35.3108 47.5604 35.4781 48.9741 35.8128C50.3877 36.1475 51.6382 36.6124 52.7257 37.2075V36.538C52.7257 34.8645 52.1457 33.6372 50.9858 32.8562C49.8259 32.0752 48.0498 31.6847 45.6575 31.6847C42.4677 31.6847 39.5317 32.2984 36.8494 33.5256V27.3893C38.0093 26.8686 39.5136 26.4409 41.3622 26.1062C43.2108 25.7343 45.0594 25.5483 46.908 25.5483C51.6201 25.5483 55.1361 26.5525 57.4559 28.5607C59.7757 30.5318 60.9357 33.3025 60.9357 36.8727V53.162H53.215V50.7075C51.0039 52.9017 48.0317 53.9988 44.2982 53.9988ZM46.5274 48.4203C47.8685 48.4203 49.0828 48.16 50.1702 47.6393C51.2577 47.1186 52.1095 46.3934 52.7257 45.4637V42.786C50.8771 41.5215 48.8472 40.8893 46.6361 40.8893C45.1138 40.8893 43.9357 41.224 43.102 41.8934C42.3046 42.5256 41.9059 43.474 41.9059 44.7385C41.9059 45.9285 42.3046 46.8397 43.102 47.4719C43.8995 48.1042 45.0413 48.4203 46.5274 48.4203Z" fill="#4A66FF"/>
<path d="M84.0955 53.9988C82.0657 53.9988 80.2533 53.7013 78.6584 53.1062C77.0998 52.5112 75.6499 51.5628 74.3088 50.2612V53.162H66.3706V11.9368H74.5806V28.7839C75.7405 27.7426 77.1542 26.943 78.8215 26.3851C80.4889 25.8273 82.2469 25.5483 84.0955 25.5483C86.814 25.5483 89.2064 26.162 91.2724 27.3893C93.3748 28.5793 95.0059 30.2529 96.1658 32.4099C97.3257 34.567 97.9057 37.0401 97.9057 39.8294C97.9057 42.6558 97.3257 45.1475 96.1658 47.3046C95.0059 49.4244 93.3748 51.0794 91.2724 52.2695C89.2064 53.4224 86.814 53.9988 84.0955 53.9988ZM82.0294 47.4719C84.2405 47.4719 86.0347 46.7839 87.4121 45.4079C88.8258 43.9947 89.5326 42.1351 89.5326 39.8294C89.5326 37.5236 88.8258 35.6641 87.4121 34.2508C86.0347 32.8376 84.2405 32.131 82.0294 32.131C80.3258 32.131 78.7853 32.6145 77.4079 33.5814C76.0667 34.5112 75.1243 35.7384 74.5806 37.2632V42.3397C75.1606 43.9017 76.1211 45.1475 77.4623 46.0773C78.8034 47.0071 80.3258 47.4719 82.0294 47.4719Z" fill="#4A66FF"/>
<path d="M110.881 53.9988C107.691 53.9988 105.082 53.1806 103.052 51.5443C101.058 49.8707 100.061 47.6021 100.061 44.7385C100.061 41.7632 101.022 39.4575 102.943 37.8211C104.864 36.1475 107.583 35.3108 111.099 35.3108C112.657 35.3108 114.143 35.4781 115.557 35.8128C116.971 36.1475 118.221 36.6124 119.309 37.2075V36.538C119.309 34.8645 118.729 33.6372 117.569 32.8562C116.409 32.0752 114.633 31.6847 112.24 31.6847C109.051 31.6847 106.115 32.2984 103.432 33.5256V27.3893C104.592 26.8686 106.097 26.4409 107.945 26.1062C109.794 25.7343 111.642 25.5483 113.491 25.5483C118.203 25.5483 121.719 26.5525 124.039 28.5607C126.359 30.5318 127.519 33.3025 127.519 36.8727V53.162H119.798V50.7075C117.587 52.9017 114.615 53.9988 110.881 53.9988ZM113.11 48.4203C114.452 48.4203 115.666 48.16 116.753 47.6393C117.841 47.1186 118.692 46.3934 119.309 45.4637V42.786C117.46 41.5215 115.43 40.8893 113.219 40.8893C111.697 40.8893 110.519 41.224 109.685 41.8934C108.888 42.5256 108.489 43.474 108.489 44.7385C108.489 45.9285 108.888 46.8397 109.685 47.4719C110.482 48.1042 111.624 48.4203 113.11 48.4203Z" fill="#4A66FF"/>
<path d="M132.954 26.3851H140.892V30.2343C141.943 28.9327 143.411 27.9471 145.296 27.2777C147.181 26.5711 149.319 26.2178 151.712 26.2178V32.6331C149.21 32.6331 146.999 33.0236 145.078 33.8046C143.193 34.5856 141.889 35.7756 141.164 37.3748V53.162H132.954V26.3851Z" fill="#4A66FF"/>
<path d="M166.158 54C160.272 54 155.501 49.1047 155.501 43.0661H204L195.627 54H166.158Z" fill="#4A66FF"/>
<path d="M166.158 0C160.272 0 155.501 4.89527 155.501 10.9339H195.518L204 0H166.158Z" fill="#4A66FF"/>
<path d="M155.501 30.7936C155.501 24.7549 160.272 19.8597 166.158 19.8597H185.296L180.286 30.7936H155.501Z" fill="#4A66FF"/>
<path d="M155.501 30.7936L169.42 30.7935V43.0662L155.501 43.0661V30.7936Z" fill="#4A66FF"/>
<path d="M175.618 43.0663C175.618 46.3321 173.436 47.0829 170.072 47.0829C166.709 47.0829 163.983 44.4354 163.983 41.1697C163.983 37.9039 166.057 35.2564 169.42 35.2564C169.42 40.7234 169.203 43.0663 175.618 43.0663Z" fill="#4A66FF"/>
</svg>
