<svg width="14" height="14" viewBox="0 0 14 14" fill="none" xmlns="http://www.w3.org/2000/svg">
<path d="M7 7.3325L8.33 8.1375C8.45833 8.21916 8.58667 8.21636 8.715 8.1291C8.84333 8.04183 8.89 7.92213 8.855 7.77L8.505 6.2475L9.695 5.215C9.81167 5.11 9.84667 4.9847 9.8 4.8391C9.75333 4.6935 9.64833 4.61463 9.485 4.6025L7.9275 4.48L7.315 3.045C7.25667 2.905 7.15167 2.835 7 2.835C6.84833 2.835 6.74333 2.905 6.685 3.045L6.0725 4.48L4.515 4.6025C4.35167 4.61417 4.24667 4.69303 4.2 4.8391C4.15333 4.98517 4.18833 5.11047 4.305 5.215L5.495 6.2475L5.145 7.77C5.11 7.92167 5.15667 8.04136 5.285 8.1291C5.41333 8.21683 5.54167 8.21963 5.67 8.1375L7 7.3325ZM2.8 11.2L1.19 12.81C0.968334 13.0317 0.714468 13.0814 0.428401 12.9591C0.142334 12.8368 -0.000465527 12.618 1.14007e-06 12.3025V1.4C1.14007e-06 1.015 0.137201 0.685533 0.411601 0.4116C0.686001 0.137667 1.01547 0.000466667 1.4 0H12.6C12.985 0 13.3147 0.1372 13.5891 0.4116C13.8635 0.686 14.0005 1.01547 14 1.4V9.8C14 10.185 13.863 10.5147 13.5891 10.7891C13.3152 11.0635 12.9855 11.2005 12.6 11.2H2.8ZM2.205 9.8H12.6V1.4H1.4V10.5875L2.205 9.8Z" fill="#4A99FF"/>
</svg>