<svg width="12" height="12" viewBox="0 0 12 12" fill="none" xmlns="http://www.w3.org/2000/svg">
<path d="M1.71429 0H10.2857C10.7404 0 11.1764 0.180612 11.4979 0.502103C11.8194 0.823594 12 1.25963 12 1.71429V10.2857C12 10.7404 11.8194 11.1764 11.4979 11.4979C11.1764 11.8194 10.7404 12 10.2857 12H1.71429C1.25963 12 0.823594 11.8194 0.502103 11.4979C0.180612 11.1764 0 10.7404 0 10.2857V1.71429C0 1.25963 0.180612 0.823594 0.502103 0.502103C0.823594 0.180612 1.25963 0 1.71429 0ZM1.71429 0.857143C1.48696 0.857143 1.26894 0.947449 1.10819 1.10819C0.947449 1.26894 0.857143 1.48696 0.857143 1.71429V10.2857C0.857143 10.513 0.947449 10.7311 1.10819 10.8918C1.26894 11.0526 1.48696 11.1429 1.71429 11.1429H10.2857C10.513 11.1429 10.7311 11.0526 10.8918 10.8918C11.0526 10.7311 11.1429 10.513 11.1429 10.2857V1.71429C11.1429 1.48696 11.0526 1.26894 10.8918 1.10819C10.7311 0.947449 10.513 0.857143 10.2857 0.857143H1.71429Z" fill="#959595"/>
<path d="M1.71484 3.85631C1.71484 3.74264 1.76 3.63363 1.84037 3.55326C1.92074 3.47289 2.02975 3.42773 2.14342 3.42773H9.8577C9.97136 3.42773 10.0804 3.47289 10.1607 3.55326C10.2411 3.63363 10.2863 3.74264 10.2863 3.85631V9.85631C10.2863 9.96997 10.2411 10.079 10.1607 10.1594C10.0804 10.2397 9.97136 10.2849 9.8577 10.2849H2.14342C2.02975 10.2849 1.92074 10.2397 1.84037 10.1594C1.76 10.079 1.71484 9.96997 1.71484 9.85631V3.85631Z" fill="#959595"/>
</svg>
