<svg width="90" height="98" viewBox="0 0 90 98" fill="none" xmlns="http://www.w3.org/2000/svg">
<path d="M19.7758 97.668C8.85391 97.668 0 88.814 0 77.8922H90L74.4619 97.668H19.7758Z" fill="#4A99FF"/>
<path d="M19.7758 0C8.85392 0 0 8.85392 0 19.7758H74.2601L90 0H19.7758Z" fill="#4A99FF"/>
<path d="M0 55.6947C0 44.7729 8.85392 35.9189 19.7758 35.9189H55.2915L45.9936 55.6947H0Z" fill="#4A99FF"/>
<rect y="55" width="26" height="23" fill="#4A99FF"/>
<path d="M37.3322 77.8931C37.3322 83.7999 33.2817 85.1577 27.0407 85.1577C20.7996 85.1577 15.7402 80.3694 15.7402 74.4626C15.7402 68.5559 19.5889 63.7676 25.8299 63.7676C25.8299 73.6555 25.4263 77.8931 37.3322 77.8931Z" fill="#4A99FF"/>
</svg>
